<svg width="1911" height="731" xmlns="http://www.w3.org/2000/svg" xmlns:xlink="http://www.w3.org/1999/xlink" fill="white"><defs><style>
  text {
    fill: #212529;
    font-family: Helvetica Neue, Helvetica, Arial, sans-serif;
    font-size: 16px;
  }

  marker, text {
    fill-opacity: 1;
  }

  * {
    overflow: visible;
  }
</style></defs><svg x="535" y="15" width="730" height="600" class="NavigaTUM" fill="white"><g><g><path d="M 0 8 l 8 -8 H 730 l -8 8 Z" stroke="black"></path><path d="M 730 0 V 592 l -8 8 V 8 Z" stroke="black"></path><rect x="0" y="8" width="722" height="591" stroke="black"></rect></g><text x="50%" y="30" dominant-baseline="middle" text-anchor="middle" font-weight="bold" pointer-events="none"><tspan x="50%" dy="-8" text-anchor="middle" font-size="85%">«server»</tspan><tspan x="50%" dy="18" text-anchor="middle">NavigaTUM</tspan></text></g></svg><svg x="1015" y="325" width="210" height="100" class="navigatum-data" fill="white"><g><rect width="100%" height="100%" stroke="black"></rect><text x="50%" y="25px" dominant-baseline="auto" text-anchor="middle" font-weight="bold" pointer-events="none">navigatum-data</text><g transform="translate(179, 7)"><path d="M 4.8 0 L 24 0 L 24 24 L 4.8 24 L 4.8 19.2 L 0 19.2 L 0 14.4 L 4.8 14.4 L 4.8 9.6 L 0 9.6 L 0 4.8 L 4.8 4.8 Z" fill="#ffffff" stroke="#000000" stroke-width="1.2" stroke-miterlimit="10" style="transform: scale(1);"></path><path d="M 4.8 4.8 L 9.6 4.8 L 9.6 9.6 L 4.8 9.6 M 4.8 14.4 L 9.6 14.4 L 9.6 19.2 L 4.8 19.2" fill="none" stroke="#000000" stroke-width="1.2" stroke-miterlimit="10" style="transform: scale(1);"></path></g></g></svg><svg x="1035" y="375" width="160" height="40" class="Manual Fixes" fill="white"><g><rect width="100%" height="100%" stroke="black"></rect><text x="50%" y="28" dominant-baseline="auto" text-anchor="middle" font-weight="bold" pointer-events="none">Manual Fixes</text><g transform="translate(134, 7) scale(1)"><path d="M 0 0 L 13 0 L 19.2 7.25 L 19.2 24 L 0 24 L 0 0 Z" fill="#ffffff" stroke="black" stroke-width="1.2" stroke-miterlimit="10"></path><path d="M 13 0 L 13 7.25 L 19.2 7.25" fill="none" stroke="black" stroke-width="1.2" stroke-miterlimit="10"></path></g></g></svg><svg x="585" y="505" width="240" height="60" class="navigatum-webclient" fill="white"><g><rect width="100%" height="100%" stroke="black"></rect><text x="50%" y="25px" dominant-baseline="auto" text-anchor="middle" font-weight="bold" pointer-events="none">navigatum-webclient</text><g transform="translate(209, 7)"><path d="M 4.8 0 L 24 0 L 24 24 L 4.8 24 L 4.8 19.2 L 0 19.2 L 0 14.4 L 4.8 14.4 L 4.8 9.6 L 0 9.6 L 0 4.8 L 4.8 4.8 Z" fill="#ffffff" stroke="#000000" stroke-width="1.2" stroke-miterlimit="10" style="transform: scale(1);"></path><path d="M 4.8 4.8 L 9.6 4.8 L 9.6 9.6 L 4.8 9.6 M 4.8 14.4 L 9.6 14.4 L 9.6 19.2 L 4.8 19.2" fill="none" stroke="#000000" stroke-width="1.2" stroke-miterlimit="10" style="transform: scale(1);"></path></g></g></svg><svg x="905" y="95" width="20" height="20" class="search_data.json" fill="white"><g><circle cx="10px" cy="50%" r="10" stroke="black" stroke-width="2"></circle><text x="25px" dominant-baseline="auto" text-anchor="start" font-weight="bold" pointer-events="none">search_data.json</text></g></svg><svg x="575" y="245" width="240" height="40" class="navigatum-server" fill="white"><g><rect width="100%" height="100%" stroke="black"></rect><text x="50%" y="25px" dominant-baseline="auto" text-anchor="middle" font-weight="bold" pointer-events="none">navigatum-server</text><g transform="translate(209, 7)"><path d="M 4.8 0 L 24 0 L 24 24 L 4.8 24 L 4.8 19.2 L 0 19.2 L 0 14.4 L 4.8 14.4 L 4.8 9.6 L 0 9.6 L 0 4.8 L 4.8 4.8 Z" fill="#ffffff" stroke="#000000" stroke-width="1.2" stroke-miterlimit="10" style="transform: scale(1);"></path><path d="M 4.8 4.8 L 9.6 4.8 L 9.6 9.6 L 4.8 9.6 M 4.8 14.4 L 9.6 14.4 L 9.6 19.2 L 4.8 19.2" fill="none" stroke="#000000" stroke-width="1.2" stroke-miterlimit="10" style="transform: scale(1);"></path></g></g></svg><svg x="685" y="185" width="20" height="20" class="nessesary for /api/search/" fill="white"><g><circle cx="10px" cy="50%" r="10" stroke="black" stroke-width="2"></circle><text x="25px" dominant-baseline="auto" text-anchor="start" font-weight="bold" pointer-events="none">nessesary for /api/search/</text></g></svg><svg x="575" y="105" width="240" height="40" class="MeiliSearch Instance" fill="white"><g><rect width="100%" height="100%" stroke="black"></rect><text x="50%" y="25px" dominant-baseline="auto" text-anchor="middle" font-weight="bold" pointer-events="none">MeiliSearch Instance</text><g transform="translate(209, 7)"><path d="M 4.8 0 L 24 0 L 24 24 L 4.8 24 L 4.8 19.2 L 0 19.2 L 0 14.4 L 4.8 14.4 L 4.8 9.6 L 0 9.6 L 0 4.8 L 4.8 4.8 Z" fill="#ffffff" stroke="#000000" stroke-width="1.2" stroke-miterlimit="10" style="transform: scale(1);"></path><path d="M 4.8 4.8 L 9.6 4.8 L 9.6 9.6 L 4.8 9.6 M 4.8 14.4 L 9.6 14.4 L 9.6 19.2 L 4.8 19.2" fill="none" stroke="#000000" stroke-width="1.2" stroke-miterlimit="10" style="transform: scale(1);"></path></g></g></svg><svg x="905" y="255" width="20" height="20" class="api_data.json" fill="white"><g><circle cx="10px" cy="50%" r="10" stroke="black" stroke-width="2"></circle><text x="25px" dominant-baseline="auto" text-anchor="start" font-weight="bold" pointer-events="none">api_data.json</text></g></svg><svg x="985" y="505" width="170" height="60" class="rendertron" fill="white"><g><rect width="100%" height="100%" stroke="black"></rect><text x="50%" y="25px" dominant-baseline="auto" text-anchor="middle" font-weight="bold" pointer-events="none">rendertron</text><g transform="translate(139, 7)"><path d="M 4.8 0 L 24 0 L 24 24 L 4.8 24 L 4.8 19.2 L 0 19.2 L 0 14.4 L 4.8 14.4 L 4.8 9.6 L 0 9.6 L 0 4.8 L 4.8 4.8 Z" fill="#ffffff" stroke="#000000" stroke-width="1.2" stroke-miterlimit="10" style="transform: scale(1);"></path><path d="M 4.8 4.8 L 9.6 4.8 L 9.6 9.6 L 4.8 9.6 M 4.8 14.4 L 9.6 14.4 L 9.6 19.2 L 4.8 19.2" fill="none" stroke="#000000" stroke-width="1.2" stroke-miterlimit="10" style="transform: scale(1);"></path></g></g></svg><svg x="735" y="455" width="20" height="20" class="nessesary for bots without js execution" fill="white"><g><circle cx="10px" cy="50%" r="10" stroke="black" stroke-width="2"></circle><text x="25px" dominant-baseline="auto" text-anchor="start" font-weight="bold" pointer-events="none">nessesary for bots without js execution</text></g></svg><svg x="905" y="135" width="20" height="20" class="search_synonyms.json" fill="white"><g><circle cx="10px" cy="50%" r="10" stroke="black" stroke-width="2"></circle><text x="25px" dominant-baseline="auto" text-anchor="start" font-weight="bold" pointer-events="none">search_synonyms.json</text></g></svg><svg x="1615" y="145" width="260" height="80" class="mytum/&quot;Rakete&quot; Roomfinder" fill="white"><g><g><path d="M 0 8 l 8 -8 H 260 l -8 8 Z" stroke="black"></path><path d="M 260 0 V 72 l -8 8 V 8 Z" stroke="black"></path><rect x="0" y="8" width="252" height="71" stroke="black"></rect></g><text x="50%" y="30" dominant-baseline="middle" text-anchor="middle" font-weight="bold" pointer-events="none"><tspan x="50%" dy="-8" text-anchor="middle" font-size="85%">«public API»</tspan><tspan x="50%" dy="18" text-anchor="middle">mytum/"Rakete" Roomfinder</tspan></text></g></svg><svg x="1655" y="365" width="200" height="100" class="TUMOnline" fill="white"><g><g><path d="M 0 8 l 8 -8 H 200 l -8 8 Z" stroke="black"></path><path d="M 200 0 V 92 l -8 8 V 8 Z" stroke="black"></path><rect x="0" y="8" width="192" height="91" stroke="black"></rect></g><text x="50%" y="30" dominant-baseline="middle" text-anchor="middle" font-weight="bold" pointer-events="none"><tspan x="50%" dy="-8" text-anchor="middle" font-size="85%">«public API»</tspan><tspan x="50%" dy="18" text-anchor="middle">TUMOnline</tspan></text></g></svg><svg x="1435" y="175" width="20" height="20" class="existing Rooms" fill="white"><g><circle cx="10px" cy="50%" r="10" stroke="black" stroke-width="2"></circle><text x="25px" dominant-baseline="auto" text-anchor="start" font-weight="bold" pointer-events="none">existing Rooms</text></g></svg><svg x="1435" y="405" width="20" height="20" class="Room-Details Website" fill="white"><g><circle cx="10px" cy="50%" r="10" stroke="black" stroke-width="2"></circle><text x="25px" dominant-baseline="auto" text-anchor="start" font-weight="bold" pointer-events="none">Room-Details Website</text></g></svg><svg x="1435" y="85" width="20" height="20" class="Building-maps" fill="white"><g><circle cx="10px" cy="50%" r="10" stroke="black" stroke-width="2"></circle><text x="25px" dominant-baseline="auto" text-anchor="start" font-weight="bold" pointer-events="none">Building-maps</text></g></svg><svg x="1435" y="275" width="20" height="20" class="existing Buildings" fill="white"><g><circle cx="10px" cy="50%" r="10" stroke="black" stroke-width="2"></circle><text x="25px" dominant-baseline="auto" text-anchor="start" font-weight="bold" pointer-events="none">existing Buildings</text></g></svg><svg x="295" y="255" width="20" height="20" class="/api/" fill="white"><g><circle cx="10px" cy="50%" r="10" stroke="black" stroke-width="2"></circle><text x="25px" dominant-baseline="auto" text-anchor="start" font-weight="bold" pointer-events="none">/api/</text></g></svg><svg x="315" y="365" width="20" height="20" class="Ressources-CDN (/cdn/)" fill="white"><g><circle cx="10px" cy="50%" r="10" stroke="black" stroke-width="2"></circle><text x="25px" dominant-baseline="auto" text-anchor="start" font-weight="bold" pointer-events="none">Ressources-CDN (/cdn/)</text></g></svg><svg x="305" y="655" width="20" height="20" class="Website" fill="white"><g><circle cx="10px" cy="50%" r="10" stroke="black" stroke-width="2"></circle><text x="25px" dominant-baseline="auto" text-anchor="start" font-weight="bold" pointer-events="none">Website</text></g></svg><svg x="1625" y="555" width="270" height="100" class="Physics Department Roomfinder" fill="white"><g><g><path d="M 0 8 l 8 -8 H 270 l -8 8 Z" stroke="black"></path><path d="M 270 0 V 92 l -8 8 V 8 Z" stroke="black"></path><rect x="0" y="8" width="262" height="91" stroke="black"></rect></g><text x="50%" y="30" dominant-baseline="middle" text-anchor="middle" font-weight="bold" pointer-events="none"><tspan x="50%" dy="-8" text-anchor="middle" font-size="85%">«public API»</tspan><tspan x="50%" dy="18" text-anchor="middle">Physics Department Roomfinder</tspan></text></g></svg><svg x="1435" y="505" width="20" height="20" class="extra Rooms" fill="white"><g><circle cx="10px" cy="50%" r="10" stroke="black" stroke-width="2"></circle><text x="25px" dominant-baseline="auto" text-anchor="start" font-weight="bold" pointer-events="none">extra Rooms</text></g></svg><svg x="1435" y="595" width="20" height="20" class="extra Buildings" fill="white"><g><circle cx="10px" cy="50%" r="10" stroke="black" stroke-width="2"></circle><text x="25px" dominant-baseline="auto" text-anchor="start" font-weight="bold" pointer-events="none">extra Buildings</text></g></svg><svg x="1435" y="685" width="20" height="20" class="extra Information" fill="white"><g><circle cx="10px" cy="50%" r="10" stroke="black" stroke-width="2"></circle><text x="25px" dominant-baseline="auto" text-anchor="start" font-weight="bold" pointer-events="none">extra Information</text></g></svg><svg x="15" y="355" width="200" height="100" class="CampusApps" fill="white"><g><g><path d="M 0 8 l 8 -8 H 200 l -8 8 Z" stroke="#26de81"></path><path d="M 200 0 V 92 l -8 8 V 8 Z" stroke="#26de81"></path><rect x="0" y="8" width="192" height="91" stroke="#26de81"></rect></g><text x="50%" y="30" dominant-baseline="middle" text-anchor="middle" font-weight="bold" pointer-events="none"><tspan x="50%" dy="-8" text-anchor="middle" font-size="85%">«clients»</tspan><tspan x="50%" dy="18" text-anchor="middle">CampusApps</tspan></text></g></svg><svg x="15" y="675" width="200" height="100" class="Users" fill="white"><g><g><path d="M 0 8 l 8 -8 H 200 l -8 8 Z" stroke="#26de81"></path><path d="M 200 0 V 92 l -8 8 V 8 Z" stroke="#26de81"></path><rect x="0" y="8" width="192" height="91" stroke="#26de81"></rect></g><text x="50%" y="30" dominant-baseline="middle" text-anchor="middle" font-weight="bold" pointer-events="none"><tspan x="50%" dy="-8" text-anchor="middle" font-size="85%">«humans»</tspan><tspan x="50%" dy="18" text-anchor="middle">Users</tspan></text></g></svg><svg x="305" y="785" width="20" height="20" class="Screenshot engine (/rendertron/screenshot)" fill="white"><g><circle cx="10px" cy="50%" r="10" stroke="black" stroke-width="2"></circle><text x="25px" dominant-baseline="auto" text-anchor="start" font-weight="bold" pointer-events="none">Screenshot engine (/rendertron/screenshot)</text></g></svg><svg x="15" y="545" width="200" height="100" class="Twitterbot, ..." fill="white"><g><g><path d="M 0 8 l 8 -8 H 200 l -8 8 Z" stroke="#26de81"></path><path d="M 200 0 V 92 l -8 8 V 8 Z" stroke="#26de81"></path><rect x="0" y="8" width="192" height="91" stroke="#26de81"></rect></g><text x="50%" y="30" dominant-baseline="middle" text-anchor="middle" font-weight="bold" pointer-events="none"><tspan x="50%" dy="-8" text-anchor="middle" font-size="85%">«bots»</tspan><tspan x="50%" dy="18" text-anchor="middle">Twitterbot, ...</tspan></text></g></svg><svg x="1225" y="95" width="210" height="280" class="" fill="white"><g><polyline points="210 0,105 0,105 280,0 280" stroke="black" fill="none"></polyline></g></svg><svg x="1455" y="95" width="290" height="50" class="" fill="white"><g><polyline points="0 0,290 0,290 50" stroke="black" fill="none"></polyline></g></svg><svg x="1225" y="185" width="210" height="190" class="" fill="white"><g><polyline points="210 0,105 0,105 190,0 190" stroke="black" fill="none"></polyline></g></svg><svg x="1455" y="185" width="160" height="1" class="" fill="white"><g><polyline points="0 0,160 0" stroke="black" fill="none"></polyline></g></svg><svg x="1225" y="375" width="210" height="40" class="" fill="white"><g><polyline points="210 40,105 40,105 0,0 0" stroke="black" fill="none"></polyline></g></svg><svg x="1455" y="415" width="200" height="1" class="" fill="white"><g><polyline points="0 0,200 0" stroke="black" fill="none"></polyline></g></svg><svg x="1225" y="285" width="210" height="90" class="" fill="white"><g><polyline points="210 0,105 0,105 90,0 90" stroke="black" fill="none" stroke-width="1"></polyline><text x="105" y="45" dominant-baseline="middle" text-anchor="start" font-weight="bold" pointer-events="none" dx="5"></text></g></svg><svg x="1455" y="225" width="290" height="60" class="" fill="white"><g><polyline points="0 60,290 60,290 0" stroke="black" fill="none"></polyline></g></svg><svg x="925" y="105" width="195" height="220" class="" fill="white"><g><polyline points="195 220,195 0,0 0" stroke="black" fill="none"></polyline></g></svg><svg x="815" y="105" width="90" height="20" class="" fill="white"><g><marker id="marker-c1e1ca46-9243-4986-adf6-32dfa13c56df" viewBox="0 0 30 30" markerWidth="22" markerHeight="30" refX="30" refY="15" orient="auto" markerUnits="strokeWidth"><path d="M0,29 L30,15 L0,1" fill="none" stroke="black"></path></marker><polyline points="0 20,45 20,45 0,90 0" stroke="black" fill="none" stroke-width="1" stroke-dasharray="7" marker-end="url(#marker-c1e1ca46-9243-4986-adf6-32dfa13c56df)"></polyline></g></svg><svg x="815" y="265" width="90" height="1" class="" fill="white"><g><marker id="marker-7a4a03a7-0871-4c0c-aed4-e57a7fe0b04f" viewBox="0 0 30 30" markerWidth="22" markerHeight="30" refX="30" refY="15" orient="auto" markerUnits="strokeWidth"><path d="M0,29 L30,15 L0,1" fill="none" stroke="black"></path></marker><polyline points="0 0,90 0" stroke="black" fill="none" stroke-width="1" stroke-dasharray="7" marker-end="url(#marker-7a4a03a7-0871-4c0c-aed4-e57a7fe0b04f)"></polyline></g></svg><svg x="312" y="372" width="273" height="163" class="" fill="white"><g><marker id="marker-2bd21e8b-56d8-49be-bb13-b1e4dd63a01b" viewBox="0 0 27 27" markerWidth="27" markerHeight="27" refX="0" refY="0" orient="auto" markerUnits="strokeWidth"><path d="M 13 -13.5 a 13,13 0 0 0 0,27" fill="none" stroke="black" stroke-width="2"></path></marker><polyline points="273 163,13 163,13 16" stroke="black" fill="none" stroke-width="1" marker-end="url(#marker-2bd21e8b-56d8-49be-bb13-b1e4dd63a01b)"></polyline></g></svg><svg x="695" y="145" width="1" height="40" class="" fill="white"><g><polyline points="0 0,0 40,0 0,0 40" stroke="black" fill="none"></polyline></g></svg><svg x="682" y="192" width="27" height="53" class="" fill="white"><g><marker id="marker-02176b74-4ebc-45bf-aeb9-6a6fa2dc261f" viewBox="0 0 27 27" markerWidth="27" markerHeight="27" refX="0" refY="0" orient="auto" markerUnits="strokeWidth"><path d="M 13 -13.5 a 13,13 0 0 0 0,27" fill="none" stroke="black" stroke-width="2"></path></marker><polyline points="13 53,13 13,13 53,13 16" stroke="black" fill="none" stroke-width="1" marker-end="url(#marker-02176b74-4ebc-45bf-aeb9-6a6fa2dc261f)"></polyline></g></svg><svg x="315" y="265" width="260" height="1" class="" fill="white"><g><polyline points="260 0,0 0" stroke="black" fill="none"></polyline></g></svg><svg x="925" y="265" width="195" height="60" class="" fill="white"><g><polyline points="0 0,195 0,195 60" stroke="black" fill="none"></polyline></g></svg><svg x="292" y="262" width="293" height="273" class="" fill="white"><g><marker id="marker-81a638be-0271-4ad6-a418-24af44f29c1d" viewBox="0 0 27 27" markerWidth="27" markerHeight="27" refX="0" refY="0" orient="auto" markerUnits="strokeWidth"><path d="M 13 -13.5 a 13,13 0 0 0 0,27" fill="none" stroke="black" stroke-width="2"></path></marker><polyline points="293 273,13 273,13 16" stroke="black" fill="none" stroke-width="1" marker-end="url(#marker-81a638be-0271-4ad6-a418-24af44f29c1d)"></polyline></g></svg><svg x="335" y="375" width="680" height="1" class="" fill="white"><g><polyline points="0 0,680 0" stroke="black" fill="none"></polyline></g></svg><svg x="325" y="565" width="380" height="100" class="" fill="white"><g><polyline points="0 100,380 100,380 0" stroke="black" fill="none"></polyline></g></svg><svg x="1455" y="515" width="305" height="40" class="" fill="white"><g><polyline points="305 40,305 0,0 0" stroke="black" fill="none"></polyline></g></svg><svg x="1455" y="605" width="170" height="1" class="" fill="white"><g><polyline points="170 0,0 0" stroke="black" fill="none"></polyline></g></svg><svg x="1455" y="655" width="305" height="40" class="" fill="white"><g><polyline points="305 0,305 40,0 40" stroke="black" fill="none"></polyline></g></svg><svg x="115" y="215" width="204" height="140" class="" fill="white"><g><marker id="marker-ef877731-d06a-432f-ac62-b96c0f3611ef" viewBox="0 0 27 27" markerWidth="27" markerHeight="27" refX="0" refY="0" orient="auto" markerUnits="strokeWidth"><path d="M 13 -13.5 a 13,13 0 0 0 0,27" fill="none" stroke="#26de81" stroke-width="2"></path></marker><polyline points="0 140,0 0,190 0,190 37" stroke="#26de81" fill="none" stroke-width="1" marker-end="url(#marker-ef877731-d06a-432f-ac62-b96c0f3611ef)"></polyline></g></svg><svg x="115" y="315" width="224" height="64" class="" fill="white"><g><marker id="marker-7bae1f5d-d16e-469d-a071-90c745f726c7" viewBox="0 0 27 27" markerWidth="27" markerHeight="27" refX="0" refY="0" orient="auto" markerUnits="strokeWidth"><path d="M 13 -13.5 a 13,13 0 0 0 0,27" fill="none" stroke="#26de81" stroke-width="2"></path></marker><polyline points="0 40,0 0,210 0,210 47" stroke="#26de81" fill="none" stroke-width="1" marker-end="url(#marker-7bae1f5d-d16e-469d-a071-90c745f726c7)"></polyline></g></svg><svg x="215" y="662" width="114" height="63" class="" fill="white"><g><marker id="marker-3ab6e852-8b41-4c34-a37a-39adb977775e" viewBox="0 0 27 27" markerWidth="27" markerHeight="27" refX="0" refY="0" orient="auto" markerUnits="strokeWidth"><path d="M 13 -13.5 a 13,13 0 0 0 0,27" fill="none" stroke="#26de81" stroke-width="2"></path></marker><polyline points="0 63,100 63,100 16" stroke="#26de81" fill="none" stroke-width="1" marker-end="url(#marker-3ab6e852-8b41-4c34-a37a-39adb977775e)"></polyline></g></svg><svg x="755" y="465" width="315" height="40" class="" fill="white"><g><polyline points="315 40,315 0,0 0" stroke="black" fill="none"></polyline></g></svg><svg x="705" y="452" width="44" height="53" class="" fill="white"><g><marker id="marker-932efd5b-315c-41f5-ac75-fab9a336b37d" viewBox="0 0 27 27" markerWidth="27" markerHeight="27" refX="0" refY="0" orient="auto" markerUnits="strokeWidth"><path d="M 13 -13.5 a 13,13 0 0 0 0,27" fill="none" stroke="black" stroke-width="2"></path></marker><polyline points="0 53,0 13,27 13" stroke="black" fill="none" stroke-width="1" marker-end="url(#marker-932efd5b-315c-41f5-ac75-fab9a336b37d)"></polyline></g></svg><svg x="325" y="565" width="745" height="230" class="" fill="white"><g><polyline points="745 0,745 230,0 230" stroke="black" fill="none"></polyline></g></svg><svg x="215" y="595" width="114" height="74" class="" fill="white"><g><marker id="marker-9f69d649-e1d5-4a58-9aef-e99073deb7aa" viewBox="0 0 27 27" markerWidth="27" markerHeight="27" refX="0" refY="0" orient="auto" markerUnits="strokeWidth"><path d="M 13 -13.5 a 13,13 0 0 0 0,27" fill="none" stroke="#26de81" stroke-width="2"></path></marker><polyline points="0 0,100 0,100 57" stroke="#26de81" fill="none" stroke-width="1" marker-end="url(#marker-9f69d649-e1d5-4a58-9aef-e99073deb7aa)"></polyline></g></svg><svg x="215" y="725" width="114" height="74" class="" fill="white"><g><marker id="marker-94128977-4cd4-46de-8b7b-98a30854dfd4" viewBox="0 0 27 27" markerWidth="27" markerHeight="27" refX="0" refY="0" orient="auto" markerUnits="strokeWidth"><path d="M 13 -13.5 a 13,13 0 0 0 0,27" fill="none" stroke="#26de81" stroke-width="2"></path></marker><polyline points="0 0,100 0,100 57" stroke="#26de81" fill="none" stroke-width="1" marker-end="url(#marker-94128977-4cd4-46de-8b7b-98a30854dfd4)"></polyline></g></svg><svg x="925" y="145" width="195" height="180" class="" fill="white"><g><polyline points="0 0,195 0,195 180" stroke="black" fill="none"></polyline></g></svg><svg x="815" y="125" width="90" height="20" class="" fill="white"><g><marker id="marker-2d70033b-c3d7-47dc-982a-1e92b59c0636" viewBox="0 0 30 30" markerWidth="22" markerHeight="30" refX="30" refY="15" orient="auto" markerUnits="strokeWidth"><path d="M0,29 L30,15 L0,1" fill="none" stroke="black"></path></marker><polyline points="0 0,45 0,45 20,90 20" stroke="black" fill="none" stroke-width="1" stroke-dasharray="7" marker-end="url(#marker-2d70033b-c3d7-47dc-982a-1e92b59c0636)"></polyline></g></svg></svg>