<svg xmlns="http://www.w3.org/2000/svg" xmlns:xlink="http://www.w3.org/1999/xlink" width="1911" height="821" fill="#fff"><defs><style>text{fill:#212529;font-family:Helvetica Neue,Helvetica,Arial,sans-serif;font-size:16px}marker,text{fill-opacity:1}*{overflow:visible}</style></defs><svg width="730" height="600" x="535" y="15" fill="#fff" class="NavigaTUM"><g><g><path fill="#fff" stroke="#000" d="M 0 8 l 8 -8 H 730 l -8 8 Z" class="sc-jSMfEi bOarBj"/><path fill="#fff" stroke="#000" d="M 730 0 V 592 l -8 8 V 8 Z" class="sc-jSMfEi bOarBj"/><rect width="722" height="591" x="0" y="8" fill="#fff" stroke="#000" class="sc-iBkjds iopFig"/></g><text x="50%" y="30" dominant-baseline="middle" font-weight="bold" pointer-events="none" text-anchor="middle"><tspan x="50%" dy="-8" font-size="85%" text-anchor="middle">«server»</tspan><tspan x="50%" dy="18" text-anchor="middle" text-decoration="underline">NavigaTUM</tspan></text></g></svg><svg width="210" height="100" x="1015" y="295" fill="#fff" class="navigatum-data"><g data-cy="uml-component"><rect width="100%" height="100%" fill="#fff" stroke="#000" class="sc-iBkjds iopFig"/><text x="50%" y="25" dominant-baseline="auto" font-weight="bold" pointer-events="none" text-anchor="middle">navigatum-data</text><g><path fill="#fff" stroke="#000" stroke-miterlimit="10" stroke-width="1.2" d="M 4.8 0 L 24 0 L 24 24 L 4.8 24 L 4.8 19.2 L 0 19.2 L 0 14.4 L 4.8 14.4 L 4.8 9.6 L 0 9.6 L 0 4.8 L 4.8 4.8 Z" class="sc-jSMfEi bOarBj" transform="translate(179, 7)" style="transform:scale(1)"/><path fill="none" stroke="#000" stroke-miterlimit="10" stroke-width="1.2" d="M 4.8 4.8 L 9.6 4.8 L 9.6 9.6 L 4.8 9.6 M 4.8 14.4 L 9.6 14.4 L 9.6 19.2 L 4.8 19.2" class="sc-jSMfEi gYwSfK" transform="translate(179, 7)" style="transform:scale(1)"/></g></g></svg><svg width="160" height="40" x="1035" y="345" fill="#fff" class="Manual Fixes"><g><rect width="100%" height="100%" fill="#fff" stroke="#000" class="sc-iBkjds iopFig"/><text x="50%" y="28" dominant-baseline="auto" font-weight="bold" pointer-events="none" text-anchor="middle">Manual Fixes</text><g><path fill="#fff" stroke="#000" stroke-miterlimit="10" stroke-width="1.2" d="M 0 0 L 13 0 L 19.2 7.25 L 19.2 24 L 0 24 L 0 0 Z" class="sc-jSMfEi bOarBj" transform="translate(134, 7) scale(1)"/><path fill="none" stroke="#000" stroke-miterlimit="10" stroke-width="1.2" d="M 13 0 L 13 7.25 L 19.2 7.25" class="sc-jSMfEi gYwSfK" transform="translate(134, 7) scale(1)"/></g></g></svg><svg width="240" height="40" x="575" y="545" fill="#fff" class="navigatum-webclient"><g data-cy="uml-component"><rect width="100%" height="100%" fill="#fff" stroke="#000" class="sc-iBkjds iopFig"/><text x="50%" y="25" dominant-baseline="auto" font-weight="bold" pointer-events="none" text-anchor="middle">navigatum-webclient</text><g><path fill="#fff" stroke="#000" stroke-miterlimit="10" stroke-width="1.2" d="M 4.8 0 L 24 0 L 24 24 L 4.8 24 L 4.8 19.2 L 0 19.2 L 0 14.4 L 4.8 14.4 L 4.8 9.6 L 0 9.6 L 0 4.8 L 4.8 4.8 Z" class="sc-jSMfEi bOarBj" transform="translate(209, 7)" style="transform:scale(1)"/><path fill="none" stroke="#000" stroke-miterlimit="10" stroke-width="1.2" d="M 4.8 4.8 L 9.6 4.8 L 9.6 9.6 L 4.8 9.6 M 4.8 14.4 L 9.6 14.4 L 9.6 19.2 L 4.8 19.2" class="sc-jSMfEi gYwSfK" transform="translate(209, 7)" style="transform:scale(1)"/></g></g></svg><svg width="20" height="20" x="905" y="95" fill="#fff" class="search_data.json"><g><circle cx="10" cy="50%" r="10" fill="#fff" stroke="#000" stroke-width="2" class="sc-papXJ bdZYVS"/><text x="25" dominant-baseline="auto" font-weight="bold" pointer-events="none" text-anchor="start">search_data.json</text></g></svg><svg width="240" height="40" x="575" y="225" fill="#fff" class="navigatum-server"><g data-cy="uml-component"><rect width="100%" height="100%" fill="#fff" stroke="#000" class="sc-iBkjds iopFig"/><text x="50%" y="25" dominant-baseline="auto" font-weight="bold" pointer-events="none" text-anchor="middle">navigatum-server</text><g><path fill="#fff" stroke="#000" stroke-miterlimit="10" stroke-width="1.2" d="M 4.8 0 L 24 0 L 24 24 L 4.8 24 L 4.8 19.2 L 0 19.2 L 0 14.4 L 4.8 14.4 L 4.8 9.6 L 0 9.6 L 0 4.8 L 4.8 4.8 Z" class="sc-jSMfEi bOarBj" transform="translate(209, 7)" style="transform:scale(1)"/><path fill="none" stroke="#000" stroke-miterlimit="10" stroke-width="1.2" d="M 4.8 4.8 L 9.6 4.8 L 9.6 9.6 L 4.8 9.6 M 4.8 14.4 L 9.6 14.4 L 9.6 19.2 L 4.8 19.2" class="sc-jSMfEi gYwSfK" transform="translate(209, 7)" style="transform:scale(1)"/></g></g></svg><svg width="240" height="40" x="575" y="85" fill="#fff" class="MeiliSearch Instance"><g data-cy="uml-component"><rect width="100%" height="100%" fill="#fff" stroke="#000" class="sc-iBkjds iopFig"/><text x="50%" y="25" dominant-baseline="auto" font-weight="bold" pointer-events="none" text-anchor="middle">MeiliSearch Instance</text><g><path fill="#fff" stroke="#000" stroke-miterlimit="10" stroke-width="1.2" d="M 4.8 0 L 24 0 L 24 24 L 4.8 24 L 4.8 19.2 L 0 19.2 L 0 14.4 L 4.8 14.4 L 4.8 9.6 L 0 9.6 L 0 4.8 L 4.8 4.8 Z" class="sc-jSMfEi bOarBj" transform="translate(209, 7)" style="transform:scale(1)"/><path fill="none" stroke="#000" stroke-miterlimit="10" stroke-width="1.2" d="M 4.8 4.8 L 9.6 4.8 L 9.6 9.6 L 4.8 9.6 M 4.8 14.4 L 9.6 14.4 L 9.6 19.2 L 4.8 19.2" class="sc-jSMfEi gYwSfK" transform="translate(209, 7)" style="transform:scale(1)"/></g></g></svg><svg width="20" height="20" x="905" y="235" fill="#fff" class="api_data.json"><g><circle cx="10" cy="50%" r="10" fill="#fff" stroke="#000" stroke-width="2" class="sc-papXJ bdZYVS"/><text x="25" dominant-baseline="auto" font-weight="bold" pointer-events="none" text-anchor="start">api_data.json</text></g></svg><svg width="170" height="60" x="985" y="535" fill="#fff" class="rendertron"><g data-cy="uml-component"><rect width="100%" height="100%" fill="#fff" stroke="#000" class="sc-iBkjds iopFig"/><text x="50%" y="25" dominant-baseline="auto" font-weight="bold" pointer-events="none" text-anchor="middle">rendertron</text><g><path fill="#fff" stroke="#000" stroke-miterlimit="10" stroke-width="1.2" d="M 4.8 0 L 24 0 L 24 24 L 4.8 24 L 4.8 19.2 L 0 19.2 L 0 14.4 L 4.8 14.4 L 4.8 9.6 L 0 9.6 L 0 4.8 L 4.8 4.8 Z" class="sc-jSMfEi bOarBj" transform="translate(139, 7)" style="transform:scale(1)"/><path fill="none" stroke="#000" stroke-miterlimit="10" stroke-width="1.2" d="M 4.8 4.8 L 9.6 4.8 L 9.6 9.6 L 4.8 9.6 M 4.8 14.4 L 9.6 14.4 L 9.6 19.2 L 4.8 19.2" class="sc-jSMfEi gYwSfK" transform="translate(139, 7)" style="transform:scale(1)"/></g></g></svg><svg width="20" height="20" x="905" y="125" fill="#fff" class="search_synonyms.json"><g><circle cx="10" cy="50%" r="10" fill="#fff" stroke="#000" stroke-width="2" class="sc-papXJ bdZYVS"/><text x="25" dominant-baseline="auto" font-weight="bold" pointer-events="none" text-anchor="start">search_synonyms.json</text></g></svg><svg width="240" height="40" x="575" y="435" fill="#fff" class="Static Maps"><g data-cy="uml-component"><rect width="100%" height="100%" fill="#fff" stroke="#fd9644" class="sc-iBkjds dpfeJX"/><text x="50%" y="25" dominant-baseline="auto" font-weight="bold" pointer-events="none" text-anchor="middle" style="fill:#fd9644">Static Maps</text><g><path fill="#fff" stroke="#fd9644" stroke-miterlimit="10" stroke-width="1.2" d="M 4.8 0 L 24 0 L 24 24 L 4.8 24 L 4.8 19.2 L 0 19.2 L 0 14.4 L 4.8 14.4 L 4.8 9.6 L 0 9.6 L 0 4.8 L 4.8 4.8 Z" class="sc-jSMfEi jjEajA" transform="translate(209, 7)" style="transform:scale(1)"/><path fill="none" stroke="#fd9644" stroke-miterlimit="10" stroke-width="1.2" d="M 4.8 4.8 L 9.6 4.8 L 9.6 9.6 L 4.8 9.6 M 4.8 14.4 L 9.6 14.4 L 9.6 19.2 L 4.8 19.2" class="sc-jSMfEi kgJnth" transform="translate(209, 7)" style="transform:scale(1)"/></g></g></svg><svg width="20" height="20" x="905" y="485" fill="#fff" class="Sitemaps"><g><circle cx="10" cy="50%" r="10" fill="#fff" stroke="#000" stroke-width="2" class="sc-papXJ bdZYVS"/><text x="25" dominant-baseline="auto" font-weight="bold" pointer-events="none" text-anchor="start">Sitemaps</text></g></svg><svg width="260" height="80" x="1615" y="85" fill="#fff" class="mytum/&quot;Rakete&quot; Roomfinder"><g><g><path fill="#fff" stroke="#000" d="M 0 8 l 8 -8 H 260 l -8 8 Z" class="sc-jSMfEi bOarBj"/><path fill="#fff" stroke="#000" d="M 260 0 V 72 l -8 8 V 8 Z" class="sc-jSMfEi bOarBj"/><rect width="252" height="71" x="0" y="8" fill="#fff" stroke="#000" class="sc-iBkjds iopFig"/></g><text x="50%" y="30" dominant-baseline="middle" font-weight="bold" pointer-events="none" text-anchor="middle"><tspan x="50%" dy="-8" font-size="85%" text-anchor="middle">«public API»</tspan><tspan x="50%" dy="18" text-anchor="middle" text-decoration="underline">mytum/&quot;Rakete&quot; Roomfinder</tspan></text></g></svg><svg width="200" height="100" x="1655" y="245" fill="#fff" class="TUMonline"><g><g><path fill="#fff" stroke="#000" d="M 0 8 l 8 -8 H 200 l -8 8 Z" class="sc-jSMfEi bOarBj"/><path fill="#fff" stroke="#000" d="M 200 0 V 92 l -8 8 V 8 Z" class="sc-jSMfEi bOarBj"/><rect width="192" height="91" x="0" y="8" fill="#fff" stroke="#000" class="sc-iBkjds iopFig"/></g><text x="50%" y="30" dominant-baseline="middle" font-weight="bold" pointer-events="none" text-anchor="middle"><tspan x="50%" dy="-8" font-size="85%" text-anchor="middle">«public Website»</tspan><tspan x="50%" dy="18" text-anchor="middle" text-decoration="underline">TUMonline</tspan></text></g></svg><svg width="20" height="20" x="1435" y="115" fill="#fff" class="existing Rooms"><g><circle cx="10" cy="50%" r="10" fill="#fff" stroke="#000" stroke-width="2" class="sc-papXJ bdZYVS"/><text x="25" dominant-baseline="auto" font-weight="bold" pointer-events="none" text-anchor="start">existing Rooms</text></g></svg><svg width="20" height="20" x="1435" y="285" fill="#fff" class="Room-Details Website"><g><circle cx="10" cy="50%" r="10" fill="#fff" stroke="#000" stroke-width="2" class="sc-papXJ bdZYVS"/><text x="25" dominant-baseline="auto" font-weight="bold" pointer-events="none" text-anchor="start">Room-Details Website</text></g></svg><svg width="20" height="20" x="1435" y="35" fill="#fff" class="Building-maps"><g><circle cx="10" cy="50%" r="10" fill="#fff" stroke="#000" stroke-width="2" class="sc-papXJ bdZYVS"/><text x="25" dominant-baseline="auto" font-weight="bold" pointer-events="none" text-anchor="start">Building-maps</text></g></svg><svg width="20" height="20" x="1435" y="195" fill="#fff" class="existing Buildings"><g><circle cx="10" cy="50%" r="10" fill="#fff" stroke="#000" stroke-width="2" class="sc-papXJ bdZYVS"/><text x="25" dominant-baseline="auto" font-weight="bold" pointer-events="none" text-anchor="start">existing Buildings</text></g></svg><svg width="20" height="20" x="295" y="235" fill="#fff" class="API (/api/)"><g><circle cx="10" cy="50%" r="10" fill="#fff" stroke="#000" stroke-width="2" class="sc-papXJ bdZYVS"/><text x="25" dominant-baseline="auto" font-weight="bold" pointer-events="none" text-anchor="start">API (/api/)</text></g></svg><svg width="20" height="20" x="315" y="335" fill="#fff" class="Maps/Images/Data (/cdn/)"><g><circle cx="10" cy="50%" r="10" fill="#fff" stroke="#000" stroke-width="2" class="sc-papXJ bdZYVS"/><text x="25" dominant-baseline="auto" font-weight="bold" pointer-events="none" text-anchor="start">Maps/Images/Data (/cdn/)</text></g></svg><svg width="20" height="20" x="295" y="625" fill="#fff" class="Website (/)"><g><circle cx="10" cy="50%" r="10" fill="#fff" stroke="#000" stroke-width="2" class="sc-papXJ bdZYVS"/><text x="25" dominant-baseline="auto" font-weight="bold" pointer-events="none" text-anchor="start">Website (/)</text></g></svg><svg width="270" height="100" x="1625" y="425" fill="#fff" class="Physics Department Roomfinder"><g><g><path fill="#fff" stroke="#fd9644" d="M 0 8 l 8 -8 H 270 l -8 8 Z" class="sc-jSMfEi jjEajA"/><path fill="#fff" stroke="#fd9644" d="M 270 0 V 92 l -8 8 V 8 Z" class="sc-jSMfEi jjEajA"/><rect width="262" height="91" x="0" y="8" fill="#fff" stroke="#fd9644" class="sc-iBkjds dpfeJX"/></g><text x="50%" y="30" dominant-baseline="middle" font-weight="bold" pointer-events="none" text-anchor="middle" style="fill:#fd9644"><tspan x="50%" dy="-8" font-size="85%" text-anchor="middle">«public API»</tspan><tspan x="50%" dy="18" text-anchor="middle" text-decoration="underline">Physics Department Roomfinder</tspan></text></g></svg><svg width="20" height="20" x="1435" y="375" fill="#fff" class="extra Rooms"><g><circle cx="10" cy="50%" r="10" fill="#fff" stroke="#fd9644" stroke-width="2" class="sc-papXJ dMqOER"/><text x="25" dominant-baseline="auto" font-weight="bold" pointer-events="none" text-anchor="start" style="fill:#fd9644">extra Rooms</text></g></svg><svg width="20" height="20" x="1435" y="465" fill="#fff" class="extra Buildings"><g><circle cx="10" cy="50%" r="10" fill="#fff" stroke="#fd9644" stroke-width="2" class="sc-papXJ dMqOER"/><text x="25" dominant-baseline="auto" font-weight="bold" pointer-events="none" text-anchor="start" style="fill:#fd9644">extra Buildings</text></g></svg><svg width="20" height="20" x="1435" y="555" fill="#fff" class="extra Information"><g><circle cx="10" cy="50%" r="10" fill="#fff" stroke="#fd9644" stroke-width="2" class="sc-papXJ dMqOER"/><text x="25" dominant-baseline="auto" font-weight="bold" pointer-events="none" text-anchor="start" style="fill:#fd9644">extra Information</text></g></svg><svg width="200" height="100" x="15" y="355" fill="#fff" class="CampusApps"><g><g><path fill="#fff" stroke="#26de81" d="M 0 8 l 8 -8 H 200 l -8 8 Z" class="sc-jSMfEi eJGjZJ"/><path fill="#fff" stroke="#26de81" d="M 200 0 V 92 l -8 8 V 8 Z" class="sc-jSMfEi eJGjZJ"/><rect width="192" height="91" x="0" y="8" fill="#fff" stroke="#26de81" class="sc-iBkjds dqpomC"/></g><text x="50%" y="30" dominant-baseline="middle" font-weight="bold" pointer-events="none" text-anchor="middle"><tspan x="50%" dy="-8" font-size="85%" text-anchor="middle">«clients»</tspan><tspan x="50%" dy="18" text-anchor="middle" text-decoration="underline">CampusApps</tspan></text></g></svg><svg width="200" height="100" x="15" y="585" fill="#fff" class="Users"><g><g><path fill="#fff" stroke="#26de81" d="M 0 8 l 8 -8 H 200 l -8 8 Z" class="sc-jSMfEi eJGjZJ"/><path fill="#fff" stroke="#26de81" d="M 200 0 V 92 l -8 8 V 8 Z" class="sc-jSMfEi eJGjZJ"/><rect width="192" height="91" x="0" y="8" fill="#fff" stroke="#26de81" class="sc-iBkjds dqpomC"/></g><text x="50%" y="30" dominant-baseline="middle" font-weight="bold" pointer-events="none" text-anchor="middle"><tspan x="50%" dy="-8" font-size="85%" text-anchor="middle">«humans»</tspan><tspan x="50%" dy="18" text-anchor="middle" text-decoration="underline">Users</tspan></text></g></svg><svg width="20" height="20" x="295" y="745" fill="#fff" class="JS Execution engine (/rendertron/)"><g><circle cx="10" cy="50%" r="10" fill="#fff" stroke="#000" stroke-width="2" class="sc-papXJ bdZYVS"/><text x="25" dominant-baseline="auto" font-weight="bold" pointer-events="none" text-anchor="start">JS Execution engine (/rendertron/)</text></g></svg><svg width="200" height="100" x="15" y="705" fill="#fff" class="Twitterbot, ..."><g><g><path fill="#fff" stroke="#26de81" d="M 0 8 l 8 -8 H 200 l -8 8 Z" class="sc-jSMfEi eJGjZJ"/><path fill="#fff" stroke="#26de81" d="M 200 0 V 92 l -8 8 V 8 Z" class="sc-jSMfEi eJGjZJ"/><rect width="192" height="91" x="0" y="8" fill="#fff" stroke="#26de81" class="sc-iBkjds dqpomC"/></g><text x="50%" y="30" dominant-baseline="middle" font-weight="bold" pointer-events="none" text-anchor="middle"><tspan x="50%" dy="-8" font-size="85%" text-anchor="middle">«bots»</tspan><tspan x="50%" dy="18" text-anchor="middle" text-decoration="underline">Twitterbot, ...</tspan></text></g></svg><svg width="270" height="100" x="1625" y="675" fill="#fff" class="LMU Roomfinder"><g><g><path fill="#fff" stroke="#fd9644" d="M 0 8 l 8 -8 H 270 l -8 8 Z" class="sc-jSMfEi jjEajA"/><path fill="#fff" stroke="#fd9644" d="M 270 0 V 92 l -8 8 V 8 Z" class="sc-jSMfEi jjEajA"/><rect width="262" height="91" x="0" y="8" fill="#fff" stroke="#fd9644" class="sc-iBkjds dpfeJX"/></g><text x="50%" y="30" dominant-baseline="middle" font-weight="bold" pointer-events="none" text-anchor="middle" style="fill:#fd9644"><tspan x="50%" dy="-8" font-size="85%" text-anchor="middle">«public Data»</tspan><tspan x="50%" dy="18" text-anchor="middle" text-decoration="underline">LMU Roomfinder</tspan></text></g></svg><svg width="20" height="20" x="1435" y="625" fill="#fff" class="extra Rooms"><g><circle cx="10" cy="50%" r="10" fill="#fff" stroke="#fd9644" stroke-width="2" class="sc-papXJ dMqOER"/><text x="25" dominant-baseline="auto" font-weight="bold" pointer-events="none" text-anchor="start" style="fill:#fd9644">extra Rooms</text></g></svg><svg width="20" height="20" x="1435" y="715" fill="#fff" class="extra Buildings"><g><circle cx="10" cy="50%" r="10" fill="#fff" stroke="#fd9644" stroke-width="2" class="sc-papXJ dMqOER"/><text x="25" dominant-baseline="auto" font-weight="bold" pointer-events="none" text-anchor="start" style="fill:#fd9644">extra Buildings</text></g></svg><svg width="200" height="50" x="15" y="15" fill="#26de81" class="External"><g><path fill="#26de81" stroke="#000" stroke-miterlimit="10" stroke-width="1.2" d="M 0 0 L 185 0 L 200 15 L 200 50 L 0 50 L 0 0 Z" class="sc-jSMfEi dUWCkx"/><path fill="none" stroke="#000" stroke-miterlimit="10" stroke-width="1.2" d="M 185 0 L 185 15 L 200 15" class="sc-jSMfEi gxavQI"/><text width="200" height="50" x="100" y="25" font-weight="bold" pointer-events="none" text-anchor="middle"><tspan x="100" dy="5.5">External</tspan></text></g></svg><svg width="200" height="50" x="15" y="75" fill="#fd9644" class="Planned"><g><path fill="#fd9644" stroke="#000" stroke-miterlimit="10" stroke-width="1.2" d="M 0 0 L 185 0 L 200 15 L 200 50 L 0 50 L 0 0 Z" class="sc-jSMfEi jKmLts"/><path fill="none" stroke="#000" stroke-miterlimit="10" stroke-width="1.2" d="M 185 0 L 185 15 L 200 15" class="sc-jSMfEi gxavQI"/><text width="200" height="50" x="100" y="25" font-weight="bold" pointer-events="none" text-anchor="middle"><tspan x="100" dy="5.5">Planned</tspan></text></g></svg><svg width="20" height="20" x="335" y="445" fill="#fff" class="Static maps (/maps/)"><g><circle cx="10" cy="50%" r="10" fill="#fff" stroke="#fd9644" stroke-width="2" class="sc-papXJ dMqOER"/><text x="25" dominant-baseline="auto" font-weight="bold" pointer-events="none" text-anchor="start" style="fill:#fd9644">Static maps (/maps/)</text></g></svg><svg width="210" height="300" x="1225" y="45" fill="#fff"><g><polyline fill="none" stroke="#000" points="210 0 105 0 105 300 0 300" class="sc-eCYdqJ jAZyLs"/></g></svg><svg width="290" height="40" x="1455" y="45" fill="#fff"><g><polyline fill="none" stroke="#000" points="0 0 290 0 290 40" class="sc-eCYdqJ jAZyLs"/></g></svg><svg width="210" height="220" x="1225" y="125" fill="#fff"><g><polyline fill="none" stroke="#000" points="210 0 105 0 105 220 0 220" class="sc-eCYdqJ jAZyLs"/></g></svg><svg width="160" height="1" x="1455" y="125" fill="#fff"><g><polyline fill="none" stroke="#000" points="0 0 160 0" class="sc-eCYdqJ jAZyLs"/></g></svg><svg width="210" height="50" x="1225" y="295" fill="#fff"><g><polyline fill="none" stroke="#000" points="210 0 105 0 105 50 0 50" class="sc-eCYdqJ jAZyLs"/></g></svg><svg width="200" height="1" x="1455" y="295" fill="#fff"><g><polyline fill="none" stroke="#000" points="0 0 200 0" class="sc-eCYdqJ jAZyLs"/></g></svg><svg width="210" height="140" x="1225" y="205" fill="#fff"><g><polyline fill="none" stroke="#000" stroke-width="1" points="210 0 105 0 105 140 0 140" class="sc-eCYdqJ jAZyLs"/></g></svg><svg width="290" height="40" x="1455" y="165" fill="#fff"><g><polyline fill="none" stroke="#000" points="0 40 290 40 290 0" class="sc-eCYdqJ jAZyLs"/></g></svg><svg width="195" height="190" x="925" y="105" fill="#fff"><g><polyline fill="none" stroke="#000" points="195 190 195 0 0 0" class="sc-eCYdqJ jAZyLs"/></g></svg><svg width="90" height="1" x="815" y="105" fill="#fff"><g><marker id="marker-c1e1ca46-9243-4986-adf6-32dfa13c56df" markerHeight="30" markerUnits="strokeWidth" markerWidth="22" orient="auto" refX="30" refY="15" viewBox="0 0 30 30"><path fill="none" stroke="#000" d="M0,29 L30,15 L0,1" class="sc-jSMfEi gYwSfK"/></marker><polyline fill="none" stroke="#000" stroke-dasharray="7" stroke-width="1" marker-end="url(#marker-c1e1ca46-9243-4986-adf6-32dfa13c56df)" points="0 0 90 0" class="sc-eCYdqJ jAZyLs"/></g></svg><svg width="90" height="1" x="815" y="245" fill="#fff"><g><marker id="marker-7a4a03a7-0871-4c0c-aed4-e57a7fe0b04f" markerHeight="30" markerUnits="strokeWidth" markerWidth="22" orient="auto" refX="30" refY="15" viewBox="0 0 30 30"><path fill="none" stroke="#000" d="M0,29 L30,15 L0,1" class="sc-jSMfEi gYwSfK"/></marker><polyline fill="none" stroke="#000" stroke-dasharray="7" stroke-width="1" marker-end="url(#marker-7a4a03a7-0871-4c0c-aed4-e57a7fe0b04f)" points="0 0 90 0" class="sc-eCYdqJ jAZyLs"/></g></svg><svg width="263" height="223" x="312" y="342" fill="#fff"><g><marker id="marker-2bd21e8b-56d8-49be-bb13-b1e4dd63a01b" markerHeight="27" markerUnits="strokeWidth" markerWidth="27" orient="auto" refX="0" refY="0" viewBox="0 0 27 27"><path fill="none" stroke="#000" stroke-width="2" d="M 13 -13.5 a 13,13 0 0 0 0,27" class="sc-jSMfEi gxavQI"/></marker><polyline fill="none" stroke="#000" stroke-width="1" marker-end="url(#marker-2bd21e8b-56d8-49be-bb13-b1e4dd63a01b)" points="263 223 13 223 13 16" class="sc-eCYdqJ kfUCae"/></g></svg><svg width="260" height="1" x="315" y="245" fill="#fff"><g><polyline fill="none" stroke="#000" points="260 0 0 0" class="sc-eCYdqJ jAZyLs"/></g></svg><svg width="195" height="50" x="925" y="245" fill="#fff"><g><polyline fill="none" stroke="#000" points="0 0 195 0 195 50" class="sc-eCYdqJ jAZyLs"/></g></svg><svg width="283" height="323" x="292" y="242" fill="#fff"><g><marker id="marker-81a638be-0271-4ad6-a418-24af44f29c1d" markerHeight="27" markerUnits="strokeWidth" markerWidth="27" orient="auto" refX="0" refY="0" viewBox="0 0 27 27"><path fill="none" stroke="#000" stroke-width="2" d="M 13 -13.5 a 13,13 0 0 0 0,27" class="sc-jSMfEi gxavQI"/></marker><polyline fill="none" stroke="#000" stroke-width="1" marker-end="url(#marker-81a638be-0271-4ad6-a418-24af44f29c1d)" points="283 323 13 323 13 16" class="sc-eCYdqJ kfUCae"/></g></svg><svg width="680" height="1" x="335" y="345" fill="#fff"><g><polyline fill="none" stroke="#000" points="0 0 680 0" class="sc-eCYdqJ jAZyLs"/></g></svg><svg width="380" height="50" x="315" y="585" fill="#fff"><g><polyline fill="none" stroke="#000" points="0 50 380 50 380 0" class="sc-eCYdqJ jAZyLs"/></g></svg><svg width="305" height="40" x="1455" y="385" fill="#fff"><g><polyline fill="none" stroke="#fd9644" points="305 40 305 0 0 0" class="sc-eCYdqJ fFelrP"/></g></svg><svg width="170" height="1" x="1455" y="475" fill="#fff"><g><polyline fill="none" stroke="#fd9644" points="170 0 0 0" class="sc-eCYdqJ fFelrP"/></g></svg><svg width="305" height="40" x="1455" y="525" fill="#fff"><g><polyline fill="none" stroke="#fd9644" points="305 0 305 40 0 40" class="sc-eCYdqJ fFelrP"/></g></svg><svg width="204" height="160" x="115" y="195" fill="#fff"><g><marker id="marker-ef877731-d06a-432f-ac62-b96c0f3611ef" markerHeight="27" markerUnits="strokeWidth" markerWidth="27" orient="auto" refX="0" refY="0" viewBox="0 0 27 27"><path fill="none" stroke="#26de81" stroke-width="2" d="M 13 -13.5 a 13,13 0 0 0 0,27" class="sc-jSMfEi dqBKlw"/></marker><polyline fill="none" stroke="#26de81" stroke-width="1" marker-end="url(#marker-ef877731-d06a-432f-ac62-b96c0f3611ef)" points="0 160 0 0 190 0 190 37" class="sc-eCYdqJ fGouUu"/></g></svg><svg width="224" height="60" x="115" y="295" fill="#fff"><g><marker id="marker-7bae1f5d-d16e-469d-a071-90c745f726c7" markerHeight="27" markerUnits="strokeWidth" markerWidth="27" orient="auto" refX="0" refY="0" viewBox="0 0 27 27"><path fill="none" stroke="#26de81" stroke-width="2" d="M 13 -13.5 a 13,13 0 0 0 0,27" class="sc-jSMfEi dqBKlw"/></marker><polyline fill="none" stroke="#26de81" stroke-width="1" marker-end="url(#marker-7bae1f5d-d16e-469d-a071-90c745f726c7)" points="0 60 0 0 210 0 210 37" class="sc-eCYdqJ fGouUu"/></g></svg><svg width="94" height="27" x="215" y="622" fill="#fff"><g><marker id="marker-3ab6e852-8b41-4c34-a37a-39adb977775e" markerHeight="27" markerUnits="strokeWidth" markerWidth="27" orient="auto" refX="0" refY="0" viewBox="0 0 27 27"><path fill="none" stroke="#26de81" stroke-width="2" d="M 13 -13.5 a 13,13 0 0 0 0,27" class="sc-jSMfEi dqBKlw"/></marker><polyline fill="none" stroke="#26de81" stroke-width="1" marker-end="url(#marker-3ab6e852-8b41-4c34-a37a-39adb977775e)" points="0 13 77 13" class="sc-eCYdqJ fGouUu"/></g></svg><svg width="755" height="160" x="315" y="595" fill="#fff"><g><polyline fill="none" stroke="#000" points="755 0 755 160 0 160" class="sc-eCYdqJ jAZyLs"/></g></svg><svg width="94" height="27" x="215" y="742" fill="#fff"><g><marker id="marker-9f69d649-e1d5-4a58-9aef-e99073deb7aa" markerHeight="27" markerUnits="strokeWidth" markerWidth="27" orient="auto" refX="0" refY="0" viewBox="0 0 27 27"><path fill="none" stroke="#26de81" stroke-width="2" d="M 13 -13.5 a 13,13 0 0 0 0,27" class="sc-jSMfEi dqBKlw"/></marker><polyline fill="none" stroke="#26de81" stroke-width="1" marker-end="url(#marker-9f69d649-e1d5-4a58-9aef-e99073deb7aa)" points="0 13 77 13" class="sc-eCYdqJ fGouUu"/></g></svg><svg width="195" height="160" x="925" y="135" fill="#fff"><g><polyline fill="none" stroke="#000" points="0 0 195 0 195 160" class="sc-eCYdqJ jAZyLs"/></g></svg><svg width="90" height="30" x="815" y="105" fill="#fff"><g><marker id="marker-2d70033b-c3d7-47dc-982a-1e92b59c0636" markerHeight="30" markerUnits="strokeWidth" markerWidth="22" orient="auto" refX="30" refY="15" viewBox="0 0 30 30"><path fill="none" stroke="#000" d="M0,29 L30,15 L0,1" class="sc-jSMfEi gYwSfK"/></marker><polyline fill="none" stroke="#000" stroke-dasharray="7" stroke-width="1" marker-end="url(#marker-2d70033b-c3d7-47dc-982a-1e92b59c0636)" points="0 0 45 0 45 30 90 30" class="sc-eCYdqJ jAZyLs"/></g></svg><svg width="170" height="1" x="1455" y="725" fill="#fff"><g><polyline fill="none" stroke="#fd9644" points="0 0 170 0" class="sc-eCYdqJ fFelrP"/></g></svg><svg width="305" height="40" x="1455" y="635" fill="#fff"><g><polyline fill="none" stroke="#fd9644" points="0 0 305 0 305 40" class="sc-eCYdqJ fFelrP"/></g></svg><svg width="170" height="1" x="815" y="565" fill="#fff"><g><marker id="marker-7ea4aaee-348e-4acd-a4fa-94fcf17c7fe1" markerHeight="30" markerUnits="strokeWidth" markerWidth="22" orient="auto" refX="30" refY="15" viewBox="0 0 30 30"><path fill="none" stroke="#000" d="M0,29 L30,15 L0,1" class="sc-jSMfEi gYwSfK"/></marker><polyline fill="none" stroke="#000" stroke-dasharray="7" stroke-width="1" marker-end="url(#marker-7ea4aaee-348e-4acd-a4fa-94fcf17c7fe1)" points="170 0 0 0" class="sc-eCYdqJ jAZyLs"/></g></svg><svg width="220" height="1" x="355" y="455" fill="#fff"><g><polyline fill="none" stroke="#fd9644" points="0 0 220 0" class="sc-eCYdqJ fFelrP"/></g></svg><svg width="243" height="113" x="332" y="452" fill="#fff"><g><marker id="marker-fd941e0d-2c02-4fc2-94f8-599b0af36a37" markerHeight="27" markerUnits="strokeWidth" markerWidth="27" orient="auto" refX="0" refY="0" viewBox="0 0 27 27"><path fill="none" stroke="#fd9644" stroke-width="2" d="M 13 -13.5 a 13,13 0 0 0 0,27" class="sc-jSMfEi kgJnth"/></marker><polyline fill="none" stroke="#fd9644" stroke-width="1" marker-end="url(#marker-fd941e0d-2c02-4fc2-94f8-599b0af36a37)" points="243 113 13 113 13 16" class="sc-eCYdqJ fFelrP"/></g></svg><svg width="144" height="54" x="215" y="405" fill="#fff"><g><marker id="marker-cae9c682-a124-4a62-8522-b19c3634cf5a" markerHeight="27" markerUnits="strokeWidth" markerWidth="27" orient="auto" refX="0" refY="0" viewBox="0 0 27 27"><path fill="none" stroke="#fd9644" stroke-width="2" d="M 13 -13.5 a 13,13 0 0 0 0,27" class="sc-jSMfEi kgJnth"/></marker><polyline fill="none" stroke="#fd9644" stroke-width="1" marker-end="url(#marker-cae9c682-a124-4a62-8522-b19c3634cf5a)" points="0 0 130 0 130 37" class="sc-eCYdqJ fFelrP"/></g></svg><svg width="195" height="100" x="925" y="395" fill="#fff"><g><polyline fill="none" stroke="#000" points="0 100 195 100 195 0" class="sc-eCYdqJ jAZyLs"/></g></svg><svg width="224" height="63" x="695" y="482" fill="#fff"><g><marker id="marker-f84dd657-aafb-4ee6-b355-aea9a69c752c" markerHeight="27" markerUnits="strokeWidth" markerWidth="27" orient="auto" refX="0" refY="0" viewBox="0 0 27 27"><path fill="none" stroke="#000" stroke-width="2" d="M 13 -13.5 a 13,13 0 0 0 0,27" class="sc-jSMfEi gYwSfK"/></marker><polyline fill="none" stroke="#000" stroke-width="1" marker-end="url(#marker-f84dd657-aafb-4ee6-b355-aea9a69c752c)" points="0 63 0 13 207 13" class="sc-eCYdqJ jAZyLs"/></g></svg><svg width="1" height="100" x="695" y="125" fill="#fff"><g><marker id="marker-872cfc99-8c9b-4b1d-861b-cbf4b47eb4bb" markerHeight="30" markerUnits="strokeWidth" markerWidth="22" orient="auto" refX="30" refY="15" viewBox="0 0 30 30"><path fill="none" stroke="#000" d="M0,29 L30,15 L0,1" class="sc-jSMfEi gYwSfK"/></marker><polyline fill="none" stroke="#000" stroke-dasharray="7" stroke-width="1" marker-end="url(#marker-872cfc99-8c9b-4b1d-861b-cbf4b47eb4bb)" points="0 100 0 0" class="sc-eCYdqJ jAZyLs"/></g></svg></svg>
