<svg width="1911" height="851" xmlns="http://www.w3.org/2000/svg" xmlns:xlink="http://www.w3.org/1999/xlink" fill="#ffffff"><defs><style>
  text {
    fill: #212529;
    font-family: Helvetica Neue, Helvetica, Arial, sans-serif;
    font-size: 16px;
  }

  marker, text {
    fill-opacity: 1;
  }

  * {
    overflow: visible;
  }
</style></defs><svg x="535" y="45" width="730" height="600" class="NavigaTUM" fill="#ffffff"><g><g><path d="M 0 8 l 8 -8 H 730 l -8 8 Z" stroke="black" fill="white" class="sc-jSMfEi bOarBj"></path><path d="M 730 0 V 592 l -8 8 V 8 Z" stroke="black" fill="white" class="sc-jSMfEi bOarBj"></path><rect x="0" y="8" width="722" height="591" stroke="black" fill="white" class="sc-iBkjds iopFig"></rect></g><text x="50%" y="30" dominant-baseline="middle" text-anchor="middle" font-weight="bold" pointer-events="none"><tspan x="50%" dy="-8" text-anchor="middle" font-size="85%">«server»</tspan><tspan x="50%" dy="18" text-decoration="underline" text-anchor="middle">NavigaTUM</tspan></text></g></svg><svg x="1015" y="325" width="210" height="100" class="navigatum-data" fill="#ffffff"><g data-cy="uml-component"><rect width="100%" height="100%" stroke="black" fill="white" class="sc-iBkjds iopFig"></rect><text x="50%" y="25px" dominant-baseline="auto" text-anchor="middle" font-weight="bold" pointer-events="none">navigatum-data</text><g transform="translate(179, 7)"><path d="M 4.8 0 L 24 0 L 24 24 L 4.8 24 L 4.8 19.2 L 0 19.2 L 0 14.4 L 4.8 14.4 L 4.8 9.6 L 0 9.6 L 0 4.8 L 4.8 4.8 Z" stroke-width="1.2" stroke-miterlimit="10" stroke="black" fill="white" class="sc-jSMfEi bOarBj" style="transform: scale(1);"></path><path d="M 4.8 4.8 L 9.6 4.8 L 9.6 9.6 L 4.8 9.6 M 4.8 14.4 L 9.6 14.4 L 9.6 19.2 L 4.8 19.2" stroke-width="1.2" stroke-miterlimit="10" stroke="black" fill="none" class="sc-jSMfEi gYwSfK" style="transform: scale(1);"></path></g></g></svg><svg x="1035" y="375" width="160" height="40" class="Manual Fixes" fill="#ffffff"><g><rect width="100%" height="100%" stroke="black" fill="white" class="sc-iBkjds iopFig"></rect><text x="50%" y="28" dominant-baseline="auto" text-anchor="middle" font-weight="bold" pointer-events="none">Manual Fixes</text><g transform="translate(134, 7) scale(1)"><path d="M 0 0 L 13 0 L 19.2 7.25 L 19.2 24 L 0 24 L 0 0 Z" stroke-width="1.2" stroke-miterlimit="10" stroke="black" fill="white" class="sc-jSMfEi bOarBj"></path><path d="M 13 0 L 13 7.25 L 19.2 7.25" stroke-width="1.2" stroke-miterlimit="10" stroke="black" fill="none" class="sc-jSMfEi gYwSfK"></path></g></g></svg><svg x="575" y="575" width="240" height="40" class="navigatum-webclient" fill="#ffffff"><g data-cy="uml-component"><rect width="100%" height="100%" stroke="black" fill="white" class="sc-iBkjds iopFig"></rect><text x="50%" y="25px" dominant-baseline="auto" text-anchor="middle" font-weight="bold" pointer-events="none">navigatum-webclient</text><g transform="translate(209, 7)"><path d="M 4.8 0 L 24 0 L 24 24 L 4.8 24 L 4.8 19.2 L 0 19.2 L 0 14.4 L 4.8 14.4 L 4.8 9.6 L 0 9.6 L 0 4.8 L 4.8 4.8 Z" stroke-width="1.2" stroke-miterlimit="10" stroke="black" fill="white" class="sc-jSMfEi bOarBj" style="transform: scale(1);"></path><path d="M 4.8 4.8 L 9.6 4.8 L 9.6 9.6 L 4.8 9.6 M 4.8 14.4 L 9.6 14.4 L 9.6 19.2 L 4.8 19.2" stroke-width="1.2" stroke-miterlimit="10" stroke="black" fill="none" class="sc-jSMfEi gYwSfK" style="transform: scale(1);"></path></g></g></svg><svg x="905" y="175" width="20" height="20" class="search_data.json" fill="#ffffff"><g><circle cx="50%" cy="50%" r="10" stroke-width="2" stroke="black" fill="white" class="sc-papXJ bdZYVS"></circle><text x="25px" dominant-baseline="auto" text-anchor="start" font-weight="bold" pointer-events="none">search_data.json</text></g></svg><svg x="575" y="265" width="240" height="40" class="server" fill="#ffffff"><g data-cy="uml-component"><rect width="100%" height="100%" stroke="black" fill="white" class="sc-iBkjds iopFig"></rect><text x="50%" y="25px" dominant-baseline="auto" text-anchor="middle" font-weight="bold" pointer-events="none">server</text><g transform="translate(209, 7)"><path d="M 4.8 0 L 24 0 L 24 24 L 4.8 24 L 4.8 19.2 L 0 19.2 L 0 14.4 L 4.8 14.4 L 4.8 9.6 L 0 9.6 L 0 4.8 L 4.8 4.8 Z" stroke-width="1.2" stroke-miterlimit="10" stroke="black" fill="white" class="sc-jSMfEi bOarBj" style="transform: scale(1);"></path><path d="M 4.8 4.8 L 9.6 4.8 L 9.6 9.6 L 4.8 9.6 M 4.8 14.4 L 9.6 14.4 L 9.6 19.2 L 4.8 19.2" stroke-width="1.2" stroke-miterlimit="10" stroke="black" fill="none" class="sc-jSMfEi gYwSfK" style="transform: scale(1);"></path></g></g></svg><svg x="575" y="165" width="240" height="40" class="MeiliSearch Instance" fill="#ffffff"><g data-cy="uml-component"><rect width="100%" height="100%" stroke="black" fill="white" class="sc-iBkjds iopFig"></rect><text x="50%" y="25px" dominant-baseline="auto" text-anchor="middle" font-weight="bold" pointer-events="none">MeiliSearch Instance</text><g transform="translate(209, 7)"><path d="M 4.8 0 L 24 0 L 24 24 L 4.8 24 L 4.8 19.2 L 0 19.2 L 0 14.4 L 4.8 14.4 L 4.8 9.6 L 0 9.6 L 0 4.8 L 4.8 4.8 Z" stroke-width="1.2" stroke-miterlimit="10" stroke="black" fill="white" class="sc-jSMfEi bOarBj" style="transform: scale(1);"></path><path d="M 4.8 4.8 L 9.6 4.8 L 9.6 9.6 L 4.8 9.6 M 4.8 14.4 L 9.6 14.4 L 9.6 19.2 L 4.8 19.2" stroke-width="1.2" stroke-miterlimit="10" stroke="black" fill="none" class="sc-jSMfEi gYwSfK" style="transform: scale(1);"></path></g></g></svg><svg x="905" y="275" width="20" height="20" class="api_data.json" fill="#ffffff"><g><circle cx="50%" cy="50%" r="10" stroke-width="2" stroke="black" fill="white" class="sc-papXJ bdZYVS"></circle><text x="25px" dominant-baseline="auto" text-anchor="start" font-weight="bold" pointer-events="none">api_data.json</text></g></svg><svg x="985" y="565" width="170" height="60" class="rendertron" fill="#ffffff"><g data-cy="uml-component"><rect width="100%" height="100%" stroke="black" fill="white" class="sc-iBkjds iopFig"></rect><text x="50%" y="25px" dominant-baseline="auto" text-anchor="middle" font-weight="bold" pointer-events="none">rendertron</text><g transform="translate(139, 7)"><path d="M 4.8 0 L 24 0 L 24 24 L 4.8 24 L 4.8 19.2 L 0 19.2 L 0 14.4 L 4.8 14.4 L 4.8 9.6 L 0 9.6 L 0 4.8 L 4.8 4.8 Z" stroke-width="1.2" stroke-miterlimit="10" stroke="black" fill="white" class="sc-jSMfEi bOarBj" style="transform: scale(1);"></path><path d="M 4.8 4.8 L 9.6 4.8 L 9.6 9.6 L 4.8 9.6 M 4.8 14.4 L 9.6 14.4 L 9.6 19.2 L 4.8 19.2" stroke-width="1.2" stroke-miterlimit="10" stroke="black" fill="none" class="sc-jSMfEi gYwSfK" style="transform: scale(1);"></path></g></g></svg><svg x="905" y="205" width="20" height="20" class="search_synonyms.json" fill="#ffffff"><g><circle cx="50%" cy="50%" r="10" stroke-width="2" stroke="black" fill="white" class="sc-papXJ bdZYVS"></circle><text x="25px" dominant-baseline="auto" text-anchor="start" font-weight="bold" pointer-events="none">search_synonyms.json</text></g></svg><svg x="575" y="465" width="240" height="40" class="Static Maps" fill="#ffffff"><g data-cy="uml-component"><rect width="100%" height="100%" stroke="black" fill="white" class="sc-iBkjds hFmTNi"></rect><text x="50%" y="25px" dominant-baseline="auto" text-anchor="middle" font-weight="bold" pointer-events="none" style="fill: black;">Static Maps</text><g transform="translate(209, 7)"><path d="M 4.8 0 L 24 0 L 24 24 L 4.8 24 L 4.8 19.2 L 0 19.2 L 0 14.4 L 4.8 14.4 L 4.8 9.6 L 0 9.6 L 0 4.8 L 4.8 4.8 Z" stroke-width="1.2" stroke-miterlimit="10" stroke="black" fill="white" class="sc-jSMfEi fDFhdB" style="transform: scale(1);"></path><path d="M 4.8 4.8 L 9.6 4.8 L 9.6 9.6 L 4.8 9.6 M 4.8 14.4 L 9.6 14.4 L 9.6 19.2 L 4.8 19.2" stroke-width="1.2" stroke-miterlimit="10" stroke="black" fill="none" class="sc-jSMfEi gxavQI" style="transform: scale(1);"></path></g></g></svg><svg x="905" y="515" width="20" height="20" class="Sitemaps" fill="#ffffff"><g><circle cx="50%" cy="50%" r="10" stroke-width="2" stroke="black" fill="white" class="sc-papXJ bdZYVS"></circle><text x="25px" dominant-baseline="auto" text-anchor="start" font-weight="bold" pointer-events="none">Sitemaps</text></g></svg><svg x="575" y="105" width="240" height="40" class="feedback" fill="#ffffff"><g data-cy="uml-component"><rect width="100%" height="100%" stroke="black" fill="white" class="sc-iBkjds iopFig"></rect><text x="50%" y="25px" dominant-baseline="auto" text-anchor="middle" font-weight="bold" pointer-events="none">feedback</text><g transform="translate(209, 7)"><path d="M 4.8 0 L 24 0 L 24 24 L 4.8 24 L 4.8 19.2 L 0 19.2 L 0 14.4 L 4.8 14.4 L 4.8 9.6 L 0 9.6 L 0 4.8 L 4.8 4.8 Z" stroke-width="1.2" stroke-miterlimit="10" stroke="black" fill="white" class="sc-jSMfEi bOarBj" style="transform: scale(1);"></path><path d="M 4.8 4.8 L 9.6 4.8 L 9.6 9.6 L 4.8 9.6 M 4.8 14.4 L 9.6 14.4 L 9.6 19.2 L 4.8 19.2" stroke-width="1.2" stroke-miterlimit="10" stroke="black" fill="none" class="sc-jSMfEi gYwSfK" style="transform: scale(1);"></path></g></g></svg><svg x="1615" y="115" width="260" height="80" class="mytum/&quot;Rakete&quot; Roomfinder" fill="#ffffff"><g><g><path d="M 0 8 l 8 -8 H 260 l -8 8 Z" stroke="black" fill="white" class="sc-jSMfEi bOarBj"></path><path d="M 260 0 V 72 l -8 8 V 8 Z" stroke="black" fill="white" class="sc-jSMfEi bOarBj"></path><rect x="0" y="8" width="252" height="71" stroke="black" fill="white" class="sc-iBkjds iopFig"></rect></g><text x="50%" y="30" dominant-baseline="middle" text-anchor="middle" font-weight="bold" pointer-events="none"><tspan x="50%" dy="-8" text-anchor="middle" font-size="85%">«public API»</tspan><tspan x="50%" dy="18" text-decoration="underline" text-anchor="middle">mytum/"Rakete" Roomfinder</tspan></text></g></svg><svg x="1655" y="275" width="200" height="100" class="TUMonline" fill="#ffffff"><g><g><path d="M 0 8 l 8 -8 H 200 l -8 8 Z" stroke="black" fill="white" class="sc-jSMfEi bOarBj"></path><path d="M 200 0 V 92 l -8 8 V 8 Z" stroke="black" fill="white" class="sc-jSMfEi bOarBj"></path><rect x="0" y="8" width="192" height="91" stroke="black" fill="white" class="sc-iBkjds iopFig"></rect></g><text x="50%" y="30" dominant-baseline="middle" text-anchor="middle" font-weight="bold" pointer-events="none"><tspan x="50%" dy="-8" text-anchor="middle" font-size="85%">«public Website»</tspan><tspan x="50%" dy="18" text-decoration="underline" text-anchor="middle">TUMonline</tspan></text></g></svg><svg x="1435" y="145" width="20" height="20" class="existing Rooms" fill="#ffffff"><g><circle cx="50%" cy="50%" r="10" stroke-width="2" stroke="black" fill="white" class="sc-papXJ bdZYVS"></circle><text x="25px" dominant-baseline="auto" text-anchor="start" font-weight="bold" pointer-events="none">existing Rooms</text></g></svg><svg x="1435" y="315" width="20" height="20" class="Room-Details Website" fill="#ffffff"><g><circle cx="50%" cy="50%" r="10" stroke-width="2" stroke="black" fill="white" class="sc-papXJ bdZYVS"></circle><text x="25px" dominant-baseline="auto" text-anchor="start" font-weight="bold" pointer-events="none">Room-Details Website</text></g></svg><svg x="1435" y="65" width="20" height="20" class="Building-maps" fill="#ffffff"><g><circle cx="50%" cy="50%" r="10" stroke-width="2" stroke="black" fill="white" class="sc-papXJ bdZYVS"></circle><text x="25px" dominant-baseline="auto" text-anchor="start" font-weight="bold" pointer-events="none">Building-maps</text></g></svg><svg x="1435" y="225" width="20" height="20" class="existing Buildings" fill="#ffffff"><g><circle cx="50%" cy="50%" r="10" stroke-width="2" stroke="black" fill="white" class="sc-papXJ bdZYVS"></circle><text x="25px" dominant-baseline="auto" text-anchor="start" font-weight="bold" pointer-events="none">existing Buildings</text></g></svg><svg x="295" y="275" width="20" height="20" class="API (/api/)" fill="#ffffff"><g><circle cx="50%" cy="50%" r="10" stroke-width="2" stroke="black" fill="white" class="sc-papXJ bdZYVS"></circle><text x="25px" dominant-baseline="auto" text-anchor="start" font-weight="bold" pointer-events="none">API (/api/)</text></g></svg><svg x="315" y="365" width="20" height="20" class="Maps/Images/Data (/cdn/)" fill="#ffffff"><g><circle cx="50%" cy="50%" r="10" stroke-width="2" stroke="black" fill="white" class="sc-papXJ bdZYVS"></circle><text x="25px" dominant-baseline="auto" text-anchor="start" font-weight="bold" pointer-events="none">Maps/Images/Data (/cdn/)</text></g></svg><svg x="295" y="655" width="20" height="20" class="Website (/)" fill="#ffffff"><g><circle cx="50%" cy="50%" r="10" stroke-width="2" stroke="black" fill="white" class="sc-papXJ bdZYVS"></circle><text x="25px" dominant-baseline="auto" text-anchor="start" font-weight="bold" pointer-events="none">Website (/)</text></g></svg><svg x="1625" y="455" width="270" height="100" class="Physics Department Roomfinder" fill="#ffffff"><g><g><path d="M 0 8 l 8 -8 H 270 l -8 8 Z" stroke="#fd9644" fill="white" class="sc-jSMfEi jjEajA"></path><path d="M 270 0 V 92 l -8 8 V 8 Z" stroke="#fd9644" fill="white" class="sc-jSMfEi jjEajA"></path><rect x="0" y="8" width="262" height="91" stroke="#fd9644" fill="white" class="sc-iBkjds dpfeJX"></rect></g><text x="50%" y="30" dominant-baseline="middle" text-anchor="middle" font-weight="bold" pointer-events="none" style="fill: rgb(253, 150, 68);"><tspan x="50%" dy="-8" text-anchor="middle" font-size="85%">«public API»</tspan><tspan x="50%" dy="18" text-decoration="underline" text-anchor="middle">Physics Department Roomfinder</tspan></text></g></svg><svg x="1435" y="405" width="20" height="20" class="extra Rooms" fill="#ffffff"><g><circle cx="50%" cy="50%" r="10" stroke-width="2" stroke="#fd9644" fill="white" class="sc-papXJ dMqOER"></circle><text x="25px" dominant-baseline="auto" text-anchor="start" font-weight="bold" pointer-events="none" style="fill: rgb(253, 150, 68);">extra Rooms</text></g></svg><svg x="1435" y="495" width="20" height="20" class="extra Buildings" fill="#ffffff"><g><circle cx="50%" cy="50%" r="10" stroke-width="2" stroke="#fd9644" fill="white" class="sc-papXJ dMqOER"></circle><text x="25px" dominant-baseline="auto" text-anchor="start" font-weight="bold" pointer-events="none" style="fill: rgb(253, 150, 68);">extra Buildings</text></g></svg><svg x="1435" y="585" width="20" height="20" class="extra Information" fill="#ffffff"><g><circle cx="50%" cy="50%" r="10" stroke-width="2" stroke="#fd9644" fill="white" class="sc-papXJ dMqOER"></circle><text x="25px" dominant-baseline="auto" text-anchor="start" font-weight="bold" pointer-events="none" style="fill: rgb(253, 150, 68);">extra Information</text></g></svg><svg x="15" y="385" width="200" height="100" class="CampusApps" fill="#ffffff"><g><g><path d="M 0 8 l 8 -8 H 200 l -8 8 Z" stroke="#26de81" fill="white" class="sc-jSMfEi eJGjZJ"></path><path d="M 200 0 V 92 l -8 8 V 8 Z" stroke="#26de81" fill="white" class="sc-jSMfEi eJGjZJ"></path><rect x="0" y="8" width="192" height="91" stroke="#26de81" fill="white" class="sc-iBkjds dqpomC"></rect></g><text x="50%" y="30" dominant-baseline="middle" text-anchor="middle" font-weight="bold" pointer-events="none"><tspan x="50%" dy="-8" text-anchor="middle" font-size="85%">«clients»</tspan><tspan x="50%" dy="18" text-decoration="underline" text-anchor="middle">CampusApps</tspan></text></g></svg><svg x="15" y="615" width="200" height="100" class="Users" fill="#ffffff"><g><g><path d="M 0 8 l 8 -8 H 200 l -8 8 Z" stroke="#26de81" fill="white" class="sc-jSMfEi eJGjZJ"></path><path d="M 200 0 V 92 l -8 8 V 8 Z" stroke="#26de81" fill="white" class="sc-jSMfEi eJGjZJ"></path><rect x="0" y="8" width="192" height="91" stroke="#26de81" fill="white" class="sc-iBkjds dqpomC"></rect></g><text x="50%" y="30" dominant-baseline="middle" text-anchor="middle" font-weight="bold" pointer-events="none"><tspan x="50%" dy="-8" text-anchor="middle" font-size="85%">«humans»</tspan><tspan x="50%" dy="18" text-decoration="underline" text-anchor="middle">Users</tspan></text></g></svg><svg x="295" y="775" width="20" height="20" class="JS Execution engine (/rendertron/)" fill="#ffffff"><g><circle cx="50%" cy="50%" r="10" stroke-width="2" stroke="black" fill="white" class="sc-papXJ bdZYVS"></circle><text x="25px" dominant-baseline="auto" text-anchor="start" font-weight="bold" pointer-events="none">JS Execution engine (/rendertron/)</text></g></svg><svg x="15" y="735" width="200" height="100" class="Twitterbot, ..." fill="#ffffff"><g><g><path d="M 0 8 l 8 -8 H 200 l -8 8 Z" stroke="#26de81" fill="white" class="sc-jSMfEi eJGjZJ"></path><path d="M 200 0 V 92 l -8 8 V 8 Z" stroke="#26de81" fill="white" class="sc-jSMfEi eJGjZJ"></path><rect x="0" y="8" width="192" height="91" stroke="#26de81" fill="white" class="sc-iBkjds dqpomC"></rect></g><text x="50%" y="30" dominant-baseline="middle" text-anchor="middle" font-weight="bold" pointer-events="none"><tspan x="50%" dy="-8" text-anchor="middle" font-size="85%">«bots»</tspan><tspan x="50%" dy="18" text-decoration="underline" text-anchor="middle">Twitterbot, ...</tspan></text></g></svg><svg x="1625" y="705" width="270" height="100" class="LMU Roomfinder" fill="#ffffff"><g><g><path d="M 0 8 l 8 -8 H 270 l -8 8 Z" stroke="#fd9644" fill="white" class="sc-jSMfEi jjEajA"></path><path d="M 270 0 V 92 l -8 8 V 8 Z" stroke="#fd9644" fill="white" class="sc-jSMfEi jjEajA"></path><rect x="0" y="8" width="262" height="91" stroke="#fd9644" fill="white" class="sc-iBkjds dpfeJX"></rect></g><text x="50%" y="30" dominant-baseline="middle" text-anchor="middle" font-weight="bold" pointer-events="none" style="fill: rgb(253, 150, 68);"><tspan x="50%" dy="-8" text-anchor="middle" font-size="85%">«public Data»</tspan><tspan x="50%" dy="18" text-decoration="underline" text-anchor="middle">LMU Roomfinder</tspan></text></g></svg><svg x="1435" y="655" width="20" height="20" class="extra Rooms" fill="#ffffff"><g><circle cx="50%" cy="50%" r="10" stroke-width="2" stroke="#fd9644" fill="white" class="sc-papXJ dMqOER"></circle><text x="25px" dominant-baseline="auto" text-anchor="start" font-weight="bold" pointer-events="none" style="fill: rgb(253, 150, 68);">extra Rooms</text></g></svg><svg x="1435" y="745" width="20" height="20" class="extra Buildings" fill="#ffffff"><g><circle cx="50%" cy="50%" r="10" stroke-width="2" stroke="#fd9644" fill="white" class="sc-papXJ dMqOER"></circle><text x="25px" dominant-baseline="auto" text-anchor="start" font-weight="bold" pointer-events="none" style="fill: rgb(253, 150, 68);">extra Buildings</text></g></svg><svg x="35" y="15" width="200" height="50" class="External" fill="#26de81"><g><path d="M 0 0 L 185 0 L 200 15 L 200 50 L 0 50 L 0 0 Z" stroke-width="1.2" stroke-miterlimit="10" stroke="black" fill="#26de81" class="sc-jSMfEi dUWCkx"></path><path d="M 185 0 L 185 15 L 200 15" stroke-width="1.2" stroke-miterlimit="10" stroke="black" fill="none" class="sc-jSMfEi gxavQI"></path><text x="100" y="25" text-anchor="middle" width="200" height="50" font-weight="bold" pointer-events="none"><tspan x="100" dy="5.5">External</tspan></text></g></svg><svg x="255" y="15" width="200" height="50" class="Planned" fill="#fd9644"><g><path d="M 0 0 L 185 0 L 200 15 L 200 50 L 0 50 L 0 0 Z" stroke-width="1.2" stroke-miterlimit="10" stroke="black" fill="#fd9644" class="sc-jSMfEi jKmLts"></path><path d="M 185 0 L 185 15 L 200 15" stroke-width="1.2" stroke-miterlimit="10" stroke="black" fill="none" class="sc-jSMfEi gxavQI"></path><text x="100" y="25" text-anchor="middle" width="200" height="50" font-weight="bold" pointer-events="none"><tspan x="100" dy="5.5">Planned</tspan></text></g></svg><svg x="335" y="475" width="20" height="20" class="Static maps (/maps/)" fill="#ffffff"><g><circle cx="50%" cy="50%" r="10" stroke-width="2" stroke="black" fill="white" class="sc-papXJ cgkCyQ"></circle><text x="25px" dominant-baseline="auto" text-anchor="start" font-weight="bold" pointer-events="none" style="fill: black;">Static maps (/maps/)</text></g></svg><svg x="275" y="115" width="20" height="20" class="feedback-API (/api/feedback)" fill="#ffffff"><g><circle cx="50%" cy="50%" r="10" stroke-width="2" stroke="black" fill="white" class="sc-papXJ bdZYVS"></circle><text x="25px" dominant-baseline="auto" text-anchor="start" font-weight="bold" pointer-events="none">feedback-API (/api/feedback)</text></g></svg><svg x="1225" y="75" width="210" height="300" class="" fill="#ffffff"><g><polyline points="210 0,105 0,105 300,0 300" stroke="black" fill="none" class="sc-eCYdqJ jAZyLs"></polyline></g></svg><svg x="1455" y="75" width="290" height="40" class="" fill="#ffffff"><g><polyline points="0 0,290 0,290 40" stroke="black" fill="none" class="sc-eCYdqJ jAZyLs"></polyline></g></svg><svg x="1225" y="155" width="210" height="220" class="" fill="#ffffff"><g><polyline points="210 0,105 0,105 220,0 220" stroke="black" fill="none" class="sc-eCYdqJ jAZyLs"></polyline></g></svg><svg x="1455" y="155" width="160" height="1" class="" fill="#ffffff"><g><polyline points="0 0,160 0" stroke="black" fill="none" class="sc-eCYdqJ jAZyLs"></polyline></g></svg><svg x="1225" y="325" width="210" height="50" class="" fill="#ffffff"><g><polyline points="210 0,105 0,105 50,0 50" stroke="black" fill="none" class="sc-eCYdqJ jAZyLs"></polyline></g></svg><svg x="1455" y="325" width="200" height="1" class="" fill="#ffffff"><g><polyline points="0 0,200 0" stroke="black" fill="none" class="sc-eCYdqJ jAZyLs"></polyline></g></svg><svg x="1225" y="235" width="210" height="140" class="" fill="#ffffff"><g><polyline points="210 0,105 0,105 140,0 140" stroke-width="1" stroke="black" fill="none" class="sc-eCYdqJ jAZyLs"></polyline><text x="105" y="70" dominant-baseline="middle" text-anchor="start" font-weight="bold" pointer-events="none" dx="5"></text></g></svg><svg x="1455" y="195" width="290" height="40" class="" fill="#ffffff"><g><polyline points="0 40,290 40,290 0" stroke="black" fill="none" class="sc-eCYdqJ jAZyLs"></polyline></g></svg><svg x="925" y="185" width="195" height="140" class="" fill="#ffffff"><g><polyline points="195 140,195 0,0 0" stroke="black" fill="none" class="sc-eCYdqJ jAZyLs"></polyline></g></svg><svg x="815" y="185" width="90" height="1" class="" fill="#ffffff"><g><marker id="marker-c1e1ca46-9243-4986-adf6-32dfa13c56df" viewBox="0 0 30 30" markerWidth="22" markerHeight="30" refX="30" refY="15" orient="auto" markerUnits="strokeWidth"><path d="M0,29 L30,15 L0,1" stroke="black" fill="none" class="sc-jSMfEi gYwSfK"></path></marker><polyline points="0 0,90 0" stroke-width="1" stroke-dasharray="7" marker-end="url(#marker-c1e1ca46-9243-4986-adf6-32dfa13c56df)" stroke="black" fill="none" class="sc-eCYdqJ jAZyLs"></polyline></g></svg><svg x="815" y="285" width="90" height="1" class="" fill="#ffffff"><g><marker id="marker-7a4a03a7-0871-4c0c-aed4-e57a7fe0b04f" viewBox="0 0 30 30" markerWidth="22" markerHeight="30" refX="30" refY="15" orient="auto" markerUnits="strokeWidth"><path d="M0,29 L30,15 L0,1" stroke="black" fill="none" class="sc-jSMfEi gYwSfK"></path></marker><polyline points="0 0,90 0" stroke-width="1" stroke-dasharray="7" marker-end="url(#marker-7a4a03a7-0871-4c0c-aed4-e57a7fe0b04f)" stroke="black" fill="none" class="sc-eCYdqJ jAZyLs"></polyline></g></svg><svg x="312" y="372" width="263" height="223" class="" fill="#ffffff"><g><marker id="marker-2bd21e8b-56d8-49be-bb13-b1e4dd63a01b" viewBox="0 0 27 27" markerWidth="27" markerHeight="27" refX="0" refY="0" orient="auto" markerUnits="strokeWidth"><path d="M 8 -12.5 C -3.5 -7.5 -3.3 7.9 8 12.5" stroke-width="2" stroke="black" fill="none" class="sc-jSMfEi gxavQI"></path></marker><polyline points="263 223,13 223,13 16" stroke-width="1" marker-end="url(#marker-2bd21e8b-56d8-49be-bb13-b1e4dd63a01b)" stroke="black" fill="none" class="sc-eCYdqJ kfUCae"></polyline></g></svg><svg x="315" y="285" width="260" height="1" class="" fill="#ffffff"><g><polyline points="260 0,0 0" stroke="black" fill="none" class="sc-eCYdqJ jAZyLs"></polyline></g></svg><svg x="925" y="285" width="195" height="40" class="" fill="#ffffff"><g><polyline points="0 0,195 0,195 40" stroke="black" fill="none" class="sc-eCYdqJ jAZyLs"></polyline></g></svg><svg x="292" y="282" width="283" height="313" class="" fill="#ffffff"><g><marker id="marker-81a638be-0271-4ad6-a418-24af44f29c1d" viewBox="0 0 27 27" markerWidth="27" markerHeight="27" refX="0" refY="0" orient="auto" markerUnits="strokeWidth"><path d="M 8 -12.5 C -3.5 -7.5 -3.3 7.9 8 12.5" stroke-width="2" stroke="black" fill="none" class="sc-jSMfEi gxavQI"></path></marker><polyline points="283 313,13 313,13 16" stroke-width="1" marker-end="url(#marker-81a638be-0271-4ad6-a418-24af44f29c1d)" stroke="black" fill="none" class="sc-eCYdqJ kfUCae"></polyline></g></svg><svg x="335" y="375" width="680" height="1" class="" fill="#ffffff"><g><polyline points="0 0,680 0" stroke="black" fill="none" class="sc-eCYdqJ jAZyLs"></polyline></g></svg><svg x="315" y="615" width="380" height="50" class="" fill="#ffffff"><g><polyline points="0 50,380 50,380 0" stroke="black" fill="none" class="sc-eCYdqJ jAZyLs"></polyline></g></svg><svg x="1455" y="415" width="305" height="40" class="" fill="#ffffff"><g><polyline points="305 40,305 0,0 0" stroke="#fd9644" fill="none" class="sc-eCYdqJ fFelrP"></polyline></g></svg><svg x="1455" y="505" width="170" height="1" class="" fill="#ffffff"><g><polyline points="170 0,0 0" stroke="#fd9644" fill="none" class="sc-eCYdqJ fFelrP"></polyline></g></svg><svg x="1455" y="555" width="305" height="40" class="" fill="#ffffff"><g><polyline points="305 0,305 40,0 40" stroke="#fd9644" fill="none" class="sc-eCYdqJ fFelrP"></polyline></g></svg><svg x="115" y="235" width="204" height="150" class="" fill="#ffffff"><g><marker id="marker-ef877731-d06a-432f-ac62-b96c0f3611ef" viewBox="0 0 27 27" markerWidth="27" markerHeight="27" refX="0" refY="0" orient="auto" markerUnits="strokeWidth"><path d="M 8 -12.5 C -3.5 -7.5 -3.3 7.9 8 12.5" stroke-width="2" stroke="#26de81" fill="none" class="sc-jSMfEi dqBKlw"></path></marker><polyline points="0 150,0 0,190 0,190 37" stroke-width="1" marker-end="url(#marker-ef877731-d06a-432f-ac62-b96c0f3611ef)" stroke="#26de81" fill="none" class="sc-eCYdqJ fGouUu"></polyline></g></svg><svg x="115" y="325" width="224" height="60" class="" fill="#ffffff"><g><marker id="marker-7bae1f5d-d16e-469d-a071-90c745f726c7" viewBox="0 0 27 27" markerWidth="27" markerHeight="27" refX="0" refY="0" orient="auto" markerUnits="strokeWidth"><path d="M 8 -12.5 C -3.5 -7.5 -3.3 7.9 8 12.5" stroke-width="2" stroke="#26de81" fill="none" class="sc-jSMfEi dqBKlw"></path></marker><polyline points="0 60,0 0,210 0,210 37" stroke-width="1" marker-end="url(#marker-7bae1f5d-d16e-469d-a071-90c745f726c7)" stroke="#26de81" fill="none" class="sc-eCYdqJ fGouUu"></polyline></g></svg><svg x="215" y="652" width="94" height="27" class="" fill="#ffffff"><g><marker id="marker-3ab6e852-8b41-4c34-a37a-39adb977775e" viewBox="0 0 27 27" markerWidth="27" markerHeight="27" refX="0" refY="0" orient="auto" markerUnits="strokeWidth"><path d="M 13 -13.5 a 1 1 0 0 0 0 27" stroke-width="2" stroke="#26de81" fill="none" class="sc-jSMfEi dqBKlw"></path></marker><polyline points="0 13,77 13" stroke-width="1" marker-end="url(#marker-3ab6e852-8b41-4c34-a37a-39adb977775e)" stroke="#26de81" fill="none" class="sc-eCYdqJ fGouUu"></polyline></g></svg><svg x="315" y="625" width="755" height="160" class="" fill="#ffffff"><g><polyline points="755 0,755 160,0 160" stroke="black" fill="none" class="sc-eCYdqJ jAZyLs"></polyline></g></svg><svg x="215" y="772" width="94" height="27" class="" fill="#ffffff"><g><marker id="marker-9f69d649-e1d5-4a58-9aef-e99073deb7aa" viewBox="0 0 27 27" markerWidth="27" markerHeight="27" refX="0" refY="0" orient="auto" markerUnits="strokeWidth"><path d="M 8 -12.5 C -3.5 -7.5 -3.3 7.9 8 12.5" stroke-width="2" stroke="#26de81" fill="none" class="sc-jSMfEi dqBKlw"></path></marker><polyline points="0 13,77 13" stroke-width="1" marker-end="url(#marker-9f69d649-e1d5-4a58-9aef-e99073deb7aa)" stroke="#26de81" fill="none" class="sc-eCYdqJ fGouUu"></polyline></g></svg><svg x="925" y="215" width="195" height="110" class="" fill="#ffffff"><g><polyline points="0 0,195 0,195 110" stroke="black" fill="none" class="sc-eCYdqJ jAZyLs"></polyline></g></svg><svg x="815" y="185" width="90" height="30" class="" fill="#ffffff"><g><marker id="marker-2d70033b-c3d7-47dc-982a-1e92b59c0636" viewBox="0 0 30 30" markerWidth="22" markerHeight="30" refX="30" refY="15" orient="auto" markerUnits="strokeWidth"><path d="M0,29 L30,15 L0,1" stroke="black" fill="none" class="sc-jSMfEi gYwSfK"></path></marker><polyline points="0 0,45 0,45 30,90 30" stroke-width="1" stroke-dasharray="7" marker-end="url(#marker-2d70033b-c3d7-47dc-982a-1e92b59c0636)" stroke="black" fill="none" class="sc-eCYdqJ jAZyLs"></polyline></g></svg><svg x="1455" y="755" width="170" height="1" class="" fill="#ffffff"><g><polyline points="0 0,170 0" stroke="#fd9644" fill="none" class="sc-eCYdqJ fFelrP"></polyline></g></svg><svg x="1455" y="665" width="305" height="40" class="" fill="#ffffff"><g><polyline points="0 0,305 0,305 40" stroke="#fd9644" fill="none" class="sc-eCYdqJ fFelrP"></polyline></g></svg><svg x="815" y="595" width="170" height="1" class="" fill="#ffffff"><g><marker id="marker-7ea4aaee-348e-4acd-a4fa-94fcf17c7fe1" viewBox="0 0 30 30" markerWidth="22" markerHeight="30" refX="30" refY="15" orient="auto" markerUnits="strokeWidth"><path d="M0,29 L30,15 L0,1" stroke="black" fill="none" class="sc-jSMfEi gYwSfK"></path></marker><polyline points="170 0,0 0" stroke-width="1" stroke-dasharray="7" marker-end="url(#marker-7ea4aaee-348e-4acd-a4fa-94fcf17c7fe1)" stroke="black" fill="none" class="sc-eCYdqJ jAZyLs"></polyline></g></svg><svg x="355" y="485" width="220" height="1" class="" fill="#ffffff"><g><polyline points="0 0,220 0" stroke="black" fill="none" class="sc-eCYdqJ kfUCae"></polyline></g></svg><svg x="332" y="482" width="243" height="113" class="" fill="#ffffff"><g><marker id="marker-fd941e0d-2c02-4fc2-94f8-599b0af36a37" viewBox="0 0 27 27" markerWidth="27" markerHeight="27" refX="0" refY="0" orient="auto" markerUnits="strokeWidth"><path d="M 2 -7.8 C -1.5 -3 -1.2 3.4 2 7.8" stroke-width="2" stroke="#fd9644" fill="none" class="sc-jSMfEi kgJnth"></path></marker><polyline points="243 113,13 113,13 16" stroke-width="1" marker-end="url(#marker-fd941e0d-2c02-4fc2-94f8-599b0af36a37)" stroke="#fd9644" fill="none" class="sc-eCYdqJ fFelrP"></polyline></g></svg><svg x="215" y="435" width="134" height="64" class="" fill="#ffffff"><g><marker id="marker-cae9c682-a124-4a62-8522-b19c3634cf5a" viewBox="0 0 27 27" markerWidth="27" markerHeight="27" refX="0" refY="0" orient="auto" markerUnits="strokeWidth"><path d="M 2 -7.8 C -1.5 -3 -1.2 3.4 2 7.8" stroke-width="2" stroke="#26de81" fill="none" class="sc-jSMfEi dqBKlw"></path></marker><polyline points="0 0,60 0,60 50,117 50" stroke-width="1" marker-end="url(#marker-cae9c682-a124-4a62-8522-b19c3634cf5a)" stroke="#26de81" fill="none" class="sc-eCYdqJ fGouUu"></polyline></g></svg><svg x="925" y="425" width="195" height="100" class="" fill="#ffffff"><g><polyline points="0 100,195 100,195 0" stroke="black" fill="none" class="sc-eCYdqJ jAZyLs"></polyline></g></svg><svg x="695" y="512" width="224" height="63" class="" fill="#ffffff"><g><marker id="marker-f84dd657-aafb-4ee6-b355-aea9a69c752c" viewBox="0 0 27 27" markerWidth="27" markerHeight="27" refX="0" refY="0" orient="auto" markerUnits="strokeWidth"><path d="M 13 -13.5 a 1 1 0 0 0 0 27" stroke-width="2" stroke="black" fill="none" class="sc-jSMfEi gYwSfK"></path></marker><polyline points="0 63,0 13,207 13" stroke-width="1" marker-end="url(#marker-f84dd657-aafb-4ee6-b355-aea9a69c752c)" stroke="black" fill="none" class="sc-eCYdqJ jAZyLs"></polyline></g></svg><svg x="695" y="205" width="1" height="60" class="" fill="#ffffff"><g><marker id="marker-872cfc99-8c9b-4b1d-861b-cbf4b47eb4bb" viewBox="0 0 30 30" markerWidth="22" markerHeight="30" refX="30" refY="15" orient="auto" markerUnits="strokeWidth"><path d="M0,29 L30,15 L0,1" stroke="black" fill="none" class="sc-jSMfEi gYwSfK"></path></marker><polyline points="0 60,0 0" stroke-width="1" stroke-dasharray="7" marker-end="url(#marker-872cfc99-8c9b-4b1d-861b-cbf4b47eb4bb)" stroke="black" fill="none" class="sc-eCYdqJ jAZyLs"></polyline></g></svg><svg x="285" y="135" width="290" height="460" class="" fill="#ffffff"><g><polyline points="0 0,0 460,290 460" stroke="black" fill="none" class="sc-eCYdqJ jAZyLs"></polyline></g></svg><svg x="115" y="75" width="184" height="310" class="" fill="#ffffff"><g><marker id="marker-501bdd20-071c-4540-9774-ee9cbe04ca02" viewBox="0 0 27 27" markerWidth="27" markerHeight="27" refX="0" refY="0" orient="auto" markerUnits="strokeWidth"><path d="M 13 -13.5 a 1 1 0 0 0 0 27" stroke-width="2" stroke="#26de81" fill="none" class="sc-jSMfEi dqBKlw"></path></marker><polyline points="0 310,0 0,170 0,170 37" stroke-width="1" marker-end="url(#marker-501bdd20-071c-4540-9774-ee9cbe04ca02)" stroke="#26de81" fill="none" class="sc-eCYdqJ fGouUu"></polyline></g></svg><svg x="295" y="125" width="280" height="1" class="" fill="#ffffff"><g><polyline points="0 0,280 0" stroke="black" fill="none" class="sc-eCYdqJ jAZyLs"></polyline></g></svg><svg x="332" y="305" width="380" height="180" class="" fill="#ffffff"><g><marker id="marker-6c3d840d-66e9-4e5c-8c36-da9ad19c9218" viewBox="0 0 27 27" markerWidth="27" markerHeight="27" refX="0" refY="0" orient="auto" markerUnits="strokeWidth"><path d="M 2 -7.8 C -1.5 -3 -1.2 3.4 2 7.8" stroke-width="2" stroke="black" fill="none" class="sc-jSMfEi gYwSfK"></path></marker><polyline points="363 0,363 113.80010986328125,13 113.80010986328125,13 167" stroke-width="1" marker-end="url(#marker-6c3d840d-66e9-4e5c-8c36-da9ad19c9218)" stroke="black" fill="none" class="sc-eCYdqJ jAZyLs"></polyline></g></svg></svg>
