<svg width="821" height="786" xmlns="http://www.w3.org/2000/svg" xmlns:xlink="http://www.w3.org/1999/xlink" fill="#ffffff"><defs><style>
  text {
    fill: #212529;
    font-family: Helvetica Neue, Helvetica, Arial, sans-serif;
    font-size: 16px;
  }

  marker, text {
    fill-opacity: 1;
  }

  * {
    overflow: visible;
  }
</style></defs><svg x="645" y="65" width="130" height="60" class="START" fill="#ffffff"><g><rect rx="10" ry="10" width="100%" height="100%" stroke="black" fill="white" class="sc-iBkjds iopFig"></rect><text x="65" y="30" text-anchor="middle" width="130" height="60" font-weight="bold" pointer-events="none"><tspan x="65" dy="5.5">START</tspan></text></g></svg><svg x="425" y="185" width="150" height="75" class="endpoint?" fill="#ffffff"><g><polyline points="75 0, 150 37.5, 75 75, 0 37.5, 75 0" stroke="black" fill="white" class="sc-eCYdqJ jFihFV"></polyline><text x="75" y="37.5" text-anchor="middle" width="150" height="75" font-weight="bold" pointer-events="none"><tspan x="75" dy="5.5">endpoint?</tspan></text></g></svg><svg x="425" y="55" width="150" height="75" class="https?" fill="#ffffff"><g><polyline points="75 0, 150 37.5, 75 75, 0 37.5, 75 0" stroke="black" fill="white" class="sc-eCYdqJ jFihFV"></polyline><text x="75" y="37.5" text-anchor="middle" width="150" height="75" font-weight="bold" pointer-events="none"><tspan x="75" dy="5.5">https?</tspan></text></g></svg><svg x="365" y="535" width="270" height="95" class="js-execution capability?" fill="#ffffff"><g><polyline points="135 0, 270 47.5, 135 95, 0 47.5, 135 0" stroke="black" fill="white" class="sc-eCYdqJ jFihFV"></polyline><text x="135" y="47.5" text-anchor="middle" width="270" height="95" font-weight="bold" pointer-events="none"><tspan x="135" dy="5.5">js-execution capability?</tspan></text></g></svg><svg x="565" y="445" width="110" height="55" class="server" fill="#d1d8e0"><g><rect rx="10" ry="10" width="100%" height="100%" stroke="black" fill="#d1d8e0" class="sc-iBkjds bSVflY"></rect><text x="55" y="27.5" text-anchor="middle" width="110" height="55" font-weight="bold" pointer-events="none"><tspan x="55" dy="5.5">server</tspan></text></g></svg><svg x="425" y="695" width="150" height="75" class="webclient" fill="#d1d8e0"><g><rect rx="10" ry="10" width="100%" height="100%" stroke="black" fill="#d1d8e0" class="sc-iBkjds bSVflY"></rect><text x="75" y="37.5" text-anchor="middle" width="150" height="75" font-weight="bold" pointer-events="none"><tspan x="75" dy="5.5">webclient</tspan></text></g></svg><svg x="195" y="445" width="110" height="55" class="tileserver" fill="#d1d8e0"><g><rect rx="10" ry="10" width="100%" height="100%" stroke="black" fill="#d1d8e0" class="sc-iBkjds bSVflY"></rect><text x="55" y="27.5" text-anchor="middle" width="110" height="55" font-weight="bold" pointer-events="none"><tspan x="55" dy="5.5">tileserver</tspan></text></g></svg><svg x="15" y="555" width="250" height="55" class="rendertron rendering-proxy" fill="#d1d8e0"><g><rect rx="10" ry="10" width="100%" height="100%" stroke="black" fill="#d1d8e0" class="sc-iBkjds bSVflY"></rect><text x="125" y="27.5" text-anchor="middle" width="250" height="55" font-weight="bold" pointer-events="none"><tspan x="125" dy="5.5">rendertron rendering-proxy</tspan></text></g></svg><svg x="695" y="445" width="110" height="55" class="feedback" fill="#d1d8e0"><g><rect rx="10" ry="10" width="100%" height="100%" stroke="black" fill="#d1d8e0" class="sc-iBkjds bSVflY"></rect><text x="55" y="27.5" text-anchor="middle" width="110" height="55" font-weight="bold" pointer-events="none"><tspan x="55" dy="5.5">feedback</tspan></text></g></svg><svg x="325" y="445" width="110" height="55" class="cdn" fill="#d1d8e0"><g><rect rx="10" ry="10" width="100%" height="100%" stroke="black" fill="#d1d8e0" class="sc-iBkjds bSVflY"></rect><text x="55" y="27.5" text-anchor="middle" width="110" height="55" font-weight="bold" pointer-events="none"><tspan x="55" dy="5.5">cdn</tspan></text></g></svg><svg x="575" y="95" width="70" height="1" class="" fill="#ffffff"><g><marker id="marker-d79d77e2-0556-44c8-9609-fcc80578caf5" viewBox="0 0 30 30" markerWidth="22" markerHeight="30" refX="30" refY="15" orient="auto" markerUnits="strokeWidth"><path d="M0,29 L30,15 L0,1" stroke="black" fill="none" class="sc-jSMfEi gYwSfK"></path></marker><polyline points="70 0,0 0" stroke-width="1" marker-end="url(#marker-d79d77e2-0556-44c8-9609-fcc80578caf5)" stroke="black" fill="none" class="sc-eCYdqJ jAZyLs"></polyline><text x="35" y="0" dy="-5" dominant-baseline="text-after-edge" text-anchor="middle" pointer-events="none"></text></g></svg><svg x="575" y="222.5" width="45" height="222.5" class="/api/" fill="#ffffff"><g><marker id="marker-e9214c5a-d70d-4326-85b1-ce38eb3081c9" viewBox="0 0 30 30" markerWidth="22" markerHeight="30" refX="30" refY="15" orient="auto" markerUnits="strokeWidth"><path d="M0,29 L30,15 L0,1" stroke="black" fill="none" class="sc-jSMfEi gYwSfK"></path></marker><polyline points="0 0,45 0,45 222.5" stroke-width="1" marker-end="url(#marker-e9214c5a-d70d-4326-85b1-ce38eb3081c9)" stroke="black" fill="none" class="sc-eCYdqJ jAZyLs"></polyline><text x="45" y="88.75" dx="5" dominant-baseline="middle" text-anchor="start" pointer-events="none">/api/</text></g></svg><svg x="380" y="222.5" width="45" height="222.5" class="/cdn/" fill="#ffffff"><g><marker id="marker-a68ed210-c6e2-4a61-b998-ad83bf34d236" viewBox="0 0 30 30" markerWidth="22" markerHeight="30" refX="30" refY="15" orient="auto" markerUnits="strokeWidth"><path d="M0,29 L30,15 L0,1" stroke="black" fill="none" class="sc-jSMfEi gYwSfK"></path></marker><polyline points="45 0,0 0,0 222.5" stroke-width="1" marker-end="url(#marker-a68ed210-c6e2-4a61-b998-ad83bf34d236)" stroke="black" fill="none" class="sc-eCYdqJ jAZyLs"></polyline><text x="0" y="88.75" dx="5" dominant-baseline="middle" text-anchor="start" pointer-events="none">/cdn/</text></g></svg><svg x="500" y="260" width="1" height="275" class="else" fill="#ffffff"><g><marker id="marker-07e0ec8d-4028-4563-8874-bac24f5d9bcd" viewBox="0 0 30 30" markerWidth="22" markerHeight="30" refX="30" refY="15" orient="auto" markerUnits="strokeWidth"><path d="M0,29 L30,15 L0,1" stroke="black" fill="none" class="sc-jSMfEi gYwSfK"></path></marker><polyline points="0 0,0 275" stroke-width="1" marker-end="url(#marker-07e0ec8d-4028-4563-8874-bac24f5d9bcd)" stroke="black" fill="none" class="sc-eCYdqJ jAZyLs"></polyline><text x="0" y="137.5" dx="5" dominant-baseline="middle" text-anchor="start" pointer-events="none">else</text></g></svg><svg x="500" y="130" width="1" height="55" class="yes" fill="#ffffff"><g><marker id="marker-3f5755ee-7a29-437d-8b9c-edd8b29ede96" viewBox="0 0 30 30" markerWidth="22" markerHeight="30" refX="30" refY="15" orient="auto" markerUnits="strokeWidth"><path d="M0,29 L30,15 L0,1" stroke="black" fill="none" class="sc-jSMfEi gYwSfK"></path></marker><polyline points="0 0,0 55" stroke-width="1" marker-end="url(#marker-3f5755ee-7a29-437d-8b9c-edd8b29ede96)" stroke="black" fill="none" class="sc-eCYdqJ jAZyLs"></polyline><text x="0" y="27.5" dx="5" dominant-baseline="middle" text-anchor="start" pointer-events="none">yes</text></g></svg><svg x="500" y="630" width="1" height="65" class="yes" fill="#ffffff"><g><marker id="marker-93ac7953-ac74-4d3c-840f-a020f7c3258c" viewBox="0 0 30 30" markerWidth="22" markerHeight="30" refX="30" refY="15" orient="auto" markerUnits="strokeWidth"><path d="M0,29 L30,15 L0,1" stroke="black" fill="none" class="sc-jSMfEi gYwSfK"></path></marker><polyline points="0 0,0 65" stroke-width="1" marker-end="url(#marker-93ac7953-ac74-4d3c-840f-a020f7c3258c)" stroke="black" fill="none" class="sc-eCYdqJ jAZyLs"></polyline><text x="0" y="32.5" dx="5" dominant-baseline="middle" text-anchor="start" pointer-events="none">yes</text></g></svg><svg x="140" y="610" width="285" height="122.5" class="" fill="#ffffff"><g><marker id="marker-0758b4bc-0822-4b77-809f-c2e4d3737f5a" viewBox="0 0 30 30" markerWidth="22" markerHeight="30" refX="30" refY="15" orient="auto" markerUnits="strokeWidth"><path d="M0,29 L30,15 L0,1" stroke="black" fill="none" class="sc-jSMfEi gYwSfK"></path></marker><polyline points="285 122.5,0 122.5,0 0" stroke-width="1" marker-end="url(#marker-0758b4bc-0822-4b77-809f-c2e4d3737f5a)" stroke="black" fill="none" class="sc-eCYdqJ jAZyLs"></polyline><text x="81.25" y="122.5" dy="-5" dominant-baseline="text-after-edge" text-anchor="middle" pointer-events="none"></text></g></svg><svg x="140" y="222.5" width="285" height="332.5" class="/rendertron/" fill="#ffffff"><g><marker id="marker-ae2aef6b-6867-485d-85fb-060a5e160444" viewBox="0 0 30 30" markerWidth="22" markerHeight="30" refX="30" refY="15" orient="auto" markerUnits="strokeWidth"><path d="M0,29 L30,15 L0,1" stroke="black" fill="none" class="sc-jSMfEi gYwSfK"></path></marker><polyline points="285 0,0 0,0 332.5" stroke-width="1" marker-end="url(#marker-ae2aef6b-6867-485d-85fb-060a5e160444)" stroke="black" fill="none" class="sc-eCYdqJ jAZyLs"></polyline><text x="0" y="23.75" dx="5" dominant-baseline="middle" text-anchor="start" pointer-events="none">/rendertron/</text></g></svg><svg x="385" y="15" width="115" height="77.5" class="redirect to https" fill="#ffffff"><g><marker id="marker-f8237def-cca1-4142-8df2-d355fe815fa4" viewBox="0 0 30 30" markerWidth="22" markerHeight="30" refX="30" refY="15" orient="auto" markerUnits="strokeWidth"><path d="M0,29 L30,15 L0,1" stroke="black" fill="none" class="sc-jSMfEi gYwSfK"></path></marker><polyline points="40 77.5,0 77.5,0 0,115 0,115 40" stroke-width="1" marker-end="url(#marker-f8237def-cca1-4142-8df2-d355fe815fa4)" stroke="black" fill="none" class="sc-eCYdqJ jAZyLs"></polyline><text x="18.75" y="0" dy="-5" dominant-baseline="text-after-edge" text-anchor="middle" pointer-events="none">redirect to https</text></g></svg><svg x="265" y="582.5" width="100" height="1" class="no" fill="#ffffff"><g><marker id="marker-655d6343-25aa-4c54-a4f6-b962ab4bf8ec" viewBox="0 0 30 30" markerWidth="22" markerHeight="30" refX="30" refY="15" orient="auto" markerUnits="strokeWidth"><path d="M0,29 L30,15 L0,1" stroke="black" fill="none" class="sc-jSMfEi gYwSfK"></path></marker><polyline points="100 0,0 0" stroke-width="1" marker-end="url(#marker-655d6343-25aa-4c54-a4f6-b962ab4bf8ec)" stroke="black" fill="none" class="sc-eCYdqJ jAZyLs"></polyline><text x="50" y="0" dy="-5" dominant-baseline="text-after-edge" text-anchor="middle" pointer-events="none">no</text></g></svg><svg x="250" y="222.5" width="175" height="222.5" class="/maps/" fill="#ffffff"><g><marker id="marker-c280e8e2-d5ca-4c04-94bc-a040c8eb4d93" viewBox="0 0 30 30" markerWidth="22" markerHeight="30" refX="30" refY="15" orient="auto" markerUnits="strokeWidth"><path d="M0,29 L30,15 L0,1" stroke="black" fill="none" class="sc-jSMfEi gYwSfK"></path></marker><polyline points="175 0,0 0,0 222.5" stroke-width="1" marker-end="url(#marker-c280e8e2-d5ca-4c04-94bc-a040c8eb4d93)" stroke="black" fill="none" class="sc-eCYdqJ jAZyLs"></polyline><text x="0" y="23.75" dx="5" dominant-baseline="middle" text-anchor="start" pointer-events="none">/maps/</text></g></svg><svg x="140" y="610" width="285" height="122.5" class="" fill="#ffffff"><g><marker id="marker-c9861868-9906-408f-9aa3-867e051d32c7" viewBox="0 0 30 30" markerWidth="22" markerHeight="30" refX="30" refY="15" orient="auto" markerUnits="strokeWidth"><path d="M0,29 L30,15 L0,1" stroke="black" fill="none" class="sc-jSMfEi gYwSfK"></path></marker><polyline points="0 0,0 122.5,285 122.5" stroke-width="1" marker-end="url(#marker-c9861868-9906-408f-9aa3-867e051d32c7)" stroke="black" fill="none" class="sc-eCYdqJ jAZyLs"></polyline><text x="81.25" y="122.5" dy="-5" dominant-baseline="text-after-edge" text-anchor="middle" pointer-events="none"></text></g></svg><svg x="575" y="222.5" width="175" height="222.5" class="/api/feedback/" fill="#ffffff"><g><marker id="marker-05b1bcc9-175b-4ca2-816a-f8800536cc95" viewBox="0 0 30 30" markerWidth="22" markerHeight="30" refX="30" refY="15" orient="auto" markerUnits="strokeWidth"><path d="M0,29 L30,15 L0,1" stroke="black" fill="none" class="sc-jSMfEi gYwSfK"></path></marker><polyline points="0 0,175 0,175 222.5" stroke-width="1" marker-end="url(#marker-05b1bcc9-175b-4ca2-816a-f8800536cc95)" stroke="black" fill="none" class="sc-eCYdqJ jAZyLs"></polyline><text x="175" y="23.75" dx="5" dominant-baseline="middle" text-anchor="start" pointer-events="none">/api/feedback/</text></g></svg></svg>
