<svg width="811" height="856" xmlns="http://www.w3.org/2000/svg" xmlns:xlink="http://www.w3.org/1999/xlink" fill="white"><defs><style>
  text {
    fill: #212529;
    font-family: Helvetica Neue, Helvetica, Arial, sans-serif;
    font-size: 16px;
  }

  marker, text {
    fill-opacity: 1;
  }

  * {
    overflow: visible;
  }
</style></defs><svg x="305" y="15" width="150" height="75" class="START" fill="white"><g><rect rx="10" ry="10" width="100%" height="100%" stroke="black"></rect><text x="75" y="37.5" text-anchor="middle" width="150" height="75" font-weight="bold" pointer-events="none"><tspan x="75" dy="5.5">START</tspan></text></g></svg><svg x="305" y="175" width="150" height="75" class="endpoint?" fill="white"><g><polyline points="75 0, 150 37.5, 75 75, 0 37.5, 75 0" stroke="black"></polyline><text x="75" y="37.5" text-anchor="middle" width="150" height="75" font-weight="bold" pointer-events="none"><tspan x="75" dy="5.5">endpoint?</tspan></text></g></svg><svg x="305" y="385" width="150" height="75" class="https?" fill="white"><g><polyline points="75 0, 150 37.5, 75 75, 0 37.5, 75 0" stroke="black"></polyline><text x="75" y="37.5" text-anchor="middle" width="150" height="75" font-weight="bold" pointer-events="none"><tspan x="75" dy="5.5">https?</tspan></text></g></svg><svg x="645" y="385" width="150" height="75" class="navigatum-data" fill="white"><g><rect width="100%" height="100%" stroke="black"></rect><text x="75" y="37.5" text-anchor="middle" width="150" height="75" font-weight="bold" pointer-events="none"><tspan x="75" dy="5.5">navigatum-data</tspan></text></g></svg><svg x="475" y="385" width="150" height="75" class="navigatum-server" fill="white"><g><rect width="100%" height="100%" stroke="black"></rect><text x="75" y="37.5" text-anchor="middle" width="150" height="75" font-weight="bold" pointer-events="none"><tspan x="75" dy="5.5">navigatum-server</tspan></text></g></svg><svg x="265" y="765" width="230" height="75" class="navigatum-webclient" fill="white"><g><rect width="100%" height="100%" stroke="black"></rect><text x="115" y="37.5" text-anchor="middle" width="230" height="75" font-weight="bold" pointer-events="none"><tspan x="115" dy="5.5">navigatum-webclient</tspan></text></g></svg><svg x="245" y="555" width="270" height="95" class="js-execution capability?" fill="white"><g><polyline points="135 0, 270 47.5, 135 95, 0 47.5, 135 0" stroke="black"></polyline><text x="135" y="47.5" text-anchor="middle" width="270" height="95" font-weight="bold" pointer-events="none"><tspan x="135" dy="5.5">js-execution capability?</tspan></text></g></svg><svg x="15" y="565" width="150" height="75" class="rendertron rendering-proxy" fill="white"><g><rect width="100%" height="100%" stroke="black"></rect><text x="75" y="37.5" text-anchor="middle" width="150" height="75" font-weight="bold" pointer-events="none"><tspan x="75" dy="5.5">rendertron rendering-proxy</tspan></text></g></svg><svg x="380" y="90" width="1" height="85" class="" fill="white"><g><marker id="marker-d79d77e2-0556-44c8-9609-fcc80578caf5" viewBox="0 0 30 30" markerWidth="22" markerHeight="30" refX="30" refY="15" orient="auto" markerUnits="strokeWidth"><path d="M0,29 L30,15 L0,1" fill="none" stroke="black"></path></marker><polyline points="0 0,0 85" stroke="black" fill="none" stroke-width="1" marker-end="url(#marker-d79d77e2-0556-44c8-9609-fcc80578caf5)"></polyline><text x="0" y="42.5" dx="5" dominant-baseline="middle" text-anchor="start" pointer-events="none"></text></g></svg><svg x="455" y="212.5" width="95" height="172.5" class="/api/" fill="white"><g><marker id="marker-e9214c5a-d70d-4326-85b1-ce38eb3081c9" viewBox="0 0 30 30" markerWidth="22" markerHeight="30" refX="30" refY="15" orient="auto" markerUnits="strokeWidth"><path d="M0,29 L30,15 L0,1" fill="none" stroke="black"></path></marker><polyline points="0 0,95 0,95 172.5" stroke="black" fill="none" stroke-width="1" marker-end="url(#marker-e9214c5a-d70d-4326-85b1-ce38eb3081c9)"></polyline><text x="95" y="38.75" dx="5" dominant-baseline="middle" text-anchor="start" pointer-events="none">/api/</text></g></svg><svg x="455" y="212.5" width="265" height="172.5" class="/cdn/" fill="white"><g><marker id="marker-a68ed210-c6e2-4a61-b998-ad83bf34d236" viewBox="0 0 30 30" markerWidth="22" markerHeight="30" refX="30" refY="15" orient="auto" markerUnits="strokeWidth"><path d="M0,29 L30,15 L0,1" fill="none" stroke="black"></path></marker><polyline points="0 0,265 0,265 172.5" stroke="black" fill="none" stroke-width="1" marker-end="url(#marker-a68ed210-c6e2-4a61-b998-ad83bf34d236)"></polyline><text x="218.75" y="0" dy="-5" dominant-baseline="text-after-edge" text-anchor="middle" pointer-events="none">/cdn/</text></g></svg><svg x="380" y="250" width="1" height="135" class="else" fill="white"><g><marker id="marker-07e0ec8d-4028-4563-8874-bac24f5d9bcd" viewBox="0 0 30 30" markerWidth="22" markerHeight="30" refX="30" refY="15" orient="auto" markerUnits="strokeWidth"><path d="M0,29 L30,15 L0,1" fill="none" stroke="black"></path></marker><polyline points="0 0,0 135" stroke="black" fill="none" stroke-width="1" marker-end="url(#marker-07e0ec8d-4028-4563-8874-bac24f5d9bcd)"></polyline><text x="0" y="67.5" dx="5" dominant-baseline="middle" text-anchor="start" pointer-events="none">else</text></g></svg><svg x="380" y="460" width="1" height="95" class="yes" fill="white"><g><marker id="marker-3f5755ee-7a29-437d-8b9c-edd8b29ede96" viewBox="0 0 30 30" markerWidth="22" markerHeight="30" refX="30" refY="15" orient="auto" markerUnits="strokeWidth"><path d="M0,29 L30,15 L0,1" fill="none" stroke="black"></path></marker><polyline points="0 0,0 95" stroke="black" fill="none" stroke-width="1" marker-end="url(#marker-3f5755ee-7a29-437d-8b9c-edd8b29ede96)"></polyline><text x="0" y="47.5" dx="5" dominant-baseline="middle" text-anchor="start" pointer-events="none">yes</text></g></svg><svg x="380" y="650" width="1" height="115" class="yes" fill="white"><g><marker id="marker-93ac7953-ac74-4d3c-840f-a020f7c3258c" viewBox="0 0 30 30" markerWidth="22" markerHeight="30" refX="30" refY="15" orient="auto" markerUnits="strokeWidth"><path d="M0,29 L30,15 L0,1" fill="none" stroke="black"></path></marker><polyline points="0 0,0 115" stroke="black" fill="none" stroke-width="1" marker-end="url(#marker-93ac7953-ac74-4d3c-840f-a020f7c3258c)"></polyline><text x="0" y="57.5" dx="5" dominant-baseline="middle" text-anchor="start" pointer-events="none">yes</text></g></svg><svg x="90" y="640" width="175" height="162.5" class="" fill="white"><g><marker id="marker-0758b4bc-0822-4b77-809f-c2e4d3737f5a" viewBox="0 0 30 30" markerWidth="22" markerHeight="30" refX="30" refY="15" orient="auto" markerUnits="strokeWidth"><path d="M0,29 L30,15 L0,1" fill="none" stroke="black"></path></marker><polyline points="175 162.5,0 162.5,0 0" stroke="black" fill="none" stroke-width="1" marker-end="url(#marker-0758b4bc-0822-4b77-809f-c2e4d3737f5a)"></polyline><text x="6.25" y="162.5" dy="-5" dominant-baseline="text-after-edge" text-anchor="middle" pointer-events="none"></text></g></svg><svg x="90" y="212.5" width="215" height="352.5" class="/rendertron/" fill="white"><g><marker id="marker-ae2aef6b-6867-485d-85fb-060a5e160444" viewBox="0 0 30 30" markerWidth="22" markerHeight="30" refX="30" refY="15" orient="auto" markerUnits="strokeWidth"><path d="M0,29 L30,15 L0,1" fill="none" stroke="black"></path></marker><polyline points="215 0,0 0,0 352.5" stroke="black" fill="none" stroke-width="1" marker-end="url(#marker-ae2aef6b-6867-485d-85fb-060a5e160444)"></polyline><text x="0" y="68.75" dx="5" dominant-baseline="middle" text-anchor="start" pointer-events="none">/rendertron/</text></g></svg><svg x="265" y="345" width="115" height="77.5" class="redirect to https" fill="white"><g><marker id="marker-f8237def-cca1-4142-8df2-d355fe815fa4" viewBox="0 0 30 30" markerWidth="22" markerHeight="30" refX="30" refY="15" orient="auto" markerUnits="strokeWidth"><path d="M0,29 L30,15 L0,1" fill="none" stroke="black"></path></marker><polyline points="40 77.5,0 77.5,0 0,115 0,115 40" stroke="black" fill="none" stroke-width="1" marker-end="url(#marker-f8237def-cca1-4142-8df2-d355fe815fa4)"></polyline><text x="18.75" y="0" dy="-5" dominant-baseline="text-after-edge" text-anchor="middle" pointer-events="none">redirect to https</text></g></svg><svg x="90" y="640" width="175" height="162.5" class="" fill="white"><g><marker id="marker-253de17d-9c84-42ca-ab26-99a9c1c8842f" viewBox="0 0 30 30" markerWidth="22" markerHeight="30" refX="30" refY="15" orient="auto" markerUnits="strokeWidth"><path d="M0,29 L30,15 L0,1" fill="none" stroke="black"></path></marker><polyline points="0 0,0 162.5,175 162.5" stroke="black" fill="none" stroke-width="1" marker-end="url(#marker-253de17d-9c84-42ca-ab26-99a9c1c8842f)"></polyline><text x="6.25" y="162.5" dy="-5" dominant-baseline="text-after-edge" text-anchor="middle" pointer-events="none"></text></g></svg><svg x="165" y="602.5" width="80" height="1" class="no" fill="white"><g><marker id="marker-655d6343-25aa-4c54-a4f6-b962ab4bf8ec" viewBox="0 0 30 30" markerWidth="22" markerHeight="30" refX="30" refY="15" orient="auto" markerUnits="strokeWidth"><path d="M0,29 L30,15 L0,1" fill="none" stroke="black"></path></marker><polyline points="80 0,0 0" stroke="black" fill="none" stroke-width="1" marker-end="url(#marker-655d6343-25aa-4c54-a4f6-b962ab4bf8ec)"></polyline><text x="40" y="0" dy="-5" dominant-baseline="text-after-edge" text-anchor="middle" pointer-events="none">no</text></g></svg></svg>
