<svg xmlns="http://www.w3.org/2000/svg" xmlns:xlink="http://www.w3.org/1999/xlink" width="811" height="856" fill="#fff"><defs><style>text{fill:#212529;font-family:Helvetica Neue,Helvetica,Arial,sans-serif;font-size:16px}marker,text{fill-opacity:1}*{overflow:visible}</style></defs><svg width="150" height="75" x="305" y="15" fill="#fff" class="START"><g><rect width="100%" height="100%" stroke="#000" rx="10" ry="10"/><text width="150" height="75" x="75" y="37.5" font-weight="bold" pointer-events="none" text-anchor="middle"><tspan x="75" dy="5.5">START</tspan></text></g></svg><svg width="150" height="75" x="305" y="175" fill="#fff" class="endpoint?"><g><polyline stroke="#000" points="75 0 150 37.5 75 75 0 37.5 75 0"/><text width="150" height="75" x="75" y="37.5" font-weight="bold" pointer-events="none" text-anchor="middle"><tspan x="75" dy="5.5">endpoint?</tspan></text></g></svg><svg width="150" height="75" x="305" y="385" fill="#fff" class="https?"><g><polyline stroke="#000" points="75 0 150 37.5 75 75 0 37.5 75 0"/><text width="150" height="75" x="75" y="37.5" font-weight="bold" pointer-events="none" text-anchor="middle"><tspan x="75" dy="5.5">https?</tspan></text></g></svg><svg width="150" height="75" x="645" y="385" fill="#fff" class="navigatum-data"><g><rect width="100%" height="100%" stroke="#000"/><text width="150" height="75" x="75" y="37.5" font-weight="bold" pointer-events="none" text-anchor="middle"><tspan x="75" dy="5.5">navigatum-data</tspan></text></g></svg><svg width="150" height="75" x="475" y="385" fill="#fff" class="navigatum-server"><g><rect width="100%" height="100%" stroke="#000"/><text width="150" height="75" x="75" y="37.5" font-weight="bold" pointer-events="none" text-anchor="middle"><tspan x="75" dy="5.5">navigatum-server</tspan></text></g></svg><svg width="230" height="75" x="265" y="765" fill="#fff" class="navigatum-webclient"><g><rect width="100%" height="100%" stroke="#000"/><text width="230" height="75" x="115" y="37.5" font-weight="bold" pointer-events="none" text-anchor="middle"><tspan x="115" dy="5.5">navigatum-webclient</tspan></text></g></svg><svg width="270" height="95" x="245" y="555" fill="#fff" class="js-execution capability?"><g><polyline stroke="#000" points="135 0 270 47.5 135 95 0 47.5 135 0"/><text width="270" height="95" x="135" y="47.5" font-weight="bold" pointer-events="none" text-anchor="middle"><tspan x="135" dy="5.5">js-execution capability?</tspan></text></g></svg><svg width="150" height="75" x="15" y="565" fill="#fff" class="rendertron rendering-proxy"><g><rect width="100%" height="100%" stroke="#000"/><text width="150" height="75" x="75" y="37.5" font-weight="bold" pointer-events="none" text-anchor="middle"><tspan x="75" dy="5.5">rendertron rendering-proxy</tspan></text></g></svg><svg width="1" height="85" x="380" y="90" fill="#fff"><g><marker id="marker-d79d77e2-0556-44c8-9609-fcc80578caf5" markerHeight="30" markerUnits="strokeWidth" markerWidth="22" orient="auto" refX="30" refY="15" viewBox="0 0 30 30"><path fill="none" stroke="#000" d="M0,29 L30,15 L0,1"/></marker><polyline fill="none" stroke="#000" stroke-width="1" marker-end="url(#marker-d79d77e2-0556-44c8-9609-fcc80578caf5)" points="0 0 0 85"/></g></svg><svg width="95" height="172.5" x="455" y="212.5" fill="#fff" class="/api/"><g><marker id="marker-e9214c5a-d70d-4326-85b1-ce38eb3081c9" markerHeight="30" markerUnits="strokeWidth" markerWidth="22" orient="auto" refX="30" refY="15" viewBox="0 0 30 30"><path fill="none" stroke="#000" d="M0,29 L30,15 L0,1"/></marker><polyline fill="none" stroke="#000" stroke-width="1" marker-end="url(#marker-e9214c5a-d70d-4326-85b1-ce38eb3081c9)" points="0 0 95 0 95 172.5"/><text x="95" y="38.75" dominant-baseline="middle" dx="5" pointer-events="none" text-anchor="start">/api/</text></g></svg><svg width="265" height="172.5" x="455" y="212.5" fill="#fff" class="/cdn/"><g><marker id="marker-a68ed210-c6e2-4a61-b998-ad83bf34d236" markerHeight="30" markerUnits="strokeWidth" markerWidth="22" orient="auto" refX="30" refY="15" viewBox="0 0 30 30"><path fill="none" stroke="#000" d="M0,29 L30,15 L0,1"/></marker><polyline fill="none" stroke="#000" stroke-width="1" marker-end="url(#marker-a68ed210-c6e2-4a61-b998-ad83bf34d236)" points="0 0 265 0 265 172.5"/><text x="218.75" y="0" dominant-baseline="text-after-edge" dy="-5" pointer-events="none" text-anchor="middle">/cdn/</text></g></svg><svg width="1" height="135" x="380" y="250" fill="#fff" class="else"><g><marker id="marker-07e0ec8d-4028-4563-8874-bac24f5d9bcd" markerHeight="30" markerUnits="strokeWidth" markerWidth="22" orient="auto" refX="30" refY="15" viewBox="0 0 30 30"><path fill="none" stroke="#000" d="M0,29 L30,15 L0,1"/></marker><polyline fill="none" stroke="#000" stroke-width="1" marker-end="url(#marker-07e0ec8d-4028-4563-8874-bac24f5d9bcd)" points="0 0 0 135"/><text x="0" y="67.5" dominant-baseline="middle" dx="5" pointer-events="none" text-anchor="start">else</text></g></svg><svg width="1" height="95" x="380" y="460" fill="#fff" class="yes"><g><marker id="marker-3f5755ee-7a29-437d-8b9c-edd8b29ede96" markerHeight="30" markerUnits="strokeWidth" markerWidth="22" orient="auto" refX="30" refY="15" viewBox="0 0 30 30"><path fill="none" stroke="#000" d="M0,29 L30,15 L0,1"/></marker><polyline fill="none" stroke="#000" stroke-width="1" marker-end="url(#marker-3f5755ee-7a29-437d-8b9c-edd8b29ede96)" points="0 0 0 95"/><text x="0" y="47.5" dominant-baseline="middle" dx="5" pointer-events="none" text-anchor="start">yes</text></g></svg><svg width="1" height="115" x="380" y="650" fill="#fff" class="yes"><g><marker id="marker-93ac7953-ac74-4d3c-840f-a020f7c3258c" markerHeight="30" markerUnits="strokeWidth" markerWidth="22" orient="auto" refX="30" refY="15" viewBox="0 0 30 30"><path fill="none" stroke="#000" d="M0,29 L30,15 L0,1"/></marker><polyline fill="none" stroke="#000" stroke-width="1" marker-end="url(#marker-93ac7953-ac74-4d3c-840f-a020f7c3258c)" points="0 0 0 115"/><text x="0" y="57.5" dominant-baseline="middle" dx="5" pointer-events="none" text-anchor="start">yes</text></g></svg><svg width="175" height="162.5" x="90" y="640" fill="#fff"><g><marker id="marker-0758b4bc-0822-4b77-809f-c2e4d3737f5a" markerHeight="30" markerUnits="strokeWidth" markerWidth="22" orient="auto" refX="30" refY="15" viewBox="0 0 30 30"><path fill="none" stroke="#000" d="M0,29 L30,15 L0,1"/></marker><polyline fill="none" stroke="#000" stroke-width="1" marker-end="url(#marker-0758b4bc-0822-4b77-809f-c2e4d3737f5a)" points="175 162.5 0 162.5 0 0"/></g></svg><svg width="215" height="352.5" x="90" y="212.5" fill="#fff" class="/rendertron/"><g><marker id="marker-ae2aef6b-6867-485d-85fb-060a5e160444" markerHeight="30" markerUnits="strokeWidth" markerWidth="22" orient="auto" refX="30" refY="15" viewBox="0 0 30 30"><path fill="none" stroke="#000" d="M0,29 L30,15 L0,1"/></marker><polyline fill="none" stroke="#000" stroke-width="1" marker-end="url(#marker-ae2aef6b-6867-485d-85fb-060a5e160444)" points="215 0 0 0 0 352.5"/><text x="0" y="68.75" dominant-baseline="middle" dx="5" pointer-events="none" text-anchor="start">/rendertron/</text></g></svg><svg width="115" height="77.5" x="265" y="345" fill="#fff" class="redirect to https"><g><marker id="marker-f8237def-cca1-4142-8df2-d355fe815fa4" markerHeight="30" markerUnits="strokeWidth" markerWidth="22" orient="auto" refX="30" refY="15" viewBox="0 0 30 30"><path fill="none" stroke="#000" d="M0,29 L30,15 L0,1"/></marker><polyline fill="none" stroke="#000" stroke-width="1" marker-end="url(#marker-f8237def-cca1-4142-8df2-d355fe815fa4)" points="40 77.5 0 77.5 0 0 115 0 115 40"/><text x="18.75" y="0" dominant-baseline="text-after-edge" dy="-5" pointer-events="none" text-anchor="middle">redirect to https</text></g></svg><svg width="175" height="162.5" x="90" y="640" fill="#fff"><g><marker id="marker-253de17d-9c84-42ca-ab26-99a9c1c8842f" markerHeight="30" markerUnits="strokeWidth" markerWidth="22" orient="auto" refX="30" refY="15" viewBox="0 0 30 30"><path fill="none" stroke="#000" d="M0,29 L30,15 L0,1"/></marker><polyline fill="none" stroke="#000" stroke-width="1" marker-end="url(#marker-253de17d-9c84-42ca-ab26-99a9c1c8842f)" points="0 0 0 162.5 175 162.5"/></g></svg><svg width="80" height="1" x="165" y="602.5" fill="#fff" class="no"><g><marker id="marker-655d6343-25aa-4c54-a4f6-b962ab4bf8ec" markerHeight="30" markerUnits="strokeWidth" markerWidth="22" orient="auto" refX="30" refY="15" viewBox="0 0 30 30"><path fill="none" stroke="#000" d="M0,29 L30,15 L0,1"/></marker><polyline fill="none" stroke="#000" stroke-width="1" marker-end="url(#marker-655d6343-25aa-4c54-a4f6-b962ab4bf8ec)" points="80 0 0 0"/><text x="40" y="0" dominant-baseline="text-after-edge" dy="-5" pointer-events="none" text-anchor="middle">no</text></g></svg></svg>