<svg xmlns="http://www.w3.org/2000/svg" xml:space="preserve" viewBox="0 0 15 15">
  <path d="M7.5 0a7.5 7.5 0 1 0-.01 15.01A7.5 7.5 0 0 0 7.5 0Zm5.28 4.53c.21 0 .4.01.6.04l.6.12-.21.84a2.56 2.56 0 0 0-1.32-.15.73.73 0 0 0-.31.12.66.66 0 0 0-.22.24.95.95 0 0 0-.07.4c0 .2.06.37.16.49.12.12.26.21.43.3.16.07.34.15.55.22.2.08.38.17.56.29a1.43 1.43 0 0 1 .6 1.24 1.64 1.64 0 0 1-.65 1.35c-.2.15-.42.26-.68.32-.25.07-.5.1-.79.1l-.64-.02a2.81 2.81 0 0 1-.62-.14l.02-.87c.16.07.34.13.52.16.2.03.37.05.55.05a1.9 1.9 0 0 0 .8-.18.8.8 0 0 0 .25-.27.94.94 0 0 0 .1-.44c0-.2-.07-.38-.17-.49a1.03 1.03 0 0 0-.4-.29 9.87 9.87 0 0 0-.54-.22c-.2-.08-.38-.17-.55-.29-.16-.12-.3-.27-.41-.46a1.7 1.7 0 0 1-.17-.8c0-.28.06-.54.17-.75.1-.2.25-.37.45-.5.18-.14.4-.25.64-.3.24-.07.5-.11.75-.11zm-11.93.1H2.7c.24 0 .45.03.66.08.2.04.39.14.54.24.15.1.28.25.37.43.09.18.14.41.14.66 0 .35-.1.6-.29.81-.2.2-.43.36-.75.48.17.03.33.08.48.15.15.08.28.17.39.27.1.11.2.24.27.4a1.74 1.74 0 0 1-.05 1.21c-.09.21-.22.39-.37.54a1.8 1.8 0 0 1-1.28.46H.85Zm4.79 0h1.08v3.59c0 .18.01.34.04.51.03.16.08.31.15.43.08.12.17.23.3.3a.9.9 0 0 0 .49.11c.19 0 .36-.03.47-.1a.95.95 0 0 0 .3-.3c.08-.13.12-.28.15-.44.03-.17.05-.35.05-.51V4.63h1.08V8.3c-.02.68-.2 1.22-.54 1.6-.34.37-.86.56-1.53.56-.69 0-1.21-.19-1.54-.57-.33-.37-.5-.91-.5-1.59Zm-3.7.83v1.56h.52a.9.9 0 0 0 .62-.21.85.85 0 0 0 .23-.63c0-.24-.05-.42-.19-.54a.84.84 0 0 0-.57-.18Zm0 2.35v1.73h.7c.28 0 .5-.09.65-.26a.98.98 0 0 0 .2-.64.8.8 0 0 0-.22-.6.8.8 0 0 0-.6-.23z"/>
</svg>