<svg xmlns="http://www.w3.org/2000/svg" xml:space="preserve" viewBox="0 0 225 225"><path d="M7.5 0C3.77-.003.003 3.77 0 7.5c-.002 3.731 3.76 7.498 7.49 7.5 3.73.002 7.508-3.76 7.51-7.49C15.003 3.78 11.23.003 7.5 0Zm4.876 4.828c.19 0 .36.009.54.036l.54.108-.189.756a2.304 2.304 0 0 0-1.188-.135.657.657 0 0 0-.477.324.855.855 0 0 0-.063.36c0 .18.054.333.144.44.108.109.234.19.387.27.144.064.306.136.495.199.18.072.342.153.504.26.36.256.563.677.54 1.117.012.475-.206.927-.585 1.215-.18.135-.378.234-.612.288-.225.063-.45.09-.71.09l-.577-.018a2.529 2.529 0 0 1-.558-.126l.018-.783c.144.063.306.117.468.144.18.027.333.045.495.045.249-.001.495-.057.72-.162a.72.72 0 0 0 .225-.243.846.846 0 0 0 .09-.396.668.668 0 0 0-.153-.441.927.927 0 0 0-.36-.261 8.883 8.883 0 0 0-.486-.198 2.357 2.357 0 0 1-.495-.261 1.371 1.371 0 0 1-.369-.414 1.53 1.53 0 0 1-.153-.72c0-.252.054-.486.153-.675.09-.18.225-.333.405-.45.162-.126.36-.225.576-.27a2.45 2.45 0 0 1 .675-.1zm-10.737.09h1.665c.216 0 .405.027.594.072.18.036.351.126.486.216s.252.225.333.387c.081.162.126.369.126.594 0 .315-.09.54-.26.729a1.82 1.82 0 0 1-.676.432c.153.027.297.072.432.135.135.072.252.153.351.243.09.099.18.216.243.36.116.356.1.743-.045 1.089a1.555 1.555 0 0 1-.333.486 1.62 1.62 0 0 1-1.152.414H1.64zm4.311 0h.972v3.23c0 .163.01.307.036.46.027.144.072.279.135.387a.776.776 0 0 0 .27.27.81.81 0 0 0 .441.099c.171 0 .324-.027.423-.09a.855.855 0 0 0 .27-.27c.072-.117.108-.252.135-.396.027-.153.045-.315.045-.46v-3.23h.972V8.22c-.018.612-.18 1.098-.486 1.44-.306.333-.774.504-1.377.504-.62 0-1.089-.171-1.386-.513-.297-.333-.45-.82-.45-1.431zm-3.33.747v1.404h.468a.81.81 0 0 0 .558-.19.765.765 0 0 0 .207-.566c0-.216-.045-.378-.17-.486a.756.756 0 0 0-.514-.162zm0 2.115v1.557h.63c.252 0 .45-.081.585-.234a.882.882 0 0 0 .18-.576.72.72 0 0 0-.198-.54.72.72 0 0 0-.54-.207z"/></svg>
