<?xml version="1.0" encoding="UTF-8" standalone="no"?>
<svg
   id="entrance-alt1"
   width="15"
   height="15"
   viewBox="0 0 15 15"
   version="1.1"
   xmlns="http://www.w3.org/2000/svg"
   xmlns:svg="http://www.w3.org/2000/svg">
  <defs
     id="defs1" />
  <path
     id="path1"
     style="display:inline"
     d="M 5.5 1 C 4.8333343 1 4.8333343 2 5.5 2 L 11.5 2 C 11.776142 2 12 2.2238579 12 2.5 L 12 12.5 C 12 12.776142 11.776142 13 11.5 13 L 5.25 13 C 4.5833343 13 4.5833343 14 5.25 14 L 12 14 C 12.552284 14 13 13.552284 13 13 L 13 2 C 13 1.4477159 12.552284 1 12 1 L 5.5 1 z M 5.1113281 4.5058594 C 4.9873971 4.4977312 4.8560969 4.5405067 4.7382812 4.6542969 L 2.0722656 7.3300781 C 1.9743367 7.42776 2.0722656 7.6855469 2.0722656 7.6855469 L 4.7382812 10.361328 C 5.209544 10.816489 5.9004732 10.125559 5.4453125 9.6542969 L 3.8007812 8 L 10.5 8 C 11.166666 8 11.166666 7 10.5 7 L 3.8007812 7 L 5.4453125 5.3613281 C 5.7866831 5.0078812 5.4831213 4.5302438 5.1113281 4.5058594 z " />
</svg>
