<svg xmlns="http://www.w3.org/2000/svg" viewBox="0 0 15 15">
  <path d="M10.54 3.82c.25-.04.49.14.52.39a.46.46 0 0 1-.39.52.46.46 0 0 1-.13-.91zm-.72-.12a.44.44 0 1 1-.87.13.44.44 0 0 1 .37-.5c.24-.03.47.13.5.37zm-1.24-.5a.42.42 0 1 1-.83.12.42.42 0 0 1 .35-.48c.23-.03.45.13.48.36zm-1.24-.5a.4.4 0 1 1-.8.12.4.4 0 1 1 .8-.12ZM6.1 2.19c.04.21-.11.4-.32.44a.39.39 0 0 1-.44-.33.4.4 0 0 1 .33-.43c.2-.03.4.11.43.32zm-1.23-.5c.02.2-.11.38-.31.41a.36.36 0 0 1-.42-.3.37.37 0 0 1 .31-.42c.2-.03.39.11.42.3zM3.23.89c.19-.02.37.1.4.3.02.18-.1.36-.3.39a.34.34 0 0 1-.4-.3.35.35 0 0 1 .3-.39zm-.85.92a.34.34 0 1 1 .69-.03c0 .18-.14.35-.33.35a.34.34 0 0 1-.36-.32zm1.66.68c.01.2-.15.38-.35.38a.37.37 0 0 1-.39-.35c0-.2.15-.37.36-.38.2-.01.37.14.38.35zm.97.71a.4.4 0 0 1-.37.42.4.4 0 1 1-.04-.8.4.4 0 0 1 .41.38zm.97.72a.43.43 0 0 1-.85.04.43.43 0 1 1 .85-.04zm.55 1.18a.45.45 0 1 1 .43-.47.45.45 0 0 1-.43.47zm-4.7-2.77a.34.34 0 0 1 .36-.32c.19 0 .33.16.32.35 0 .2-.17.34-.36.33a.34.34 0 0 1-.32-.36zm1.04 1.33a.37.37 0 1 1 .03-.73.37.37 0 0 1-.03.73zm.71.96a.38.38 0 0 1-.37-.4c.01-.22.2-.38.4-.37a.39.39 0 1 1-.03.77zm.71.97a.4.4 0 1 1 .04-.81c.23 0 .4.2.4.42a.43.43 0 0 1-.44.39zm.72.96a.43.43 0 0 1-.41-.45.43.43 0 1 1 .4.45zm.28.5a.45.45 0 1 1 .9.04.45.45 0 0 1-.9-.04zm-4.02-4.2c-.03.2.1.36.3.4.18.03.36-.11.39-.3a.34.34 0 0 0-.3-.39.34.34 0 0 0-.39.3zm1.2 1.28a.37.37 0 1 0-.73-.1.37.37 0 1 0 .72.1zm.5 1.18a.39.39 0 1 0-.77-.12.39.39 0 0 0 .77.12zm.5 1.18a.42.42 0 0 0-.34-.47.41.41 0 1 0 .35.47zm.51 1.17a.43.43 0 1 0-.86-.12c-.03.24.13.45.37.49.24.03.46-.13.5-.37zm-.4 1.05c-.03.25.14.48.4.52.24.04.48-.15.5-.39a.45.45 0 0 0-.38-.52.45.45 0 0 0-.51.39ZM.49 2.14l.41.42L2.91.49 2.5.07l-.91.35L1.16 0 .3.84l.42.42Zm6.16 10.35c0 .19.15.43.34.43h.8c.19 0 .43-.24.43-.42v-1.47c0-.19-.24-.42-.43-.42h-.8c-.17 0-.32.22-.34.39 1.15 0 1.15 1.5 0 1.5zm-.72-3.64c.18-.18.44-.29.71-.29h3.4l3.43-3.43c.74-.74 1.7.22.96.95l-3.75 3.77V15H6.16v-2.5H4.12a.77.77 0 0 1-.6-1.25zm2.35-.56a1.73 1.73 0 1 0 0-3.45 1.73 1.73 0 0 0 0 3.45z"/>
</svg>
