<?xml version="1.0" encoding="UTF-8" standalone="no"?>
<svg
   viewBox="0 0 500 500"
   version="1.1"
   id="svg2"
   sodipodi:docname="sbahn.svg"
   inkscape:version="1.4 (e7c3feb1, 2024-10-09)"
   xmlns:inkscape="http://www.inkscape.org/namespaces/inkscape"
   xmlns:sodipodi="http://sodipodi.sourceforge.net/DTD/sodipodi-0.dtd"
   xmlns="http://www.w3.org/2000/svg"
   xmlns:svg="http://www.w3.org/2000/svg">
  <defs
     id="defs2" />
  <sodipodi:namedview
     id="namedview2"
     pagecolor="#ffffff"
     bordercolor="#000000"
     borderopacity="0.25"
     inkscape:showpageshadow="2"
     inkscape:pageopacity="0.0"
     inkscape:pagecheckerboard="0"
     inkscape:deskcolor="#d1d1d1"
     inkscape:zoom="0.65034042"
     inkscape:cx="194.51351"
     inkscape:cy="279.0846"
     inkscape:window-width="1312"
     inkscape:window-height="870"
     inkscape:window-x="0"
     inkscape:window-y="25"
     inkscape:window-maximized="0"
     inkscape:current-layer="svg2" />
  <g
     fill-rule="evenodd"
     clip-rule="evenodd"
     id="g2">
    <path
       id="path1"
       inkscape:label="path1"
       d="M 250 0 C 112.1 0 0 112.1 0 250 C 0 387.9 112.1 500 250 500 C 387.9 500 500 387.9 500 250 C 500 112.1 387.9 0 250 0 z M 242.69922 54.300781 C 299.19922 54.300781 349.79961 72.8 390.09961 104 L 390.09961 169.59961 C 355.29961 131.99961 302.90039 99 241.40039 99 C 206.60039 99 186.69922 117.49922 186.69922 139.19922 C 186.69922 230.59922 414.09961 166.4 414.09961 316.5 C 414.09961 377.1 355.30078 447.59961 256.30078 447.59961 C 201.10078 447.59961 137.39961 422.79961 102.59961 391.59961 L 102.59961 312.90039 C 135.59961 360.40039 195.70078 397 256.30078 397 C 293.40078 397 323.19922 375.79961 323.19922 353.09961 C 323.19922 267.69961 99.400391 320.49922 99.400391 173.19922 C 99.400391 95.899219 174.89922 54.300781 242.69922 54.300781 z " />
  </g>
</svg>
