<svg xmlns="http://www.w3.org/2000/svg" viewBox="0 0 225 225"><path fill-rule="evenodd" d="M7.5 0C3.772 0 0 3.772 0 7.5S3.772 15 7.5 15 15 11.228 15 7.5 11.228 0 7.5 0Zm-.198 2.217c1.53 0 2.889.495 3.978 1.341v1.773a5.589 5.589 0 0 0-4.014-1.908c-.936 0-1.476.495-1.476 1.08 0 2.475 6.138.738 6.138 4.788 0 1.638-1.584 3.546-4.257 3.546a6.813 6.813 0 0 1-4.149-1.512V9.201a5.31 5.31 0 0 0 4.14 2.268c1.008 0 1.818-.576 1.818-1.188 0-2.304-6.048-.882-6.048-4.86 0-2.079 2.043-3.204 3.87-3.204z" clip-rule="evenodd"/></svg>
