<?xml version="1.0" encoding="UTF-8" standalone="no"?>
<svg
   width="15"
   height="15"
   viewBox="0 0 15 15"
   id="toilet"
   version="1.1"
   xmlns="http://www.w3.org/2000/svg"
   xmlns:svg="http://www.w3.org/2000/svg">
  <defs
     id="defs1" />
  <path
     d="m 6,1.5 c 0,1.9999991 3,1.9999991 3,0 0,-1.99999913 -3,-1.99999913 -3,0 z M 6.29,4 C 5.931201,4.0001157 5.599964,4.1924469 5.422,4.504 L 3.566,7.752 C 3.213388,8.3365114 4.109439,8.8485407 4.434,8.248 L 5.846,5.776 C 5.216696,7.5123649 4.601343,9.2537543 4,11 h 2 v 2.5 c 0,0.666666 1,0.666666 1,0 V 11 h 1 v 2.5 c 0,0.666666 1,0.666666 1,0 V 11 h 2 L 9.103,5.687 10.566,8.248 c 0.324561,0.6005407 1.220612,0.088511 0.868,-0.496 L 9.578,4.504 C 9.400036,4.1924469 9.068799,4.0001157 8.71,4 Z"
     id="path1" />
</svg>
