<?xml version="1.0" encoding="UTF-8" standalone="no"?>
<svg
   width="15"
   height="15"
   viewBox="0 0 15 15"
   id="toilet"
   version="1.1"
   xmlns="http://www.w3.org/2000/svg"
   xmlns:svg="http://www.w3.org/2000/svg">
  <defs
     id="defs1" />
  <path
     d="M 7.5,0 C 9.499999,0 9.499999,3 7.5,3 5.5000009,3 5.5000009,0 7.5,0 Z M 5,4.5 C 5,4.2238576 5.2238576,4 5.5,4 h 4 C 9.776142,4 10,4.2238576 10,4.5 v 5 c 0,0.666666 -1,0.666666 -1,0 v 4 c 0,0.666666 -1,0.666666 -1,0 v -4 H 7 v 4 c 0,0.666666 -1,0.666666 -1,0 v -4 c 0,0.666666 -1,0.666666 -1,0 z"
     id="path1" />
</svg>
