<svg xmlns="http://www.w3.org/2000/svg" xml:space="preserve" viewBox="0 0 15 15">
  <path d="M0 0v15h15V0Zm.53 4.98h3.06v.77H2.52v4.2h-.93v-4.2H.52Zm5 1.23.14.01.13.03-.22.8c-.09-.03-.17-.03-.24-.03a.6.6 0 0 0-.31.08c-.08.06-.16.11-.2.2-.05.1-.08.2-.1.3-.02.11-.03.23-.03.35v2h-.9V6.29h.8l.05.47c.12-.19.24-.32.38-.41a.8.8 0 0 1 .5-.14zm2.06 0c.43 0 .75.09.96.29.21.18.31.43.31.76v2.01c0 .12 0 .22.02.34l.05.35H8.1v-.01l-.06-.44c-.1.17-.22.29-.37.38-.15.09-.33.13-.54.13-.36 0-.61-.09-.8-.28-.17-.2-.26-.47-.26-.81a1 1 0 0 1 .1-.5c.07-.15.16-.27.28-.38.12-.1.28-.18.44-.22a2.19 2.19 0 0 1 .9-.06l.24.03v-.4c0-.2-.06-.34-.16-.43a.67.67 0 0 0-.46-.13 2.27 2.27 0 0 0-.87.2l-.15-.62c.18-.09.38-.14.59-.17.21-.03.42-.04.6-.04zm5.86 0c.17 0 .32.03.44.09s.22.13.31.24a1.35 1.35 0 0 1 .25.81v2.58h-.86V7.44c0-.17-.03-.3-.1-.4-.08-.12-.2-.17-.36-.17a.35.35 0 0 0-.24.08.64.64 0 0 0-.26.43l-.03.27v2.31h-.87V7.44a.7.7 0 0 0-.1-.42.45.45 0 0 0-.37-.17c-.1 0-.17.03-.25.08a.71.71 0 0 0-.26.45l-.03.27v2.3h-.88V6.29h.78l.06.49a1 1 0 0 1 .35-.4.95.95 0 0 1 .57-.15c.15 0 .27.01.37.04.1.03.2.07.25.13.08.05.14.11.18.19.05.06.1.13.12.19a.99.99 0 0 1 .33-.4c.15-.11.36-.17.6-.17zm-5.9 2.07c-.21 0-.36.06-.45.18a.72.72 0 0 0-.05.81c.07.1.2.15.35.15.16 0 .31-.06.43-.17a.5.5 0 0 0 .18-.4v-.51h.02l-.2-.04a1.54 1.54 0 0 0-.28-.02z"/>
</svg>