<svg xmlns="http://www.w3.org/2000/svg" width="15" height="15" xml:space="preserve" viewBox="0 0 225 225"><path d="M0 0v15h15V0Zm1.227 5.232h2.754v.693h-.963v3.78h-.837v-3.78h-.963Zm4.5 1.107.126.009.117.027-.198.72c-.081-.027-.153-.027-.216-.027a.54.54 0 0 0-.279.072c-.072.054-.144.099-.18.18-.045.09-.072.18-.09.27a1.784 1.784 0 0 0-.027.315v1.8h-.81V6.411h.72l.045.423c.108-.171.216-.288.342-.369a.72.72 0 0 1 .45-.126Zm1.854 0c.387 0 .675.081.864.261.189.162.279.387.279.684v1.809c0 .108 0 .198.018.306l.045.315H8.04v-.009l-.054-.396a.936.936 0 0 1-.333.342.926.926 0 0 1-.486.117c-.324 0-.549-.081-.72-.252-.153-.18-.234-.423-.234-.729a.9.9 0 0 1 .09-.45c.063-.135.144-.243.252-.342.108-.09.252-.162.396-.198.263-.074.54-.092.81-.054l.216.027v-.36c0-.18-.054-.306-.144-.387a.603.603 0 0 0-.414-.117c-.27.008-.536.069-.783.18l-.135-.558c.162-.081.342-.126.531-.153.189-.027.378-.036.54-.036Zm5.274 0c.153 0 .288.027.396.081a.806.806 0 0 1 .279.216c.151.213.23.468.225.729v2.322h-.774V7.446c0-.153-.027-.27-.09-.36-.072-.108-.18-.153-.324-.153a.315.315 0 0 0-.216.072.576.576 0 0 0-.234.387l-.027.243v2.079h-.783V7.446a.63.63 0 0 0-.09-.378.405.405 0 0 0-.333-.153.394.394 0 0 0-.225.072.639.639 0 0 0-.234.405l-.027.243v2.07h-.792V6.411h.702l.054.441a.855.855 0 0 1 .828-.495c.135 0 .243.009.333.036.09.027.18.063.225.117a.422.422 0 0 1 .162.171.6.6 0 0 1 .108.171.891.891 0 0 1 .297-.36.913.913 0 0 1 .54-.153zm-5.31 1.863c-.189 0-.324.054-.405.162a.648.648 0 0 0-.045.729c.063.09.18.135.315.135a.568.568 0 0 0 .387-.153.45.45 0 0 0 .162-.36v-.459h.018l-.18-.036a1.386 1.386 0 0 0-.252-.018Z"/></svg>
