<svg viewBox="0 0 647 340" xmlns="http://www.w3.org/2000/svg" xml:space="preserve" style="fill-rule:evenodd;clip-rule:evenodd;stroke-linecap:round;stroke-linejoin:round;stroke-miterlimit:10"><title>Studentische Hilfskraft bei NavigaTUM gesucht</title>
<path d="M10 337.6S-49 130 125.8 30.9s233 72.7 347.6 64.8C588 88 617 128.8 636 183.4c28.3 81.6-12.3 155-12.3 155l-613.8-.8Z" style="fill:#f3f9ff;fill-rule:nonzero"/>
<path d="M586.7 98.4c-1.7 0-3.2.4-4.7 1a7 7 0 0 0 .3-2 8.5 8.5 0 0 0-16.6-2.4 19.2 19.2 0 1 0-38 4.5 13.2 13.2 0 0 0-23.3 8.5c0 7.3 6 13.2 13.2 13.2h69a11.4 11.4 0 1 0 0-22.8M82.3 87.5c-1.7 0-3.2.3-4.7 1A8.5 8.5 0 0 0 61.3 84a19.2 19.2 0 1 0-38 4.4A13.2 13.2 0 0 0 0 97.1c0 7.3 6 13.2 13.2 13.2h69.1a11.4 11.4 0 1 0 0-22.8M437 39c-1.3 0-2.5.3-3.7.8a6.8 6.8 0 0 0-6.6-8.4c-3 0-5.6 2-6.5 4.9a15.4 15.4 0 1 0-30.4 3.6 10.6 10.6 0 0 0-18.6 6.8c0 5.9 4.7 10.6 10.5 10.6h55.4a9.2 9.2 0 1 0 0-18.3" style="fill:#e1f1ff;fill-rule:nonzero"/>
<path d="M566.2 211.3 545 281a27 27 0 1 0 51.7 0l-21.1-69.7a5 5 0 0 0-9.4 0" style="fill:#9abce4;fill-rule:nonzero"/>
<path d="M570.9 337.6V235" style="fill:none;fill-rule:nonzero;stroke:#7ca5d1;stroke-width:2px"/>
<path d="m613.5 248.2-15 49.4a19.1 19.1 0 1 0 36.6 0l-15-49.4a3.5 3.5 0 0 0-6.6 0" style="fill:#9abce4;fill-rule:nonzero"/>
<path d="M616.8 337.6V265" style="fill:none;fill-rule:nonzero;stroke:#7ca5d1;stroke-width:1.42px"/>
<path d="M111.3 316.9h-.5a14.2 14.2 0 0 0-26.2 1.4c-.8-.2-1.7-.2-2.5-.2a14.2 14.2 0 0 0-14.2 14.5h57.5l.1-1.5c0-7.9-6.3-14.2-14.2-14.2" style="fill:#9abce4;fill-rule:nonzero"/>
<path d="M79.8 322.6h-.6A14.2 14.2 0 0 0 53 324l-2.5-.2c-7.8 0-14.2 6.3-14.2 14.2v.4H94v-1.6c0-7.8-6.3-14.2-14.1-14.2" style="fill:#c2d7ef;fill-rule:nonzero"/>
<path d="M24.6 211.3 3.4 281a27 27 0 1 0 51.7 0L34 211.3a5 5 0 0 0-9.4 0" style="fill:#9abce4;fill-rule:nonzero"/>
<path d="M29.3 337.6V235" style="fill:none;fill-rule:nonzero;stroke:#7ca5d1;stroke-width:2px"/>
<path style="fill:#7ca5d1" d="M89.5 159.3h14v26.1h-14z"/>
<path style="fill:#9abce4" d="M91.1 161H102v3.5H91.1zm0 18.9H102v3.5H91.1zm0-13.6H102v12.1H91.1z"/>
<path style="fill:#7ca5d1" d="M526.5 159.3h14v26.1h-14z"/>
<path style="fill:#9abce4" d="M528.1 161H539v3.5h-10.9zm0 18.9H539v3.5h-10.9zm0-13.6H539v12.1h-10.9z"/>
<path style="fill:#7ca5d1" d="M85.5 146.6h459.7v3.3H85.5z"/>
<path d="M531.5 159.3v26h12v9.4H87.3v-9.3h11.6v-26.1H87.3V150h456.2v9.3h-12Z" style="fill:#c2d7ef;fill-rule:nonzero"/>
<path style="fill:#7ca5d1" d="M105.7 159.3h14v26.1h-14z"/>
<path style="fill:#9abce4" d="M107.3 161h10.9v3.5h-10.9zm0 18.9h10.9v3.5h-10.9zm0-13.6h10.9v12.1h-10.9z"/>
<path style="fill:#7ca5d1" d="M127 159.3h14v26.1h-14z"/>
<path style="fill:#9abce4" d="M128.6 161h10.9v3.5h-10.9zm0 18.9h10.9v3.5h-10.9zm0-13.6h10.9v12.1h-10.9z"/>
<path style="fill:#7ca5d1" d="M148.2 159.3h14v26.1h-14z"/>
<path style="fill:#9abce4" d="M149.8 161h10.9v3.5h-10.9zm0 18.9h10.9v3.5h-10.9zm0-13.6h10.9v12.1h-10.9z"/>
<path style="fill:#7ca5d1" d="M169.4 159.3h14v26.1h-14z"/>
<path style="fill:#9abce4" d="M171 161h10.9v3.5H171zm0 18.9h10.9v3.5H171zm0-13.6h10.9v12.1H171z"/>
<path style="fill:#7ca5d1" d="M190.6 159.3h14v26.1h-14z"/>
<path style="fill:#9abce4" d="M192.2 161h10.9v3.5h-10.9zm0 18.9h10.9v3.5h-10.9zm0-13.6h10.9v12.1h-10.9z"/>
<path style="fill:#7ca5d1" d="M211.8 159.3h14v26.1h-14z"/>
<path style="fill:#9abce4" d="M213.4 161h10.9v3.5h-10.9zm0 18.9h10.9v3.5h-10.9zm0-13.6h10.9v12.1h-10.9z"/>
<path style="fill:#7ca5d1" d="M233 159.3h14v26.1h-14z"/>
<path style="fill:#9abce4" d="M234.6 161h10.9v3.5h-10.9zm0 18.9h10.9v3.5h-10.9zm0-13.6h10.9v12.1h-10.9z"/>
<path style="fill:#7ca5d1" d="M254.2 159.3h14v26.1h-14z"/>
<path style="fill:#9abce4" d="M255.8 161h10.9v3.5h-10.9zm0 18.9h10.9v3.5h-10.9zm0-13.6h10.9v12.1h-10.9z"/>
<path style="fill:#7ca5d1" d="M275.4 159.3h14v26.1h-14z"/>
<path style="fill:#9abce4" d="M277 161h10.9v3.5H277zm0 18.9h10.9v3.5H277zm0-13.6h10.9v12.1H277z"/>
<path style="fill:#7ca5d1" d="M296.7 159.3h14v26.1h-14z"/>
<path style="fill:#9abce4" d="M298.3 161h10.9v3.5h-10.9zm0 18.9h10.9v3.5h-10.9zm0-13.6h10.9v12.1h-10.9z"/>
<path style="fill:#7ca5d1" d="M317.9 159.3h14v26.1h-14z"/>
<path style="fill:#9abce4" d="M319.5 161h10.9v3.5h-10.9zm0 18.9h10.9v3.5h-10.9zm0-13.6h10.9v12.1h-10.9z"/>
<path style="fill:#7ca5d1" d="M339.1 159.3h14v26.1h-14z"/>
<path style="fill:#9abce4" d="M340.7 161h10.9v3.5h-10.9zm0 18.9h10.9v3.5h-10.9zm0-13.6h10.9v12.1h-10.9z"/>
<path style="fill:#7ca5d1" d="M360.3 159.3h14v26.1h-14z"/>
<path style="fill:#9abce4" d="M361.9 161h10.9v3.5h-10.9zm0 18.9h10.9v3.5h-10.9zm0-13.6h10.9v12.1h-10.9z"/>
<path style="fill:#7ca5d1" d="M381.5 159.3h14v26.1h-14z"/>
<path style="fill:#9abce4" d="M383.1 161H394v3.5h-10.9zm0 18.9H394v3.5h-10.9zm0-13.6H394v12.1h-10.9z"/>
<path style="fill:#7ca5d1" d="M402.7 159.3h14v26.1h-14z"/>
<path style="fill:#9abce4" d="M404.3 161h10.9v3.5h-10.9zm0 18.9h10.9v3.5h-10.9zm0-13.6h10.9v12.1h-10.9z"/>
<path style="fill:#7ca5d1" d="M423.9 159.3h14v26.1h-14z"/>
<path style="fill:#9abce4" d="M425.5 161h10.9v3.5h-10.9zm0 18.9h10.9v3.5h-10.9zm0-13.6h10.9v12.1h-10.9z"/>
<path style="fill:#7ca5d1" d="M445.1 159.3h14v26.1h-14z"/>
<path style="fill:#9abce4" d="M446.7 161h10.9v3.5h-10.9zm0 18.9h10.9v3.5h-10.9zm0-13.6h10.9v12.1h-10.9z"/>
<path style="fill:#7ca5d1" d="M466.4 159.3h14v26.1h-14z"/>
<path style="fill:#9abce4" d="M468 161h10.9v3.5H468zm0 18.9h10.9v3.5H468zm0-13.6h10.9v12.1H468z"/>
<path style="fill:#7ca5d1" d="M487.6 159.3h14v26.1h-14z"/>
<path style="fill:#9abce4" d="M489.2 161h10.9v3.5h-10.9zm0 18.9h10.9v3.5h-10.9zm0-13.6h10.9v12.1h-10.9z"/>
<path style="fill:#7ca5d1" d="M508.8 159.3h14v26.1h-14z"/>
<path style="fill:#9abce4" d="M510.4 161h10.9v3.5h-10.9zm0 18.9h10.9v3.5h-10.9zm0-13.6h10.9v12.1h-10.9zM93.5 194.7h443.2v20.7H93.5z"/>
<path style="fill:#9abce4" d="M101.7 194.7h427.2v20.7H101.7z"/>
<path style="fill:#7ca5d1" d="M104.7 196.5h16.9v18.9h-16.9z"/>
<path style="fill:#9abce4" d="M106.5 198.6h13.2v14.7h-13.2z"/>
<path style="fill:#c2d7ef" d="M98.6 194.7h3.1v13.9h-3.1z"/>
<path style="fill:#adccea" d="M98.6 208.5h3.1v6.9h-3.1z"/>
<path style="fill:#c2d7ef" d="M119.7 194.7h3.1v13.9h-3.1z"/>
<path style="fill:#adccea" d="M119.7 208.5h3.1v6.9h-3.1z"/>
<path style="fill:#7ca5d1" d="M125.9 196.5h16.9v18.9h-16.9z"/>
<path style="fill:#9abce4" d="M127.8 198.6H141v14.7h-13.2z"/>
<path style="fill:#c2d7ef" d="M140.9 194.7h3.1v13.9h-3.1z"/>
<path style="fill:#adccea" d="M140.9 208.5h3.1v6.9h-3.1z"/>
<path style="fill:#7ca5d1" d="M147.1 196.5H164v18.9h-16.9z"/>
<path style="fill:#9abce4" d="M149 198.6h13.2v14.7H149z"/>
<path style="fill:#c2d7ef" d="M162.1 194.7h3.1v13.9h-3.1z"/>
<path style="fill:#adccea" d="M162.1 208.5h3.1v6.9h-3.1z"/>
<path style="fill:#7ca5d1" d="M168.3 196.5h16.9v18.9h-16.9z"/>
<path style="fill:#9abce4" d="M170.2 198.6h13.2v14.7h-13.2z"/>
<path style="fill:#c2d7ef" d="M183.4 194.7h3.1v13.9h-3.1z"/>
<path style="fill:#adccea" d="M183.4 208.5h3.1v6.9h-3.1z"/>
<path style="fill:#7ca5d1" d="M189.5 196.5h16.9v18.9h-16.9z"/>
<path style="fill:#9abce4" d="M191.4 198.6h13.2v14.7h-13.2z"/>
<path style="fill:#c2d7ef" d="M204.6 194.7h3.1v13.9h-3.1z"/>
<path style="fill:#adccea" d="M204.6 208.5h3.1v6.9h-3.1z"/>
<path style="fill:#7ca5d1" d="M210.7 196.5h16.9v18.9h-16.9z"/>
<path style="fill:#9abce4" d="M212.6 198.6h13.2v14.7h-13.2z"/>
<path style="fill:#c2d7ef" d="M225.8 194.7h3.1v13.9h-3.1z"/>
<path style="fill:#adccea" d="M225.8 208.5h3.1v6.9h-3.1z"/>
<path style="fill:#7ca5d1" d="M232 196.5h16.9v18.9H232z"/>
<path style="fill:#9abce4" d="M233.8 198.6H247v14.7h-13.2z"/>
<path style="fill:#c2d7ef" d="M247 194.7h3.1v13.9H247z"/>
<path style="fill:#adccea" d="M247 208.5h3.1v6.9H247z"/>
<path style="fill:#7ca5d1" d="M253.2 196.5h16.9v18.9h-16.9z"/>
<path style="fill:#9abce4" d="M255 198.6h13.2v14.7H255z"/>
<path style="fill:#c2d7ef" d="M268.2 194.7h3.1v13.9h-3.1z"/>
<path style="fill:#adccea" d="M268.2 208.5h3.1v6.9h-3.1z"/>
<path style="fill:#7ca5d1" d="M274.4 196.5h16.9v18.9h-16.9z"/>
<path style="fill:#9abce4" d="M276.2 198.6h13.2v14.7h-13.2z"/>
<path style="fill:#c2d7ef" d="M289.4 194.7h3.1v13.9h-3.1z"/>
<path style="fill:#adccea" d="M289.4 208.5h3.1v6.9h-3.1z"/>
<path style="fill:#7ca5d1" d="M295.6 196.5h16.9v18.9h-16.9z"/>
<path style="fill:#9abce4" d="M297.5 198.6h13.2v14.7h-13.2z"/>
<path style="fill:#7ca5d1" d="M507.4 196.5h16.9v18.9h-16.9z"/>
<path style="fill:#9abce4" d="M509.3 198.6h13.2v14.7h-13.2z"/>
<path style="fill:#c2d7ef" d="M527.3 194.7h3.1v13.9h-3.1z"/>
<path style="fill:#adccea" d="M527.3 208.5h3.1v6.9h-3.1z"/>
<path style="fill:#c2d7ef" d="M506.2 194.7h3.1v13.9h-3.1z"/>
<path style="fill:#adccea" d="M506.2 208.5h3.1v6.9h-3.1z"/>
<path style="fill:#7ca5d1" d="M486.2 196.5h16.9v18.9h-16.9z"/>
<path style="fill:#9abce4" d="M488.1 198.6h13.2v14.7h-13.2z"/>
<path style="fill:#c2d7ef" d="M485 194.7h3.1v13.9H485z"/>
<path style="fill:#adccea" d="M485 208.5h3.1v6.9H485z"/>
<path style="fill:#7ca5d1" d="M465 196.5h16.9v18.9H465z"/>
<path style="fill:#9abce4" d="M466.9 198.6h13.2v14.7h-13.2z"/>
<path style="fill:#c2d7ef" d="M463.8 194.7h3.1v13.9h-3.1z"/>
<path style="fill:#adccea" d="M463.8 208.5h3.1v6.9h-3.1z"/>
<path style="fill:#7ca5d1" d="M443.8 196.5h16.9v18.9h-16.9z"/>
<path style="fill:#9abce4" d="M445.7 198.6h13.2v14.7h-13.2z"/>
<path style="fill:#c2d7ef" d="M442.6 194.7h3.1v13.9h-3.1z"/>
<path style="fill:#adccea" d="M442.6 208.5h3.1v6.9h-3.1z"/>
<path style="fill:#7ca5d1" d="M422.6 196.5h16.9v18.9h-16.9z"/>
<path style="fill:#9abce4" d="M424.5 198.6h13.2v14.7h-13.2z"/>
<path style="fill:#c2d7ef" d="M421.4 194.7h3.1v13.9h-3.1z"/>
<path style="fill:#adccea" d="M421.4 208.5h3.1v6.9h-3.1z"/>
<path style="fill:#7ca5d1" d="M401.4 196.5h16.9v18.9h-16.9z"/>
<path style="fill:#9abce4" d="M403.2 198.6h13.2v14.7h-13.2z"/>
<path style="fill:#c2d7ef" d="M400.1 194.7h3.1v13.9h-3.1z"/>
<path style="fill:#adccea" d="M400.1 208.5h3.1v6.9h-3.1z"/>
<path style="fill:#7ca5d1" d="M380.2 196.5h16.9v18.9h-16.9z"/>
<path style="fill:#9abce4" d="M382 198.6h13.2v14.7H382z"/>
<path style="fill:#c2d7ef" d="M378.9 194.7h3.1v13.9h-3.1z"/>
<path style="fill:#adccea" d="M378.9 208.5h3.1v6.9h-3.1z"/>
<path style="fill:#7ca5d1" d="M359 196.5h16.9v18.9H359z"/>
<path style="fill:#9abce4" d="M360.8 198.6H374v14.7h-13.2z"/>
<path style="fill:#c2d7ef" d="M357.7 194.7h3.1v13.9h-3.1z"/>
<path style="fill:#adccea" d="M357.7 208.5h3.1v6.9h-3.1z"/>
<path style="fill:#7ca5d1" d="M337.7 196.5h16.9v18.9h-16.9z"/>
<path style="fill:#9abce4" d="M339.6 198.6h13.2v14.7h-13.2z"/>
<path style="fill:#c2d7ef" d="M336.5 194.7h3.1v13.9h-3.1z"/>
<path style="fill:#adccea" d="M336.5 208.5h3.1v6.9h-3.1z"/>
<path style="fill:#7ca5d1" d="M316.5 196.5h16.9v18.9h-16.9z"/>
<path style="fill:#9abce4" d="M318.4 198.6h13.2v14.7h-13.2z"/>
<path style="fill:#c2d7ef" d="M312.5 194.7h4v13.9h-4z"/>
<path style="fill:#adccea" d="M312.5 208.5h4v6.9h-4z"/>
<path style="fill:#e3eefa" d="M93.5 215.4h443.2v113H93.5z"/>
<path style="fill:#9abce4" d="M93.5 328.4h443.2v9.9H93.5z"/>
<path style="fill:#7ca5d1" d="M261.3 296.1h29.6v42.3h-29.6zm38.7 0h29.6v42.3H300zm38.7 0h29.6v42.3h-29.6z"/>
<path style="fill:#adccea" d="M232.4 301h164.3v4.6H232.4z"/>
<path d="M250 281.3h-2.4v7.7h-.8v-7.7h-2.4v-.7h5.6v.7Zm5.7 7.7h-4.2v-8.4h4v.7h-3.3v3.1h3v.7h-3v3.2h3.5v.7Zm7.6-.4a5.5 5.5 0 0 1-2.3.5 4 4 0 0 1-2.9-1.1c-.7-.8-1-1.8-1-3 0-1.4.3-2.5 1.1-3.3a4 4 0 0 1 3-1.3 5.3 5.3 0 0 1 2 .5l-.2.6a4.3 4.3 0 0 0-1.8-.4c-1 0-1.8.4-2.4 1-.7.7-1 1.6-1 2.8 0 1 .3 2 1 2.6a3 3 0 0 0 2.2 1 4.5 4.5 0 0 0 2-.5l.3.6Zm7.7.4h-.7v-4h-4.6v4h-.7v-8.4h.7v3.8h4.6v-3.8h.8v8.4Zm9 0h-.7l-4.8-6.8a3.7 3.7 0 0 1-.3-.5v7.3h-.7v-8.4h.8l4.6 6.7a8 8 0 0 1 .4.5 9 9 0 0 1 0-1v-6.2h.7v8.4Zm2.5-8.4h.7v8.4h-.7zm2.5 7.7.4-.5 1 .5 1.2.2c.5 0 1-.2 1.3-.5.4-.3.5-.7.5-1.2 0-.4-.1-.8-.4-1-.3-.3-.7-.6-1.3-.8-.8-.2-1.4-.6-1.8-1-.3-.3-.5-.7-.5-1.3 0-.7.2-1.2.7-1.6.4-.5 1-.7 1.8-.7a3.8 3.8 0 0 1 2 .6l-.3.6-.8-.4h-1c-.5 0-.9 0-1.2.3-.3.3-.5.6-.5 1.1 0 .4.2.7.5 1 .2.3.7.5 1.4.7.8.3 1.3.6 1.7 1 .3.4.5.8.5 1.4 0 .7-.2 1.3-.7 1.8a3 3 0 0 1-2 .6c-.4 0-.9 0-1.3-.2a4 4 0 0 1-1.2-.6Zm12.8.3a5.4 5.4 0 0 1-2.3.5 4 4 0 0 1-2.9-1.1c-.7-.8-1-1.8-1-3 0-1.4.3-2.5 1.1-3.3a4 4 0 0 1 3-1.3 5.3 5.3 0 0 1 2 .5l-.2.6a4.3 4.3 0 0 0-1.8-.4c-1 0-1.8.4-2.4 1-.7.7-1 1.6-1 2.8 0 1 .3 2 1 2.6a3 3 0 0 0 2.2 1 4.5 4.5 0 0 0 2-.5l.3.6Zm7.8.4h-.8v-4h-4.6v4h-.8v-8.4h.8v3.8h4.6v-3.8h.8v8.4Zm6.6 0H308v-8.4h4v.7h-3.3v3.1h3v.7h-3v3.2h3.5v.7Zm11-3.3c0 1.2-.2 2-.7 2.6-.6.6-1.3.8-2.3.8-1 0-1.7-.2-2.2-.8-.5-.5-.8-1.4-.8-2.4v-5.3h.8v5.2c0 .9.2 1.5.6 2 .3.4 1 .7 1.7.7s1.2-.3 1.6-.7c.4-.4.6-1 .6-2v-5.2h.7v5.1Zm8.8 3.3h-.6l-4.8-6.8a3.7 3.7 0 0 1-.3-.5v7.3h-.7v-8.4h.8l4.6 6.7a9.7 9.7 0 0 1 .4.5 12.9 12.9 0 0 1 0-1v-6.2h.7v8.4Zm2.5-8.4h.7v8.4h-.7zm9.3 0-3.2 8.4h-.7l-3-8.4h.8l2.4 6.7a3.5 3.5 0 0 1 .2.8v-.4l.2-.4 2.5-6.7h.8Zm5.6 8.4h-4.2v-8.4h4v.7H346v3.1h3.1v.7h-3v3.2h3.5v.7Zm7.3 0h-.9l-1.2-2.4-.7-1c-.3-.2-.5-.2-.9-.2h-1v3.6h-.7v-8.4h2.3c.7 0 1.3.2 1.8.6.5.4.7.9.7 1.6 0 .6-.2 1.1-.5 1.5-.3.4-.8.7-1.4.8l.5.4.5.8 1.5 2.7Zm-4.7-7.7v3.4h1.4c.6 0 1-.2 1.4-.5.3-.3.5-.8.5-1.3s-.1-1-.5-1.2c-.3-.3-.7-.4-1.3-.4H352Zm5.8 7 .4-.5 1 .5 1.2.2c.5 0 1-.2 1.3-.5.4-.3.5-.7.5-1.2 0-.4-.1-.8-.4-1-.3-.3-.7-.6-1.3-.8-.8-.2-1.4-.6-1.8-1-.3-.3-.5-.7-.5-1.3 0-.7.2-1.2.7-1.6.4-.5 1-.7 1.8-.7a3.8 3.8 0 0 1 2 .6l-.3.6-.8-.4h-1c-.5 0-.9 0-1.2.3-.3.3-.5.6-.5 1.1 0 .4.2.7.4 1 .3.3.8.5 1.5.7.8.3 1.3.6 1.7 1 .3.4.5.8.5 1.4 0 .7-.3 1.3-.7 1.8a3 3 0 0 1-2 .6c-.4 0-.9 0-1.3-.2a4 4 0 0 1-1.2-.6Zm7-7.7h.7v8.4h-.7zm8 .7h-2.4v7.7h-.8v-7.7h-2.4v-.7h5.6v.7Zm-.2 7.7 3.2-8.4h.8l3.2 8.4h-.9l-.9-2.5h-3.6l-1 2.5h-.8Zm2-3.2h3.2l-1.4-3.8-.1-.2-.1-.4a5.3 5.3 0 0 1-.2.6l-1.4 3.8Zm10.5-4.5h-2.4v7.7h-.7v-7.7h-2.4v-.7h5.6v.7Z" style="fill:#7ca5d1;fill-rule:nonzero"/>
<path style="fill:#7ca5d1" d="M137.4 235h19.8v36.9h-19.8z"/>
<path style="fill:#9abce4" d="M139.6 237.5H155v4.9h-15.4zm0 26.7H155v4.9h-15.4zm0-19.2H155v17.1h-15.4z"/>
<path style="fill:#7ca5d1" d="M179.7 235h19.8v36.9h-19.8z"/>
<path style="fill:#9abce4" d="M181.9 237.5h15.4v4.9h-15.4zm0 26.7h15.4v4.9h-15.4zm0-19.2h15.4v17.1h-15.4z"/>
<path style="fill:#7ca5d1" d="M221.9 235h19.8v36.9h-19.8z"/>
<path style="fill:#9abce4" d="M224.2 237.5h15.4v4.9h-15.4zm0 26.7h15.4v4.9h-15.4zm0-19.2h15.4v17.1h-15.4z"/>
<path style="fill:#7ca5d1" d="M264.2 235H284v36.9h-19.8z"/>
<path style="fill:#9abce4" d="M266.5 237.5h15.4v4.9h-15.4zm0 26.7h15.4v4.9h-15.4zm0-19.2h15.4v17.1h-15.4z"/>
<path style="fill:#7ca5d1" d="M306.5 235h19.8v36.9h-19.8z"/>
<path style="fill:#9abce4" d="M308.7 237.5h15.4v4.9h-15.4zm0 26.7h15.4v4.9h-15.4zm0-19.2h15.4v17.1h-15.4z"/>
<path style="fill:#7ca5d1" d="M348.7 235h19.8v36.9h-19.8z"/>
<path style="fill:#9abce4" d="M351 237.5h15.4v4.9H351zm0 26.7h15.4v4.9H351zm0-19.2h15.4v17.1H351z"/>
<path style="fill:#7ca5d1" d="M391 235h19.8v36.9H391z"/>
<path style="fill:#9abce4" d="M393.3 237.5h15.4v4.9h-15.4zm0 26.7h15.4v4.9h-15.4zm0-19.2h15.4v17.1h-15.4z"/>
<path style="fill:#7ca5d1" d="M433.3 235h19.8v36.9h-19.8z"/>
<path style="fill:#9abce4" d="M435.5 237.5h15.4v4.9h-15.4zm0 26.7h15.4v4.9h-15.4zm0-19.2h15.4v17.1h-15.4z"/>
<path style="fill:#7ca5d1" d="M475.5 235h19.8v36.9h-19.8z"/>
<path style="fill:#9abce4" d="M477.8 237.5h15.4v4.9h-15.4zm0 26.7h15.4v4.9h-15.4zm0-19.2h15.4v17.1h-15.4z"/>
<path style="fill:#e3eefa" d="M230.9 275.2h164.6v16.5H230.9z"/>
<path d="M600 251.6c-.3.1-.6 0-.8-.2l-.8-1.3a.5.5 0 1 1 .9-.6l.8 1.3c.2.3.1.6-.1.8m3.3 12.2-.2.1c-1.3.9-3.1.5-4-.9l-4-6.5 5-3.1 4 6.4c1 1.4.5 3.2-.8 4" style="fill:#5e9dcc;fill-rule:nonzero"/>
<path d="m599.5 256.4-.2.1c-1.4.9-3.1.5-4-.9l-3.2-5.1c-.5-.7-.3-1.7.5-2.2l1.2-.8a3 3 0 0 1 4 1l2.6 4a3 3 0 0 1-1 4" style="fill:#3070b3;fill-rule:nonzero"/>
<path d="m583.5 248.1 4.3 6 3-3.6-5-3.9-2.3 1.5Z" style="fill:#5e94d4;fill-rule:nonzero"/>
<path d="m586.5 246.4-.6 5.2-2.5-3.6 3.1-1.6Z" style="fill:#4470b2;fill-rule:nonzero"/>
<path d="M588.3 243.7a4.6 4.6 0 1 1-8.7 3.1 4.6 4.6 0 0 1 8.7-3" style="fill:#5e94d4;fill-rule:nonzero"/>
<clipPath id="b">
<path d="M582.4 241a4.6 4.6 0 1 0 3 8.6 4.6 4.6 0 0 0-3-8.6Z" clip-rule="nonzero"/>
</clipPath>

<g clip-path="url(#b)">
<path d="M579.9 242.3s.6 2.1 4.3 3.2l.8.4s2 3.3 5.1 2c0 0 1.2-4-3.6-7-3.4-2-6.6 1.4-6.6 1.4" style="fill:#0a2d57;fill-rule:nonzero"/>
</g>
<path d="m579.8 247.2-.2 1.1c0 .1.1.3.3.2l.7-.2-.8-1Zm6.9-1.9a1.5 1.5 0 1 1-3-.2 1.5 1.5 0 0 1 3 .2" style="fill:#5e94d4;fill-rule:nonzero"/>
<path d="M584.7 245.7s-.1-1 .9-1.1" style="fill:none;fill-rule:nonzero;stroke:#4470b2;stroke-width:.18px"/>
<path d="M592.5 240.7a3.1 3.1 0 1 1-6.3.1 3.1 3.1 0 0 1 6.3-.1m-11.9 5.6a.3.3 0 1 1-.5.1.3.3 0 0 1 .5-.2" style="fill:#0a2d57;fill-rule:nonzero"/>
<path d="M579.8 245.4s.4-.4 1-.1" style="fill:none;fill-rule:nonzero;stroke:#0a2d57;stroke-width:.24px"/>
<path d="M581.4 248.6s0-.4.4-.4" style="fill:none;fill-rule:nonzero;stroke:#4470b2;stroke-width:.18px"/>
<path d="m609.5 321 3.7 2.6 2.2-4-3.8-2.8-2.1 4.1Z" style="fill:#5e94d4;fill-rule:nonzero"/>
<path d="m612 323.9 3.5-5 5.3 3.6-6.7 9.4c-.3.5-1 .2-1-.3l.9-6.3-2-1.4Z" style="fill:#0a2d57;fill-rule:nonzero"/>
<path d="m598 274.6-9.8 1.7s-8.4 26.2 20.4 46.6c0 0 3.1-2.3 5.7-7 0 0-22.1-13.2-16.3-41.3" style="fill:#0c3966;fill-rule:nonzero"/>
<path d="M576 327.1v4.6h4.6v-4.8l-4.7.2Z" style="fill:#5e94d4;fill-rule:nonzero"/>
<path d="M575 331.2h6.1l.1 6.4h-11.5c-.5 0-.7-.7-.2-1l5.5-3v-2.4Z" style="fill:#0a2d57;fill-rule:nonzero"/>
<path d="m587.8 268.4.4 2s-13.6 19.5-14.3 58c0 0 4.7 1 8.8 0 0 0-.5-32.5 13-47.3 0 0 6.3-5.3 2.7-14l-10.6 1.3Z" style="fill:#114584;fill-rule:nonzero"/>
<path d="m588.3 270.4 10.8-1" style="fill:none;fill-rule:nonzero;stroke:#184a7c;stroke-width:.24px"/>
<path d="M581.6 270.2c-4.6 0-10-3.4-14.4-7.5-1.3-1.3-.6-2 .7-3.2a3.2 3.2 0 0 1 4.6-.1c3.3 3.2 6.7 4.6 9.9 4.2 6-.7 10.1-7.4 10.2-7.4a3.2 3.2 0 0 1 5.5 3.4c-.2.4-5.8 9.3-14.9 10.4l-1.6.2" style="fill:#5e94d4;fill-rule:nonzero"/>
<clipPath id="c">
<path d="M592.6 256.2s-4.3 6.7-10.2 7.4c-3.2.4-6.6-1-10-4.2a3.2 3.2 0 0 0-4.5 0c-1.3 1.4-2 2-.7 3.3 4.4 4.1 9.8 7.6 14.4 7.5.6 0 1.1 0 1.6-.2 9-1.1 14.7-10 14.9-10.4a3.2 3.2 0 0 0-5.5-3.4Z" clip-rule="nonzero"/>
</clipPath>

<g clip-path="url(#c)">
<path d="m586.6 260.8-.2 10.6 8-2.7-4.7-9.5-3.1 1.6Z" style="fill:#4470b2;fill-rule:nonzero"/>
</g>
<path d="m572.6 260.6-.1-1 .4.2-1.4-2.9-.5-.6c-.5-.3-1-.2-1.3-.2-.6 0-.4.1-.4.7-.6 0-1.9.3-2.6-2.5-.1-.5-.7-.9-1.3-.8-1 .3.6-.1.6.3a.9.9 0 0 0-1.5.7.9.9 0 0 0-1.1.8v.3c-.4.2-.4.3-.4.7v.3c.2.8.4 1 .7 1.7l.4.8c1 1.4 3.2 4.2 5.7 4.8 3.4.9 2.8-3.3 2.8-3.3" style="fill:#5e94d4;fill-rule:nonzero"/>
<path d="M561.6 252.3v.5c0 .2 0 .3.2.4l6.4 7.7c.2.2.5.5.8.5h2.8c.3 0 .6-.4.8-.7l-8.5-8.1-2.5-.3Z" style="fill:#03081d;fill-rule:nonzero"/>
<path d="m561.7 252.5 7 8.2c.1.2.3.2.5.2h3c.3 0 .4-.3.3-.4l-7-8.2a1 1 0 0 0-.8-.3H562c-.3 0-.4.3-.2.5" style="fill:#0a2d57;fill-rule:nonzero"/>
<path d="m562.9 252.8 6.3 7.4.4.2h1.8c.2 0 .3-.3.2-.4l-6.2-7.3a.9.9 0 0 0-.7-.3H563c-.1 0-.2.2-.1.4" style="fill:#f7f4ed;fill-rule:nonzero"/>
<path d="m570.4 256.1-1.5-.2a.8.8 0 0 0-.5 1.6l2.7 1.3-.4-1.8-.3-.9Z" style="fill:#5e94d4;fill-rule:nonzero"/>
<path d="M586.7 254.4s-1-1.2.8-3.3c2.2-2.4 3.4-1.6 4.4-1.1l-5.2 4.4Z" style="fill:#fff;fill-rule:nonzero"/>
<path d="M598.4 267.2s-3-4.2-2.5-7.4c.3-3.2 1.1-8.9-3.4-10.3 0 0-2 0-3.7 1.7-1.4 1.3-5 4.9-3 8.7.1.5.4.9.6 1.2.2 2 .7 4.8 1.4 7.6l10.6-1.5Z" style="fill:#fff;fill-rule:nonzero"/>
<path d="m593.3 259.3 2.6 8.2 4-.5-7.5-11.8.9 4.1Z" style="fill:#e3eefa;fill-rule:nonzero"/>
<path d="M593.7 249s-4.5 1.8-4.6 6.5c-.1 4.8 3.5 8.6 7.5 8.3" style="fill:none;fill-rule:nonzero;stroke:#3070b3;stroke-width:1px;stroke-linecap:butt;stroke-linejoin:miter"/>
<path d="M602.4 282.4v.4l-1.6 3a1 1 0 0 0 1.7 1.1l.3-.3c.5.4 1.1 1.4-.2 4a.9.9 0 0 0 1.4 1 .9.9 0 0 0 1.6.6v-.1l.4.3a.9.9 0 0 0 1.2-.4v-.1a.9.9 0 0 0 1.3-.4c.4-.7.6-1.4.8-2l.2-1a14 14 0 0 0-.3-6.2v-.8a58.4 58.4 0 0 0-10.4-26.3l-5.5 4.1a51.7 51.7 0 0 1 9 23" style="fill:#5e94d4;fill-rule:nonzero"/>
<path d="M595 250.5a3.4 3.4 0 0 0-5 4.8 26 26 0 0 1 3.3 4l5.5-4c-2-3-3.7-4.6-3.8-4.8" style="fill:#fff;fill-rule:nonzero"/>
<path d="m593.3 259.3-3.2-4" style="fill:none;fill-rule:nonzero;stroke:#9abce4;stroke-width:.24px"/>
<path d="M2.1 338.4h591.2m11.7 0h24.2" style="fill:none;fill-rule:nonzero;stroke:#0065bd;stroke-width:3px"/></svg>
