<svg width="671" height="706" xmlns="http://www.w3.org/2000/svg" xmlns:xlink="http://www.w3.org/1999/xlink" fill="white"><defs><style>
  text {
    fill: #212529;
    font-family: Helvetica Neue, Helvetica, Arial, sans-serif;
    font-size: 16px;
  }

  marker, text {
    fill-opacity: 1;
  }

  * {
    overflow: visible;
  }
</style></defs><svg x="245" y="15" width="150" height="75" class="START" fill="white"><g><rect rx="10" ry="10" width="100%" height="100%" stroke="black"></rect><text x="75" y="37.5" text-anchor="middle" width="150" height="75" font-weight="bold" pointer-events="none"><tspan x="75" dy="5.5">START</tspan></text></g></svg><svg x="245" y="175" width="150" height="75" class="endpoint?" fill="white"><g><polyline points="75 0, 150 37.5, 75 75, 0 37.5, 75 0" stroke="black"></polyline><text x="75" y="37.5" text-anchor="middle" width="150" height="75" font-weight="bold" pointer-events="none"><tspan x="75" dy="5.5">endpoint?</tspan></text></g></svg><svg x="245" y="465" width="150" height="75" class="https?" fill="white"><g><polyline points="75 0, 150 37.5, 75 75, 0 37.5, 75 0" stroke="black"></polyline><text x="75" y="37.5" text-anchor="middle" width="150" height="75" font-weight="bold" pointer-events="none"><tspan x="75" dy="5.5">https?</tspan></text></g></svg><svg x="505" y="295" width="150" height="75" class="navigatum-data" fill="white"><g><rect width="100%" height="100%" stroke="black"></rect><text x="75" y="37.5" text-anchor="middle" width="150" height="75" font-weight="bold" pointer-events="none"><tspan x="75" dy="5.5">navigatum-data</tspan></text></g></svg><svg x="15" y="295" width="150" height="75" class="navigatum-server" fill="white"><g><rect width="100%" height="100%" stroke="black"></rect><text x="75" y="37.5" text-anchor="middle" width="150" height="75" font-weight="bold" pointer-events="none"><tspan x="75" dy="5.5">navigatum-server</tspan></text></g></svg><svg x="15" y="475" width="150" height="75" class="redirect to https" fill="white"><g><rect rx="10" ry="10" width="100%" height="100%" stroke="black"></rect><text x="75" y="37.5" text-anchor="middle" width="150" height="75" font-weight="bold" pointer-events="none"><tspan x="75" dy="5.5">redirect to https</tspan></text></g></svg><svg x="215" y="615" width="230" height="75" class="navigatum-webclient" fill="white"><g><rect width="100%" height="100%" stroke="black"></rect><text x="115" y="37.5" text-anchor="middle" width="230" height="75" font-weight="bold" pointer-events="none"><tspan x="115" dy="5.5">navigatum-webclient</tspan></text></g></svg><svg x="320" y="90" width="1" height="85" class="" fill="white"><g><marker id="marker-d79d77e2-0556-44c8-9609-fcc80578caf5" viewBox="0 0 30 30" markerWidth="22" markerHeight="30" refX="30" refY="15" orient="auto" markerUnits="strokeWidth"><path d="M0,29 L30,15 L0,1" fill="none" stroke="black"></path></marker><polyline points="0 0,0 85" stroke="black" fill="none" stroke-width="1" marker-end="url(#marker-d79d77e2-0556-44c8-9609-fcc80578caf5)"></polyline><text x="0" y="42.5" dx="5" dominant-baseline="middle" text-anchor="start" pointer-events="none"></text></g></svg><svg x="90" y="212.5" width="155" height="82.5" class="/api/" fill="white"><g><marker id="marker-e9214c5a-d70d-4326-85b1-ce38eb3081c9" viewBox="0 0 30 30" markerWidth="22" markerHeight="30" refX="30" refY="15" orient="auto" markerUnits="strokeWidth"><path d="M0,29 L30,15 L0,1" fill="none" stroke="black"></path></marker><polyline points="155 0,0 0,0 82.5" stroke="black" fill="none" stroke-width="1" marker-end="url(#marker-e9214c5a-d70d-4326-85b1-ce38eb3081c9)"></polyline><text x="36.25" y="0" dy="-5" dominant-baseline="text-after-edge" text-anchor="middle" pointer-events="none">/api/</text></g></svg><svg x="395" y="212.5" width="185" height="82.5" class="/cdn/" fill="white"><g><marker id="marker-a68ed210-c6e2-4a61-b998-ad83bf34d236" viewBox="0 0 30 30" markerWidth="22" markerHeight="30" refX="30" refY="15" orient="auto" markerUnits="strokeWidth"><path d="M0,29 L30,15 L0,1" fill="none" stroke="black"></path></marker><polyline points="0 0,185 0,185 82.5" stroke="black" fill="none" stroke-width="1" marker-end="url(#marker-a68ed210-c6e2-4a61-b998-ad83bf34d236)"></polyline><text x="133.75" y="0" dy="-5" dominant-baseline="text-after-edge" text-anchor="middle" pointer-events="none">/cdn/</text></g></svg><svg x="165" y="507.5" width="80" height="1" class="no" fill="white"><g><marker id="marker-74e59d95-9e6d-4013-b18e-3b9ad9c93397" viewBox="0 0 30 30" markerWidth="22" markerHeight="30" refX="30" refY="15" orient="auto" markerUnits="strokeWidth"><path d="M0,29 L30,15 L0,1" fill="none" stroke="black"></path></marker><polyline points="80 0,0 0" stroke="black" fill="none" stroke-width="1" marker-end="url(#marker-74e59d95-9e6d-4013-b18e-3b9ad9c93397)"></polyline><text x="40" y="0" dy="-5" dominant-baseline="text-after-edge" text-anchor="middle" pointer-events="none">no</text></g></svg><svg x="90" y="425" width="230" height="50" class="" fill="white"><g><marker id="marker-d32744d2-9b9b-4381-b1eb-9339ce75150f" viewBox="0 0 30 30" markerWidth="22" markerHeight="30" refX="30" refY="15" orient="auto" markerUnits="strokeWidth"><path d="M0,29 L30,15 L0,1" fill="none" stroke="black"></path></marker><polyline points="0 50,0 0,230 0,230 40" stroke="black" fill="none" stroke-width="1" marker-end="url(#marker-d32744d2-9b9b-4381-b1eb-9339ce75150f)"></polyline><text x="110" y="0" dy="-5" dominant-baseline="text-after-edge" text-anchor="middle" pointer-events="none"></text></g></svg><svg x="320" y="250" width="1" height="215" class="else" fill="white"><g><marker id="marker-07e0ec8d-4028-4563-8874-bac24f5d9bcd" viewBox="0 0 30 30" markerWidth="22" markerHeight="30" refX="30" refY="15" orient="auto" markerUnits="strokeWidth"><path d="M0,29 L30,15 L0,1" fill="none" stroke="black"></path></marker><polyline points="0 0,0 215" stroke="black" fill="none" stroke-width="1" marker-end="url(#marker-07e0ec8d-4028-4563-8874-bac24f5d9bcd)"></polyline><text x="0" y="107.5" dx="5" dominant-baseline="middle" text-anchor="start" pointer-events="none">else</text></g></svg><svg x="320" y="540" width="1" height="75" class="ja" fill="white"><g><marker id="marker-3f5755ee-7a29-437d-8b9c-edd8b29ede96" viewBox="0 0 30 30" markerWidth="22" markerHeight="30" refX="30" refY="15" orient="auto" markerUnits="strokeWidth"><path d="M0,29 L30,15 L0,1" fill="none" stroke="black"></path></marker><polyline points="0 0,0 75" stroke="black" fill="none" stroke-width="1" marker-end="url(#marker-3f5755ee-7a29-437d-8b9c-edd8b29ede96)"></polyline><text x="0" y="37.5" dx="5" dominant-baseline="middle" text-anchor="start" pointer-events="none">ja</text></g></svg></svg>