<?xml version="1.0" encoding="UTF-8" standalone="no"?>
<!DOCTYPE svg PUBLIC "-//W3C//DTD SVG 1.1//EN" "http://www.w3.org/Graphics/SVG/1.1/DTD/svg11.dtd">
<svg width="100%" height="100%" viewBox="0 0 647 340" version="1.1" xmlns="http://www.w3.org/2000/svg" xmlns:xlink="http://www.w3.org/1999/xlink" xml:space="preserve" xmlns:serif="http://www.serif.com/" style="fill-rule:evenodd;clip-rule:evenodd;stroke-linecap:round;stroke-linejoin:round;stroke-miterlimit:10;">
    <g id="Layer-1" serif:id="Layer 1">
        <g id="building">
            <g id="Clouds">
                <path d="M9.913,337.575C9.913,337.575 -48.983,129.965 125.891,30.876C300.764,-68.214 358.894,103.588 473.473,95.747C588.052,87.905 617.025,128.849 635.965,183.364C664.329,265.002 623.695,338.367 623.695,338.367L9.913,337.575Z" style="fill:#f3f9ff;fill-rule:nonzero;"/>
                <path d="M586.692,98.392C585.032,98.392 583.459,98.754 582.036,99.39C582.193,98.744 582.286,98.071 582.286,97.376C582.286,92.689 578.486,88.889 573.799,88.889C569.941,88.889 566.69,91.465 565.659,94.989C565.223,84.77 556.823,76.612 546.496,76.612C535.89,76.612 527.292,85.21 527.292,95.816C527.292,97.063 527.421,98.279 527.648,99.459C525.224,96.625 521.629,94.822 517.608,94.822C510.311,94.822 504.396,100.737 504.396,108.034C504.396,115.331 510.311,121.246 517.608,121.246L586.692,121.246C593.003,121.246 598.119,116.13 598.119,109.819C598.119,103.508 593.003,98.392 586.692,98.392" style="fill:#e1f1ff;fill-rule:nonzero;"/>
                <path d="M82.296,87.481C80.636,87.481 79.063,87.843 77.639,88.479C77.797,87.833 77.89,87.16 77.89,86.465C77.89,81.778 74.09,77.978 69.403,77.978C65.545,77.978 62.294,80.554 61.263,84.078C60.827,73.859 52.427,65.701 42.1,65.701C31.494,65.701 22.896,74.299 22.896,84.905C22.896,86.152 23.024,87.368 23.251,88.548C20.828,85.714 17.233,83.911 13.212,83.911C5.915,83.911 0,89.826 0,97.123C0,104.42 5.915,110.335 13.212,110.335L82.296,110.335C88.607,110.335 93.723,105.219 93.723,98.908C93.723,92.597 88.607,87.481 82.296,87.481" style="fill:#e1f1ff;fill-rule:nonzero;"/>
                <path d="M437.076,39.024C435.746,39.024 434.486,39.314 433.346,39.824C433.473,39.306 433.547,38.767 433.547,38.21C433.547,34.456 430.504,31.413 426.75,31.413C423.66,31.413 421.056,33.476 420.23,36.299C419.88,28.113 413.153,21.579 404.882,21.579C396.387,21.579 389.501,28.466 389.501,36.961C389.501,37.959 389.604,38.933 389.786,39.879C387.845,37.609 384.965,36.165 381.745,36.165C375.9,36.165 371.163,40.903 371.163,46.747C371.163,52.591 375.9,57.328 381.745,57.328L437.076,57.328C442.131,57.328 446.228,53.231 446.228,48.176C446.228,43.122 442.131,39.024 437.076,39.024" style="fill:#e1f1ff;fill-rule:nonzero;"/>
            </g>
            <g id="Foliage">
                <g>
                    <path d="M566.166,211.269L544.996,281.044C539.728,298.409 552.722,315.931 570.869,315.931C589.015,315.931 602.01,298.409 596.741,281.044L575.572,211.269C574.161,206.619 567.577,206.619 566.166,211.269" style="fill:#9abce4;fill-rule:nonzero;"/>
                    <path d="M570.869,337.575L570.869,235.048" style="fill:none;fill-rule:nonzero;stroke:#7ca5d1;stroke-width:2px;"/>
                </g>
                <g>
                    <path d="M613.486,248.17L598.501,297.56C594.772,309.851 603.97,322.254 616.815,322.254C629.66,322.254 638.858,309.851 635.129,297.56L620.144,248.17C619.145,244.878 614.485,244.878 613.486,248.17" style="fill:#9abce4;fill-rule:nonzero;"/>
                    <path d="M616.815,337.575L616.815,265.002" style="fill:none;fill-rule:nonzero;stroke:#7ca5d1;stroke-width:1.42px;"/>
                </g>
                <g>
                    <path d="M111.311,316.888C111.131,316.888 110.941,316.888 110.761,316.908C108.491,312.118 103.601,308.798 97.951,308.798C91.761,308.798 86.501,312.758 84.561,318.288C83.761,318.138 82.931,318.068 82.081,318.068C74.251,318.068 67.901,324.418 67.901,332.258C67.901,332.388 67.901,332.518 67.911,332.648L125.411,332.648C125.471,332.138 125.501,331.608 125.501,331.078C125.501,323.238 119.151,316.888 111.311,316.888" style="fill:#9abce4;fill-rule:nonzero;"/>
                    <path d="M79.754,322.607C79.574,322.607 79.384,322.607 79.204,322.627C76.934,317.837 72.044,314.517 66.394,314.517C60.204,314.517 54.944,318.477 53.004,324.007C52.204,323.857 51.374,323.787 50.524,323.787C42.694,323.787 36.344,330.137 36.344,337.977C36.344,338.107 36.344,338.237 36.354,338.367L93.854,338.367C93.914,337.857 93.944,337.327 93.944,336.797C93.944,328.957 87.594,322.607 79.754,322.607" style="fill:#c2d7ef;fill-rule:nonzero;"/>
                </g>
                <g>
                    <path d="M24.557,211.269L3.387,281.044C-1.881,298.409 11.114,315.931 29.26,315.931C47.406,315.931 60.401,298.409 55.132,281.044L33.963,211.269C32.552,206.619 25.968,206.619 24.557,211.269" style="fill:#9abce4;fill-rule:nonzero;"/>
                    <path d="M29.26,337.575L29.26,235.048" style="fill:none;fill-rule:nonzero;stroke:#7ca5d1;stroke-width:2px;"/>
                </g>
            </g>
            <g id="building1" serif:id="building">
                <g id="top">
                    <g id="outer-windows" serif:id="outer windows">
                        <g>
                            <rect x="89.474" y="159.279" width="13.983" height="26.104" style="fill:#7ca5d1;"/>
                            <rect x="91.076" y="160.985" width="10.93" height="3.471" style="fill:#9abce4;"/>
                            <rect x="91.076" y="179.892" width="10.93" height="3.471" style="fill:#9abce4;"/>
                            <rect x="91.076" y="166.296" width="10.93" height="12.07" style="fill:#9abce4;"/>
                        </g>
                        <g>
                            <rect x="526.462" y="159.279" width="13.983" height="26.104" style="fill:#7ca5d1;"/>
                            <rect x="528.064" y="160.985" width="10.93" height="3.471" style="fill:#9abce4;"/>
                            <rect x="528.064" y="179.892" width="10.93" height="3.471" style="fill:#9abce4;"/>
                            <rect x="528.064" y="166.296" width="10.93" height="12.07" style="fill:#9abce4;"/>
                        </g>
                    </g>
                    <rect x="85.53" y="146.636" width="459.719" height="3.315" style="fill:#7ca5d1;"/>
                    <path d="M531.473,159.28L531.473,185.382L543.518,185.382L543.518,194.706L87.259,194.706L87.259,185.382L98.932,185.382L98.932,159.28L87.259,159.28L87.259,149.956L543.518,149.956L543.518,159.28L531.473,159.28Z" style="fill:#c2d7ef;fill-rule:nonzero;"/>
                    <g id="inner-windows" serif:id="inner windows">
                        <g>
                            <rect x="105.741" y="159.279" width="13.983" height="26.104" style="fill:#7ca5d1;"/>
                            <rect x="107.344" y="160.985" width="10.93" height="3.471" style="fill:#9abce4;"/>
                            <rect x="107.344" y="179.892" width="10.93" height="3.471" style="fill:#9abce4;"/>
                            <rect x="107.344" y="166.296" width="10.93" height="12.07" style="fill:#9abce4;"/>
                        </g>
                        <g>
                            <rect x="126.954" y="159.279" width="13.983" height="26.104" style="fill:#7ca5d1;"/>
                            <rect x="128.557" y="160.985" width="10.93" height="3.471" style="fill:#9abce4;"/>
                            <rect x="128.557" y="179.892" width="10.93" height="3.471" style="fill:#9abce4;"/>
                            <rect x="128.557" y="166.296" width="10.93" height="12.07" style="fill:#9abce4;"/>
                        </g>
                        <g>
                            <rect x="148.167" y="159.279" width="13.983" height="26.104" style="fill:#7ca5d1;"/>
                            <rect x="149.769" y="160.985" width="10.93" height="3.471" style="fill:#9abce4;"/>
                            <rect x="149.769" y="179.892" width="10.93" height="3.471" style="fill:#9abce4;"/>
                            <rect x="149.769" y="166.296" width="10.93" height="12.07" style="fill:#9abce4;"/>
                        </g>
                        <g>
                            <rect x="169.379" y="159.279" width="13.983" height="26.104" style="fill:#7ca5d1;"/>
                            <rect x="170.982" y="160.985" width="10.93" height="3.471" style="fill:#9abce4;"/>
                            <rect x="170.982" y="179.892" width="10.93" height="3.471" style="fill:#9abce4;"/>
                            <rect x="170.982" y="166.296" width="10.93" height="12.07" style="fill:#9abce4;"/>
                        </g>
                        <g>
                            <rect x="190.592" y="159.279" width="13.983" height="26.104" style="fill:#7ca5d1;"/>
                            <rect x="192.194" y="160.985" width="10.93" height="3.471" style="fill:#9abce4;"/>
                            <rect x="192.194" y="179.892" width="10.93" height="3.471" style="fill:#9abce4;"/>
                            <rect x="192.194" y="166.296" width="10.93" height="12.07" style="fill:#9abce4;"/>
                        </g>
                        <g>
                            <rect x="211.804" y="159.279" width="13.983" height="26.104" style="fill:#7ca5d1;"/>
                            <rect x="213.407" y="160.985" width="10.93" height="3.471" style="fill:#9abce4;"/>
                            <rect x="213.407" y="179.892" width="10.93" height="3.471" style="fill:#9abce4;"/>
                            <rect x="213.407" y="166.296" width="10.93" height="12.07" style="fill:#9abce4;"/>
                        </g>
                        <g>
                            <rect x="233.017" y="159.279" width="13.983" height="26.104" style="fill:#7ca5d1;"/>
                            <rect x="234.62" y="160.985" width="10.93" height="3.471" style="fill:#9abce4;"/>
                            <rect x="234.62" y="179.892" width="10.93" height="3.471" style="fill:#9abce4;"/>
                            <rect x="234.62" y="166.296" width="10.93" height="12.07" style="fill:#9abce4;"/>
                        </g>
                        <g>
                            <rect x="254.23" y="159.279" width="13.983" height="26.104" style="fill:#7ca5d1;"/>
                            <rect x="255.832" y="160.985" width="10.93" height="3.471" style="fill:#9abce4;"/>
                            <rect x="255.832" y="179.892" width="10.93" height="3.471" style="fill:#9abce4;"/>
                            <rect x="255.832" y="166.296" width="10.93" height="12.07" style="fill:#9abce4;"/>
                        </g>
                        <g>
                            <rect x="275.442" y="159.279" width="13.983" height="26.104" style="fill:#7ca5d1;"/>
                            <rect x="277.045" y="160.985" width="10.93" height="3.471" style="fill:#9abce4;"/>
                            <rect x="277.045" y="179.892" width="10.93" height="3.471" style="fill:#9abce4;"/>
                            <rect x="277.045" y="166.296" width="10.93" height="12.07" style="fill:#9abce4;"/>
                        </g>
                        <g>
                            <rect x="296.655" y="159.279" width="13.983" height="26.104" style="fill:#7ca5d1;"/>
                            <rect x="298.257" y="160.985" width="10.93" height="3.471" style="fill:#9abce4;"/>
                            <rect x="298.257" y="179.892" width="10.93" height="3.471" style="fill:#9abce4;"/>
                            <rect x="298.257" y="166.296" width="10.93" height="12.07" style="fill:#9abce4;"/>
                        </g>
                        <g>
                            <rect x="317.868" y="159.279" width="13.983" height="26.104" style="fill:#7ca5d1;"/>
                            <rect x="319.47" y="160.985" width="10.93" height="3.471" style="fill:#9abce4;"/>
                            <rect x="319.47" y="179.892" width="10.93" height="3.471" style="fill:#9abce4;"/>
                            <rect x="319.47" y="166.296" width="10.93" height="12.07" style="fill:#9abce4;"/>
                        </g>
                        <g>
                            <rect x="339.08" y="159.279" width="13.983" height="26.104" style="fill:#7ca5d1;"/>
                            <rect x="340.683" y="160.985" width="10.93" height="3.471" style="fill:#9abce4;"/>
                            <rect x="340.683" y="179.892" width="10.93" height="3.471" style="fill:#9abce4;"/>
                            <rect x="340.683" y="166.296" width="10.93" height="12.07" style="fill:#9abce4;"/>
                        </g>
                        <g>
                            <rect x="360.293" y="159.279" width="13.983" height="26.104" style="fill:#7ca5d1;"/>
                            <rect x="361.895" y="160.985" width="10.93" height="3.471" style="fill:#9abce4;"/>
                            <rect x="361.895" y="179.892" width="10.93" height="3.471" style="fill:#9abce4;"/>
                            <rect x="361.895" y="166.296" width="10.93" height="12.07" style="fill:#9abce4;"/>
                        </g>
                        <g>
                            <rect x="381.505" y="159.279" width="13.983" height="26.104" style="fill:#7ca5d1;"/>
                            <rect x="383.108" y="160.985" width="10.93" height="3.471" style="fill:#9abce4;"/>
                            <rect x="383.108" y="179.892" width="10.93" height="3.471" style="fill:#9abce4;"/>
                            <rect x="383.108" y="166.296" width="10.93" height="12.07" style="fill:#9abce4;"/>
                        </g>
                        <g>
                            <rect x="402.718" y="159.279" width="13.983" height="26.104" style="fill:#7ca5d1;"/>
                            <rect x="404.321" y="160.985" width="10.93" height="3.471" style="fill:#9abce4;"/>
                            <rect x="404.321" y="179.892" width="10.93" height="3.471" style="fill:#9abce4;"/>
                            <rect x="404.321" y="166.296" width="10.93" height="12.07" style="fill:#9abce4;"/>
                        </g>
                        <g>
                            <rect x="423.931" y="159.279" width="13.983" height="26.104" style="fill:#7ca5d1;"/>
                            <rect x="425.533" y="160.985" width="10.93" height="3.471" style="fill:#9abce4;"/>
                            <rect x="425.533" y="179.892" width="10.93" height="3.471" style="fill:#9abce4;"/>
                            <rect x="425.533" y="166.296" width="10.93" height="12.07" style="fill:#9abce4;"/>
                        </g>
                        <g>
                            <rect x="445.143" y="159.279" width="13.983" height="26.104" style="fill:#7ca5d1;"/>
                            <rect x="446.746" y="160.985" width="10.93" height="3.471" style="fill:#9abce4;"/>
                            <rect x="446.746" y="179.892" width="10.93" height="3.471" style="fill:#9abce4;"/>
                            <rect x="446.746" y="166.296" width="10.93" height="12.07" style="fill:#9abce4;"/>
                        </g>
                        <g>
                            <rect x="466.356" y="159.279" width="13.983" height="26.104" style="fill:#7ca5d1;"/>
                            <rect x="467.958" y="160.985" width="10.93" height="3.471" style="fill:#9abce4;"/>
                            <rect x="467.958" y="179.892" width="10.93" height="3.471" style="fill:#9abce4;"/>
                            <rect x="467.958" y="166.296" width="10.93" height="12.07" style="fill:#9abce4;"/>
                        </g>
                        <g>
                            <rect x="487.568" y="159.279" width="13.983" height="26.104" style="fill:#7ca5d1;"/>
                            <rect x="489.171" y="160.985" width="10.93" height="3.471" style="fill:#9abce4;"/>
                            <rect x="489.171" y="179.892" width="10.93" height="3.471" style="fill:#9abce4;"/>
                            <rect x="489.171" y="166.296" width="10.93" height="12.07" style="fill:#9abce4;"/>
                        </g>
                        <g>
                            <rect x="508.781" y="159.279" width="13.983" height="26.104" style="fill:#7ca5d1;"/>
                            <rect x="510.384" y="160.985" width="10.93" height="3.471" style="fill:#9abce4;"/>
                            <rect x="510.384" y="179.892" width="10.93" height="3.471" style="fill:#9abce4;"/>
                            <rect x="510.384" y="166.296" width="10.93" height="12.07" style="fill:#9abce4;"/>
                        </g>
                    </g>
                </g>
                <g id="middle">
                    <rect x="93.473" y="194.707" width="443.211" height="20.721" style="fill:#9abce4;"/>
                    <rect x="101.691" y="194.707" width="427.201" height="20.721" style="fill:#9abce4;"/>
                    <g id="windows">
                        <rect x="104.679" y="196.503" width="16.904" height="18.925" style="fill:#7ca5d1;"/>
                        <rect x="106.544" y="198.591" width="13.175" height="14.749" style="fill:#9abce4;"/>
                        <rect x="98.584" y="194.707" width="3.108" height="13.883" style="fill:#c2d7ef;"/>
                        <rect x="98.584" y="208.487" width="3.108" height="6.941" style="fill:#adccea;"/>
                        <rect x="119.719" y="194.707" width="3.108" height="13.883" style="fill:#c2d7ef;"/>
                        <rect x="119.719" y="208.487" width="3.108" height="6.941" style="fill:#adccea;"/>
                        <rect x="125.892" y="196.503" width="16.904" height="18.925" style="fill:#7ca5d1;"/>
                        <rect x="127.756" y="198.591" width="13.175" height="14.749" style="fill:#9abce4;"/>
                        <rect x="140.931" y="194.707" width="3.108" height="13.883" style="fill:#c2d7ef;"/>
                        <rect x="140.931" y="208.487" width="3.108" height="6.941" style="fill:#adccea;"/>
                        <rect x="147.105" y="196.503" width="16.904" height="18.925" style="fill:#7ca5d1;"/>
                        <rect x="148.969" y="198.591" width="13.175" height="14.749" style="fill:#9abce4;"/>
                        <rect x="162.144" y="194.707" width="3.108" height="13.883" style="fill:#c2d7ef;"/>
                        <rect x="162.144" y="208.487" width="3.108" height="6.941" style="fill:#adccea;"/>
                        <rect x="168.317" y="196.503" width="16.904" height="18.925" style="fill:#7ca5d1;"/>
                        <rect x="170.181" y="198.591" width="13.175" height="14.749" style="fill:#9abce4;"/>
                        <rect x="183.356" y="194.707" width="3.108" height="13.883" style="fill:#c2d7ef;"/>
                        <rect x="183.356" y="208.487" width="3.108" height="6.941" style="fill:#adccea;"/>
                        <rect x="189.53" y="196.503" width="16.904" height="18.925" style="fill:#7ca5d1;"/>
                        <rect x="191.394" y="198.591" width="13.175" height="14.749" style="fill:#9abce4;"/>
                        <rect x="204.569" y="194.707" width="3.108" height="13.883" style="fill:#c2d7ef;"/>
                        <rect x="204.569" y="208.487" width="3.108" height="6.941" style="fill:#adccea;"/>
                        <rect x="210.742" y="196.503" width="16.904" height="18.925" style="fill:#7ca5d1;"/>
                        <rect x="212.607" y="198.591" width="13.175" height="14.749" style="fill:#9abce4;"/>
                        <rect x="225.782" y="194.707" width="3.108" height="13.883" style="fill:#c2d7ef;"/>
                        <rect x="225.782" y="208.487" width="3.108" height="6.941" style="fill:#adccea;"/>
                        <rect x="231.955" y="196.503" width="16.904" height="18.925" style="fill:#7ca5d1;"/>
                        <rect x="233.819" y="198.591" width="13.175" height="14.749" style="fill:#9abce4;"/>
                        <rect x="246.994" y="194.707" width="3.108" height="13.883" style="fill:#c2d7ef;"/>
                        <rect x="246.994" y="208.487" width="3.108" height="6.941" style="fill:#adccea;"/>
                        <rect x="253.168" y="196.503" width="16.904" height="18.925" style="fill:#7ca5d1;"/>
                        <rect x="255.032" y="198.591" width="13.175" height="14.749" style="fill:#9abce4;"/>
                        <rect x="268.207" y="194.707" width="3.108" height="13.883" style="fill:#c2d7ef;"/>
                        <rect x="268.207" y="208.487" width="3.108" height="6.941" style="fill:#adccea;"/>
                        <rect x="274.38" y="196.503" width="16.904" height="18.925" style="fill:#7ca5d1;"/>
                        <rect x="276.244" y="198.591" width="13.175" height="14.749" style="fill:#9abce4;"/>
                        <rect x="289.42" y="194.707" width="3.108" height="13.883" style="fill:#c2d7ef;"/>
                        <rect x="289.42" y="208.487" width="3.108" height="6.941" style="fill:#adccea;"/>
                        <rect x="295.593" y="196.503" width="16.904" height="18.925" style="fill:#7ca5d1;"/>
                        <rect x="297.457" y="198.591" width="13.175" height="14.749" style="fill:#9abce4;"/>
                        <rect x="507.447" y="196.503" width="16.904" height="18.925" style="fill:#7ca5d1;"/>
                        <rect x="509.311" y="198.591" width="13.175" height="14.749" style="fill:#9abce4;"/>
                        <rect x="527.338" y="194.707" width="3.108" height="13.883" style="fill:#c2d7ef;"/>
                        <rect x="527.338" y="208.487" width="3.108" height="6.941" style="fill:#adccea;"/>
                        <rect x="506.203" y="194.707" width="3.108" height="13.883" style="fill:#c2d7ef;"/>
                        <rect x="506.203" y="208.487" width="3.108" height="6.941" style="fill:#adccea;"/>
                        <rect x="486.234" y="196.503" width="16.904" height="18.925" style="fill:#7ca5d1;"/>
                        <rect x="488.099" y="198.591" width="13.175" height="14.749" style="fill:#9abce4;"/>
                        <rect x="484.991" y="194.707" width="3.108" height="13.883" style="fill:#c2d7ef;"/>
                        <rect x="484.991" y="208.487" width="3.108" height="6.941" style="fill:#adccea;"/>
                        <rect x="465.021" y="196.503" width="16.904" height="18.925" style="fill:#7ca5d1;"/>
                        <rect x="466.886" y="198.591" width="13.175" height="14.749" style="fill:#9abce4;"/>
                        <rect x="463.778" y="194.707" width="3.108" height="13.883" style="fill:#c2d7ef;"/>
                        <rect x="463.778" y="208.487" width="3.108" height="6.941" style="fill:#adccea;"/>
                        <rect x="443.809" y="196.503" width="16.904" height="18.925" style="fill:#7ca5d1;"/>
                        <rect x="445.674" y="198.591" width="13.175" height="14.749" style="fill:#9abce4;"/>
                        <rect x="442.566" y="194.707" width="3.108" height="13.883" style="fill:#c2d7ef;"/>
                        <rect x="442.566" y="208.487" width="3.108" height="6.941" style="fill:#adccea;"/>
                        <rect x="422.596" y="196.503" width="16.904" height="18.925" style="fill:#7ca5d1;"/>
                        <rect x="424.461" y="198.591" width="13.175" height="14.749" style="fill:#9abce4;"/>
                        <rect x="421.353" y="194.707" width="3.108" height="13.883" style="fill:#c2d7ef;"/>
                        <rect x="421.353" y="208.487" width="3.108" height="6.941" style="fill:#adccea;"/>
                        <rect x="401.384" y="196.503" width="16.904" height="18.925" style="fill:#7ca5d1;"/>
                        <rect x="403.248" y="198.591" width="13.175" height="14.749" style="fill:#9abce4;"/>
                        <rect x="400.14" y="194.707" width="3.108" height="13.883" style="fill:#c2d7ef;"/>
                        <rect x="400.14" y="208.487" width="3.108" height="6.941" style="fill:#adccea;"/>
                        <rect x="380.171" y="196.503" width="16.904" height="18.925" style="fill:#7ca5d1;"/>
                        <rect x="382.036" y="198.591" width="13.175" height="14.749" style="fill:#9abce4;"/>
                        <rect x="378.928" y="194.707" width="3.108" height="13.883" style="fill:#c2d7ef;"/>
                        <rect x="378.928" y="208.487" width="3.108" height="6.941" style="fill:#adccea;"/>
                        <rect x="358.958" y="196.503" width="16.904" height="18.925" style="fill:#7ca5d1;"/>
                        <rect x="360.823" y="198.591" width="13.175" height="14.749" style="fill:#9abce4;"/>
                        <rect x="357.715" y="194.707" width="3.108" height="13.883" style="fill:#c2d7ef;"/>
                        <rect x="357.715" y="208.487" width="3.108" height="6.941" style="fill:#adccea;"/>
                        <rect x="337.746" y="196.503" width="16.904" height="18.925" style="fill:#7ca5d1;"/>
                        <rect x="339.611" y="198.591" width="13.175" height="14.749" style="fill:#9abce4;"/>
                        <rect x="336.502" y="194.707" width="3.108" height="13.883" style="fill:#c2d7ef;"/>
                        <rect x="336.502" y="208.487" width="3.108" height="6.941" style="fill:#adccea;"/>
                        <rect x="316.533" y="196.503" width="16.904" height="18.925" style="fill:#7ca5d1;"/>
                        <rect x="318.398" y="198.591" width="13.175" height="14.749" style="fill:#9abce4;"/>
                        <rect x="312.497" y="194.707" width="4.036" height="13.883" style="fill:#c2d7ef;"/>
                        <rect x="312.497" y="208.487" width="4.036" height="6.941" style="fill:#adccea;"/>
                    </g>
                </g>
                <g id="bottom">
                    <rect x="93.473" y="215.428" width="443.211" height="112.996" style="fill:#e3eefa;"/>
                    <rect x="93.473" y="328.424" width="443.211" height="9.946" style="fill:#9abce4;"/>
                    <g id="entrance">
                        <rect x="261.309" y="296.1" width="29.561" height="42.27" style="fill:#7ca5d1;"/>
                        <rect x="299.987" y="296.1" width="29.561" height="42.27" style="fill:#7ca5d1;"/>
                        <rect x="338.665" y="296.1" width="29.561" height="42.27" style="fill:#7ca5d1;"/>
                        <rect x="232.369" y="301.003" width="164.314" height="4.559" style="fill:#adccea;"/>
                        <path d="M249.971,281.261L247.557,281.267L247.551,288.989L246.813,288.989L246.813,281.261L244.393,281.267L244.393,280.587L249.983,280.587L249.971,281.261Z" style="fill:#7ca5d1;fill-rule:nonzero;"/>
                        <path d="M255.713,288.989L251.459,288.989L251.453,280.587L255.525,280.587L255.519,281.261L252.203,281.267L252.197,284.407L255.285,284.401L255.273,285.064L252.203,285.075L252.197,288.321L255.719,288.315L255.713,288.989Z" style="fill:#7ca5d1;fill-rule:nonzero;"/>
                        <path d="M263.3,288.62C262.917,288.8 262.543,288.931 262.178,289.013C261.813,289.095 261.417,289.136 260.991,289.136C259.796,289.136 258.84,288.75 258.123,287.979C257.406,287.207 257.048,286.198 257.048,284.952C257.048,283.585 257.443,282.492 258.232,281.674C259.021,280.856 260.036,280.446 261.279,280.446C261.63,280.446 261.969,280.479 262.295,280.543C262.621,280.607 262.954,280.71 263.294,280.851L263.03,281.478C262.73,281.349 262.438,281.257 262.154,281.202C261.871,281.148 261.566,281.12 261.238,281.12C260.222,281.12 259.399,281.462 258.768,282.146C258.137,282.829 257.821,283.745 257.821,284.894C257.821,285.991 258.12,286.859 258.718,287.498C259.316,288.137 260.089,288.456 261.038,288.456C261.386,288.456 261.719,288.42 262.037,288.348C262.356,288.275 262.681,288.163 263.013,288.011L263.3,288.62Z" style="fill:#7ca5d1;fill-rule:nonzero;"/>
                        <path d="M271.063,288.989L270.331,288.989L270.331,285.034L265.702,285.04L265.696,288.989L264.958,288.989L264.952,280.587L265.702,280.587L265.696,284.372L270.331,284.366L270.331,280.587L271.069,280.587L271.063,288.989Z" style="fill:#7ca5d1;fill-rule:nonzero;"/>
                        <path d="M279.998,288.989L279.272,288.989L274.537,282.233C274.486,282.159 274.437,282.08 274.388,281.996C274.339,281.912 274.285,281.815 274.227,281.706L274.197,281.706C274.205,281.773 274.211,281.863 274.215,281.979C274.219,282.094 274.221,282.231 274.221,282.392L274.221,288.989L273.477,288.989L273.477,280.587L274.262,280.587L278.92,287.261C278.99,287.362 279.055,287.459 279.113,287.551C279.172,287.643 279.225,287.73 279.272,287.812L279.301,287.812C279.289,287.683 279.279,287.541 279.272,287.387C279.264,287.232 279.26,287.067 279.26,286.892L279.26,280.587L279.998,280.587L279.998,288.989Z" style="fill:#7ca5d1;fill-rule:nonzero;"/>
                        <rect x="282.453" y="280.587" width="0.744" height="8.402" style="fill:#7ca5d1;fill-rule:nonzero;"/>
                        <path d="M285.048,288.31L285.446,287.753C285.771,287.995 286.103,288.173 286.442,288.286C286.782,288.399 287.167,288.456 287.597,288.456C288.136,288.456 288.578,288.31 288.924,288.017C289.27,287.724 289.442,287.317 289.442,286.798C289.442,286.372 289.304,286.025 289.026,285.758C288.749,285.49 288.298,285.247 287.673,285.028C286.876,284.751 286.294,284.433 285.927,284.073C285.56,283.714 285.376,283.253 285.376,282.69C285.376,282.011 285.609,281.467 286.076,281.059C286.543,280.65 287.161,280.446 287.931,280.446C288.274,280.446 288.613,280.492 288.947,280.584C289.281,280.676 289.614,280.821 289.946,281.021L289.595,281.595C289.317,281.431 289.04,281.31 288.763,281.231C288.485,281.153 288.183,281.114 287.854,281.114C287.339,281.114 286.921,281.248 286.601,281.516C286.28,281.783 286.12,282.148 286.12,282.608C286.12,283.011 286.265,283.342 286.554,283.602C286.843,283.861 287.315,284.105 287.972,284.331C288.757,284.601 289.322,284.919 289.668,285.286C290.014,285.653 290.187,286.13 290.187,286.716C290.187,287.439 289.952,288.023 289.483,288.468C289.015,288.913 288.372,289.136 287.556,289.136C287.071,289.136 286.627,289.069 286.223,288.937C285.818,288.804 285.427,288.595 285.048,288.31Z" style="fill:#7ca5d1;fill-rule:nonzero;"/>
                        <path d="M297.791,288.62C297.409,288.8 297.035,288.931 296.669,289.013C296.304,289.095 295.909,289.136 295.483,289.136C294.288,289.136 293.331,288.75 292.615,287.979C291.898,287.207 291.539,286.198 291.539,284.952C291.539,283.585 291.934,282.492 292.723,281.674C293.512,280.856 294.528,280.446 295.77,280.446C296.122,280.446 296.46,280.479 296.787,280.543C297.113,280.607 297.446,280.71 297.786,280.851L297.522,281.478C297.221,281.349 296.929,281.257 296.646,281.202C296.363,281.148 296.057,281.12 295.729,281.12C294.713,281.12 293.89,281.462 293.259,282.146C292.628,282.829 292.313,283.745 292.313,284.894C292.313,285.991 292.612,286.859 293.209,287.498C293.807,288.137 294.581,288.456 295.53,288.456C295.877,288.456 296.21,288.42 296.529,288.348C296.847,288.275 297.172,288.163 297.504,288.011L297.791,288.62Z" style="fill:#7ca5d1;fill-rule:nonzero;"/>
                        <path d="M305.555,288.989L304.822,288.989L304.822,285.034L300.193,285.04L300.187,288.989L299.449,288.989L299.443,280.587L300.193,280.587L300.187,284.372L304.822,284.366L304.822,280.587L305.56,280.587L305.555,288.989Z" style="fill:#7ca5d1;fill-rule:nonzero;"/>
                        <path d="M312.222,288.989L307.968,288.989L307.962,280.587L312.035,280.587L312.029,281.261L308.712,281.267L308.706,284.407L311.794,284.401L311.783,285.064L308.712,285.075L308.706,288.321L312.228,288.315L312.222,288.989Z" style="fill:#7ca5d1;fill-rule:nonzero;"/>
                        <path d="M323.222,285.726C323.222,286.855 322.965,287.705 322.452,288.277C321.938,288.85 321.187,289.136 320.199,289.136C319.226,289.136 318.487,288.86 317.981,288.31C317.475,287.759 317.222,286.942 317.222,285.86L317.222,280.587L317.966,280.587L317.966,285.784C317.966,286.667 318.162,287.334 318.552,287.785C318.943,288.236 319.513,288.462 320.263,288.462C320.99,288.458 321.541,288.24 321.918,287.809C322.295,287.377 322.484,286.73 322.484,285.866L322.484,280.587L323.222,280.587L323.222,285.726Z" style="fill:#7ca5d1;fill-rule:nonzero;"/>
                        <path d="M332.093,288.989L331.366,288.989L326.632,282.233C326.581,282.159 326.531,282.08 326.482,281.996C326.433,281.912 326.38,281.815 326.321,281.706L326.292,281.706C326.3,281.773 326.306,281.863 326.309,281.979C326.313,282.094 326.315,282.231 326.315,282.392L326.315,288.989L325.571,288.989L325.571,280.587L326.356,280.587L331.015,287.261C331.085,287.362 331.149,287.459 331.208,287.551C331.266,287.643 331.319,287.73 331.366,287.812L331.395,287.812C331.384,287.683 331.374,287.541 331.366,287.387C331.358,287.232 331.354,287.067 331.354,286.892L331.354,280.587L332.093,280.587L332.093,288.989Z" style="fill:#7ca5d1;fill-rule:nonzero;"/>
                        <rect x="334.547" y="280.587" width="0.744" height="8.402" style="fill:#7ca5d1;fill-rule:nonzero;"/>
                        <path d="M343.799,280.587L340.599,288.989L339.902,288.989L336.838,280.587L337.67,280.587L340.06,287.314C340.107,287.439 340.147,287.566 340.18,287.697C340.214,287.828 340.24,287.958 340.26,288.087L340.283,288.087C340.299,287.981 340.326,287.862 340.365,287.73C340.404,287.597 340.451,287.454 340.506,287.302L343.002,280.587L343.799,280.587Z" style="fill:#7ca5d1;fill-rule:nonzero;"/>
                        <path d="M349.446,288.989L345.193,288.989L345.187,280.587L349.259,280.587L349.253,281.261L345.937,281.267L345.931,284.407L349.019,284.401L349.007,285.064L345.937,285.075L345.931,288.321L349.452,288.315L349.446,288.989Z" style="fill:#7ca5d1;fill-rule:nonzero;"/>
                        <path d="M356.682,288.989L355.815,288.989L354.567,286.558C354.313,286.077 354.075,285.757 353.852,285.597C353.63,285.437 353.352,285.36 353.02,285.368L352.007,285.368L352.007,288.989L351.262,288.989L351.262,280.587L353.612,280.587C354.339,280.587 354.932,280.78 355.393,281.167C355.854,281.554 356.085,282.103 356.085,282.814C356.085,283.399 355.923,283.898 355.601,284.308C355.279,284.718 354.825,284.997 354.239,285.146L354.239,285.169C354.419,285.247 354.589,285.372 354.749,285.544C354.909,285.716 355.071,285.952 355.235,286.253L356.682,288.989ZM352.007,281.267L352.007,284.694L353.413,284.694C353.979,284.694 354.437,284.53 354.787,284.202C355.136,283.874 355.311,283.435 355.311,282.884C355.311,282.376 355.155,281.98 354.842,281.694C354.53,281.409 354.079,281.267 353.489,281.267L352.007,281.267Z" style="fill:#7ca5d1;fill-rule:nonzero;"/>
                        <path d="M357.842,288.31L358.24,287.753C358.565,287.995 358.897,288.173 359.236,288.286C359.576,288.399 359.961,288.456 360.391,288.456C360.93,288.456 361.372,288.31 361.718,288.017C362.064,287.724 362.236,287.317 362.236,286.798C362.236,286.372 362.098,286.025 361.82,285.758C361.543,285.49 361.092,285.247 360.467,285.028C359.67,284.751 359.088,284.433 358.721,284.073C358.354,283.714 358.17,283.253 358.17,282.69C358.17,282.011 358.403,281.467 358.87,281.059C359.337,280.65 359.955,280.446 360.725,280.446C361.068,280.446 361.407,280.492 361.741,280.584C362.075,280.676 362.408,280.821 362.74,281.021L362.389,281.595C362.111,281.431 361.834,281.31 361.557,281.231C361.279,281.153 360.977,281.114 360.649,281.114C360.133,281.114 359.715,281.248 359.395,281.516C359.074,281.783 358.914,282.148 358.914,282.608C358.914,283.011 359.059,283.342 359.348,283.602C359.637,283.861 360.109,284.105 360.766,284.331C361.551,284.601 362.116,284.919 362.462,285.286C362.808,285.653 362.981,286.13 362.981,286.716C362.981,287.439 362.746,288.023 362.277,288.468C361.809,288.913 361.166,289.136 360.35,289.136C359.865,289.136 359.421,289.069 359.017,288.937C358.612,288.804 358.221,288.595 357.842,288.31Z" style="fill:#7ca5d1;fill-rule:nonzero;"/>
                        <rect x="364.814" y="280.587" width="0.744" height="8.402" style="fill:#7ca5d1;fill-rule:nonzero;"/>
                        <path d="M372.806,281.261L370.392,281.267L370.386,288.989L369.647,288.989L369.647,281.261L367.228,281.267L367.228,280.587L372.817,280.587L372.806,281.261Z" style="fill:#7ca5d1;fill-rule:nonzero;"/>
                        <path d="M372.647,288.989L375.84,280.587L376.579,280.587L379.754,288.989L378.928,288.989L378.008,286.523L374.364,286.523L373.467,288.989L372.647,288.989ZM374.622,285.849L377.762,285.849L376.368,282.046C376.332,281.956 376.303,281.86 376.28,281.759C376.256,281.657 376.229,281.55 376.198,281.437L376.174,281.437C376.147,281.562 376.12,281.673 376.092,281.771C376.065,281.868 376.036,281.956 376.004,282.034L374.622,285.849Z" style="fill:#7ca5d1;fill-rule:nonzero;"/>
                        <path d="M385.15,281.261L382.736,281.267L382.73,288.989L381.992,288.989L381.992,281.261L379.572,281.267L379.572,280.587L385.162,280.587L385.15,281.261Z" style="fill:#7ca5d1;fill-rule:nonzero;"/>
                    </g>
                    <g id="windows1" serif:id="windows">
                        <g>
                            <rect x="137.385" y="235.048" width="19.754" height="36.878" style="fill:#7ca5d1;"/>
                            <rect x="139.648" y="237.457" width="15.442" height="4.903" style="fill:#9abce4;"/>
                            <rect x="139.648" y="264.169" width="15.442" height="4.903" style="fill:#9abce4;"/>
                            <rect x="139.648" y="244.961" width="15.442" height="17.052" style="fill:#9abce4;"/>
                        </g>
                        <g>
                            <rect x="179.653" y="235.048" width="19.754" height="36.878" style="fill:#7ca5d1;"/>
                            <rect x="181.915" y="237.457" width="15.442" height="4.903" style="fill:#9abce4;"/>
                            <rect x="181.915" y="264.169" width="15.442" height="4.903" style="fill:#9abce4;"/>
                            <rect x="181.915" y="244.961" width="15.442" height="17.052" style="fill:#9abce4;"/>
                        </g>
                        <g>
                            <rect x="221.92" y="235.048" width="19.754" height="36.878" style="fill:#7ca5d1;"/>
                            <rect x="224.183" y="237.457" width="15.442" height="4.903" style="fill:#9abce4;"/>
                            <rect x="224.183" y="264.169" width="15.442" height="4.903" style="fill:#9abce4;"/>
                            <rect x="224.183" y="244.961" width="15.442" height="17.052" style="fill:#9abce4;"/>
                        </g>
                        <g>
                            <rect x="264.188" y="235.048" width="19.754" height="36.878" style="fill:#7ca5d1;"/>
                            <rect x="266.451" y="237.457" width="15.442" height="4.903" style="fill:#9abce4;"/>
                            <rect x="266.451" y="264.169" width="15.442" height="4.903" style="fill:#9abce4;"/>
                            <rect x="266.451" y="244.961" width="15.442" height="17.052" style="fill:#9abce4;"/>
                        </g>
                        <g>
                            <rect x="306.455" y="235.048" width="19.754" height="36.878" style="fill:#7ca5d1;"/>
                            <rect x="308.718" y="237.457" width="15.442" height="4.903" style="fill:#9abce4;"/>
                            <rect x="308.718" y="264.169" width="15.442" height="4.903" style="fill:#9abce4;"/>
                            <rect x="308.718" y="244.961" width="15.442" height="17.052" style="fill:#9abce4;"/>
                        </g>
                        <g>
                            <rect x="348.723" y="235.048" width="19.754" height="36.878" style="fill:#7ca5d1;"/>
                            <rect x="350.986" y="237.457" width="15.442" height="4.903" style="fill:#9abce4;"/>
                            <rect x="350.986" y="264.169" width="15.442" height="4.903" style="fill:#9abce4;"/>
                            <rect x="350.986" y="244.961" width="15.442" height="17.052" style="fill:#9abce4;"/>
                        </g>
                        <g>
                            <rect x="390.991" y="235.048" width="19.754" height="36.878" style="fill:#7ca5d1;"/>
                            <rect x="393.254" y="237.457" width="15.442" height="4.903" style="fill:#9abce4;"/>
                            <rect x="393.254" y="264.169" width="15.442" height="4.903" style="fill:#9abce4;"/>
                            <rect x="393.254" y="244.961" width="15.442" height="17.052" style="fill:#9abce4;"/>
                        </g>
                        <g>
                            <rect x="433.258" y="235.048" width="19.754" height="36.878" style="fill:#7ca5d1;"/>
                            <rect x="435.521" y="237.457" width="15.442" height="4.903" style="fill:#9abce4;"/>
                            <rect x="435.521" y="264.169" width="15.442" height="4.903" style="fill:#9abce4;"/>
                            <rect x="435.521" y="244.961" width="15.442" height="17.052" style="fill:#9abce4;"/>
                        </g>
                        <g>
                            <rect x="475.526" y="235.048" width="19.754" height="36.878" style="fill:#7ca5d1;"/>
                            <rect x="477.789" y="237.457" width="15.442" height="4.903" style="fill:#9abce4;"/>
                            <rect x="477.789" y="264.169" width="15.442" height="4.903" style="fill:#9abce4;"/>
                            <rect x="477.789" y="244.961" width="15.442" height="17.052" style="fill:#9abce4;"/>
                        </g>
                    </g>
                </g>
            </g>
        </g>
        <rect x="230.932" y="275.203" width="164.609" height="16.471" style="fill:#e3eefa;"/>
        <g id="text">
            <g id="oops">
                <path d="M156.883,83.708C157.312,87.81 158.382,90.678 160.094,92.31C161.805,93.944 163.973,94.621 166.598,94.346C169.295,94.065 171.292,92.97 172.586,91.059C173.88,89.149 174.29,85.921 173.815,81.376C173.415,77.552 172.351,74.837 170.624,73.233C168.896,71.632 166.712,70.967 164.07,71.245C161.538,71.509 159.599,72.618 158.253,74.57C156.906,76.524 156.45,79.569 156.883,83.708M144.322,84.964C143.628,78.332 144.935,72.975 148.245,68.891C151.553,64.81 156.507,62.425 163.103,61.734C169.866,61.027 175.266,62.298 179.304,65.546C183.342,68.794 185.704,73.688 186.388,80.229C186.884,84.978 186.492,88.956 185.212,92.162C183.932,95.37 181.869,97.977 179.025,99.983C176.18,101.99 172.504,103.227 167.995,103.699C163.413,104.179 159.545,103.846 156.389,102.701C153.234,101.556 150.558,99.501 148.362,96.534C146.165,93.571 144.818,89.714 144.322,84.964" style="fill:#0065bd;fill-rule:nonzero;"/>
                <path d="M202.948,84.522C203.222,87.145 203.956,89.029 205.15,90.176C206.344,91.322 207.745,91.809 209.352,91.642C210.978,91.471 212.248,90.712 213.163,89.365C214.078,88.018 214.392,85.977 214.106,83.244C213.839,80.693 213.114,78.849 211.931,77.712C210.746,76.575 209.379,76.087 207.827,76.25C206.182,76.421 204.89,77.198 203.951,78.575C203.012,79.951 202.677,81.935 202.948,84.522M191.642,85.731C191.172,81.242 192.3,77.383 195.027,74.156C197.753,70.928 201.693,69.045 206.849,68.507C212.743,67.891 217.375,69.133 220.744,72.237C223.452,74.738 225.017,78.002 225.439,82.029C225.912,86.558 224.799,90.423 222.099,93.629C219.398,96.835 215.397,98.715 210.094,99.269C205.364,99.764 201.412,98.964 198.243,96.866C194.347,94.267 192.147,90.555 191.642,85.731" style="fill:#0065bd;fill-rule:nonzero;"/>
                <path d="M242.253,80.439C242.496,82.767 243.166,84.444 244.264,85.469C245.361,86.494 246.658,86.927 248.154,86.771C249.466,86.633 250.509,85.978 251.283,84.804C252.057,83.63 252.309,81.751 252.038,79.163C251.789,76.779 251.144,75.078 250.103,74.057C249.062,73.034 247.876,72.594 246.546,72.733C245.105,72.884 243.963,73.575 243.12,74.8C242.277,76.029 241.988,77.907 242.253,80.439M233.646,107.454L229.397,66.821L239.957,65.716L240.412,70.067C241.68,68.087 242.89,66.709 244.042,65.934C245.595,64.894 247.371,64.269 249.366,64.061C253.302,63.648 256.503,64.837 258.971,67.622C261.439,70.409 262.904,74.02 263.368,78.455C263.881,83.352 263.098,87.212 261.02,90.035C258.943,92.857 256.112,94.457 252.528,94.832C250.791,95.013 249.176,94.883 247.682,94.441C246.188,93.999 244.816,93.257 243.568,92.211L245.038,106.263L233.646,107.454Z" style="fill:#0065bd;fill-rule:nonzero;"/>
                <path d="M267.429,84.335L278.516,82.11C279.117,83.392 279.864,84.276 280.755,84.764C281.646,85.248 282.785,85.42 284.171,85.275C285.685,85.115 286.825,84.671 287.589,83.937C288.186,83.39 288.446,82.758 288.37,82.037C288.286,81.225 287.796,80.642 286.9,80.289C286.257,80.039 284.599,79.821 281.928,79.633C277.939,79.361 275.152,79.012 273.567,78.592C271.981,78.167 270.594,77.32 269.406,76.045C268.217,74.771 267.53,73.244 267.344,71.473C267.142,69.535 267.531,67.806 268.511,66.286C269.492,64.765 270.934,63.553 272.839,62.655C274.744,61.756 277.359,61.133 280.685,60.785C284.196,60.417 286.815,60.416 288.544,60.776C290.272,61.137 291.754,61.823 292.989,62.833C294.225,63.844 295.313,65.27 296.253,67.115L285.665,69.288C285.289,68.373 284.755,67.729 284.062,67.354C283.112,66.854 282.01,66.67 280.754,66.802C279.479,66.935 278.574,67.258 278.039,67.771C277.504,68.283 277.271,68.864 277.338,69.51C277.413,70.229 277.84,70.735 278.618,71.025C279.395,71.319 281.037,71.481 283.545,71.517C287.339,71.551 290.192,71.85 292.1,72.416C294.009,72.98 295.521,73.915 296.638,75.215C297.755,76.517 298.401,78.008 298.577,79.688C298.754,81.386 298.414,83.092 297.557,84.804C296.699,86.517 295.215,87.965 293.107,89.147C290.999,90.326 288.041,91.118 284.235,91.517C278.858,92.079 274.948,91.71 272.506,90.417C270.064,89.122 268.371,87.094 267.429,84.335" style="fill:#0065bd;fill-rule:nonzero;"/>
                <path d="M304.49,83.061L315.731,84.345L314.596,94.284L303.356,93L304.49,83.061ZM307.574,52.363L319.618,53.739L318.563,62.987L314.116,81.3L306.667,80.449L306.519,61.612L307.574,52.363Z" style="fill:#0065bd;fill-rule:nonzero;"/>
            </g>
            <g id="_404" serif:id="404">
                <clipPath id="_clip1">
                    <rect x="45.098" y="143.033" width="522.144" height="195.337" clip-rule="nonzero"/>
                </clipPath>
                <g clip-path="url(#_clip1)">
                    <g>
                        <path d="M135.034,270.416L131.41,270.722L134.427,263.215L135.034,270.416ZM211.75,323.387L207.717,275.603L197.278,265.163L188.392,265.913L186.983,249.216L176.543,238.776L143.112,241.597L170.119,174.377L159.679,163.937L111.861,167.972L62.651,285.204L65.956,324.371L76.396,334.811L138.632,329.558L140.328,349.65L150.768,360.09L196.018,356.271L193.373,324.938L211.75,323.387Z" style="fill:#0065bd;fill-rule:nonzero;"/>
                        <g opacity="0.61">
                            <path d="M135.034,270.416L131.41,270.722L134.427,263.215L135.034,270.416ZM211.75,323.387L207.717,275.603L197.278,265.163L188.392,265.913L186.983,249.216L176.543,238.776L143.112,241.597L170.119,174.377L159.679,163.937L111.861,167.972L62.651,285.204L65.956,324.371L76.396,334.811L138.632,329.558L140.328,349.65L150.768,360.09L196.018,356.271L193.373,324.938L211.75,323.387Z" style="fill:#0a2d57;fill-rule:nonzero;"/>
                        </g>
                        <path d="M201.31,313.226L182.933,314.777L185.578,346.109L140.328,349.928L137.683,318.596L65.956,324.649L62.651,285.483L111.861,168.251L159.679,164.215L116.262,272.279L135.034,270.694L132.676,242.756L176.543,239.054L178.9,266.992L197.277,265.441L201.31,313.226Z" style="fill:#0065bd;fill-rule:nonzero;"/>
                    </g>
                    <g>
                        <path d="M324.009,293.992C321.846,329.301 313.229,339.799 302.482,339.141C293.76,338.606 287.329,330.949 286.37,309.211C286.433,307.494 286.514,305.728 286.627,303.881C288.79,268.571 297.407,258.073 308.154,258.731C316.876,259.266 323.307,266.923 324.266,288.661C324.204,290.379 324.122,292.145 324.009,293.992M311.183,197.119C267.961,194.471 234.973,227.629 231.256,288.309C230.904,294.046 230.845,299.568 231.057,304.872C228.962,362.936 257.285,398.17 299.453,400.753C342.676,403.401 375.663,370.243 379.38,309.564C379.732,303.828 379.792,298.305 379.579,293.001C381.674,234.936 353.352,199.703 311.183,197.119" style="fill:#0065bd;fill-rule:nonzero;"/>
                        <g opacity="0.61">
                            <path d="M324.009,293.992C321.846,329.301 313.229,339.799 302.482,339.141C293.76,338.606 287.329,330.949 286.37,309.211C286.433,307.494 286.514,305.728 286.627,303.881C288.79,268.571 297.407,258.073 308.154,258.731C316.876,259.266 323.307,266.923 324.266,288.661C324.204,290.379 324.122,292.145 324.009,293.992M311.183,197.119C267.961,194.471 234.973,227.629 231.256,288.309C230.904,294.046 230.845,299.568 231.057,304.872C228.962,362.936 257.285,398.17 299.453,400.753C342.676,403.401 375.663,370.243 379.38,309.564C379.732,303.828 379.792,298.305 379.579,293.001C381.674,234.936 353.352,199.703 311.183,197.119" style="fill:#0a2d57;fill-rule:nonzero;"/>
                        </g>
                        <path d="M324.009,294.271C326.172,258.961 318.902,247.489 308.155,246.831C297.407,246.172 288.791,256.67 286.627,291.981C284.464,327.29 291.734,338.761 302.482,339.42C313.229,340.078 321.846,329.58 324.009,294.271M231.256,288.588C234.973,227.908 267.961,194.75 311.183,197.398C354.405,200.046 383.098,236.983 379.38,297.664C375.663,358.342 342.676,391.5 299.453,388.852C256.231,386.204 227.538,349.267 231.256,288.588" style="fill:#0065bd;fill-rule:nonzero;"/>
                    </g>
                    <g>
                        <path d="M480.848,272.415L475.234,271.968L481.651,262.325L480.848,272.415ZM564.841,279.096L544.516,277.48L546.739,249.53L498.22,245.671L488.922,251.397L541.181,172.856L488.292,168.649L472.632,173.869L398.787,281.029L395.67,320.211L475.005,326.522L472.511,357.867L522.56,361.848L538.22,356.628L540.203,331.708L545.379,332.12L561.039,326.9L564.841,279.096Z" style="fill:#0065bd;fill-rule:nonzero;"/>
                        <g opacity="0.61">
                            <path d="M480.848,272.415L475.234,271.968L481.651,262.325L480.848,272.415ZM564.841,279.096L544.516,277.48L546.739,249.53L498.22,245.671L488.922,251.397L541.181,172.856L488.292,168.649L472.632,173.869L398.787,281.029L395.67,320.211L475.005,326.522L472.511,357.867L522.56,361.848L538.22,356.628L540.203,331.708L545.379,332.12L561.039,326.9L564.841,279.096Z" style="fill:#0a2d57;fill-rule:nonzero;"/>
                        </g>
                        <path d="M561.039,326.9L540.713,325.283L538.22,356.628L488.171,352.647L490.664,321.302L411.33,314.992L414.446,275.809L488.291,168.649L541.181,172.856L475.234,271.969L495.997,273.62L498.22,245.671L546.739,249.53L544.516,277.48L564.841,279.096L561.039,326.9Z" style="fill:#0065bd;fill-rule:nonzero;"/>
                    </g>
                </g>
            </g>
        </g>
        <g id="people">
            <g id="girl">
                <path d="M599.963,251.581C599.712,251.739 599.382,251.663 599.224,251.412L598.384,250.075C598.226,249.825 598.302,249.494 598.552,249.337C598.803,249.179 599.134,249.255 599.291,249.505L600.132,250.842C600.289,251.093 600.214,251.424 599.963,251.581" style="fill:#5e9dcc;fill-rule:nonzero;"/>
                <path d="M603.279,263.821L603.118,263.922C601.765,264.773 599.979,264.365 599.128,263.012L595.059,256.537L600.119,253.356L604.189,259.832C605.039,261.185 604.632,262.971 603.279,263.821" style="fill:#5e9dcc;fill-rule:nonzero;"/>
                <path d="M599.451,256.448L599.29,256.549C597.937,257.4 596.151,256.992 595.3,255.639L592.067,250.495C591.605,249.76 591.826,248.789 592.561,248.327L593.841,247.523C595.194,246.673 596.98,247.08 597.831,248.433L600.361,252.459C601.211,253.812 600.804,255.598 599.451,256.448" style="fill:#3070b3;fill-rule:nonzero;"/>
                <path d="M583.534,248.132C583.625,248.432 587.913,254.257 587.825,254.106L590.856,250.542L585.787,246.61L583.534,248.132Z" style="fill:#5e94d4;fill-rule:nonzero;"/>
                <path d="M586.526,246.391L585.938,251.551L583.419,248.004L586.526,246.391Z" style="fill:#4470b2;fill-rule:nonzero;"/>
                <path d="M588.266,243.744C589.109,246.124 587.863,248.737 585.483,249.58C583.102,250.423 580.489,249.177 579.646,246.797C578.803,244.417 580.049,241.804 582.43,240.961C584.81,240.118 587.423,241.364 588.266,243.744" style="fill:#5e94d4;fill-rule:nonzero;"/>
                <clipPath id="_clip2">
                    <path d="M582.431,240.96C580.05,241.803 578.804,244.416 579.647,246.796C580.49,249.177 583.103,250.422 585.484,249.58C587.864,248.737 589.11,246.124 588.266,243.744C587.603,241.868 585.839,240.696 583.956,240.696C583.45,240.696 582.935,240.781 582.431,240.96Z" clip-rule="nonzero"/>
                </clipPath>
                <g clip-path="url(#_clip2)">
                    <path d="M579.896,242.324C579.896,242.324 580.514,244.441 584.206,245.461L585.04,245.862C585.04,245.862 586.922,249.181 590.136,247.82C590.136,247.82 591.295,243.859 586.537,240.961C583.079,238.855 579.896,242.324 579.896,242.324" style="fill:#0a2d57;fill-rule:nonzero;"/>
                </g>
                <path d="M579.805,247.208L579.629,248.307C579.608,248.439 579.727,248.55 579.857,248.519L580.6,248.342L579.805,247.208Z" style="fill:#5e94d4;fill-rule:nonzero;"/>
                <path d="M586.693,245.266C586.657,246.071 585.976,246.695 585.171,246.659C584.366,246.623 583.742,245.942 583.778,245.136C583.813,244.331 584.495,243.708 585.3,243.744C586.105,243.779 586.729,244.461 586.693,245.266" style="fill:#5e94d4;fill-rule:nonzero;"/>
                <path d="M584.667,245.702C584.667,245.702 584.604,244.785 585.576,244.582" style="fill:none;fill-rule:nonzero;stroke:#4470b2;stroke-width:0.18px;"/>
                <path d="M592.474,240.685C592.512,242.418 591.138,243.853 589.406,243.891C587.673,243.93 586.238,242.556 586.199,240.823C586.161,239.091 587.535,237.655 589.268,237.617C591,237.579 592.436,238.952 592.474,240.685" style="fill:#0a2d57;fill-rule:nonzero;"/>
                <path d="M580.624,246.25C580.674,246.391 580.6,246.545 580.46,246.595C580.319,246.645 580.164,246.571 580.115,246.43C580.065,246.29 580.138,246.135 580.279,246.086C580.42,246.036 580.574,246.109 580.624,246.25" style="fill:#0a2d57;fill-rule:nonzero;"/>
                <path d="M579.796,245.364C579.796,245.364 580.189,245.014 580.763,245.269" style="fill:none;fill-rule:nonzero;stroke:#0a2d57;stroke-width:0.24px;"/>
                <path d="M581.35,248.588C581.35,248.588 581.35,248.242 581.82,248.203" style="fill:none;fill-rule:nonzero;stroke:#4470b2;stroke-width:0.18px;"/>
                <path d="M609.492,320.924L613.199,323.561L615.408,319.586L611.567,316.835L609.492,320.924Z" style="fill:#5e94d4;fill-rule:nonzero;"/>
                <path d="M612.024,323.904L615.537,318.966L620.778,322.537L614.096,331.93C613.783,332.369 613.09,332.109 613.144,331.572L613.97,325.335L612.024,323.904Z" style="fill:#0a2d57;fill-rule:nonzero;"/>
                <path d="M597.981,274.616L588.246,276.304C588.246,276.304 579.762,302.538 608.605,322.942C608.605,322.942 611.734,320.577 614.27,315.979C614.27,315.979 592.174,302.685 597.981,274.616" style="fill:#0c3966;fill-rule:nonzero;"/>
                <path d="M575.906,327.107L575.906,331.656L580.587,331.656L580.602,326.932L575.906,327.107Z" style="fill:#5e94d4;fill-rule:nonzero;"/>
                <path d="M575.052,331.234L581.113,331.234L581.24,337.575L569.713,337.575C569.174,337.575 568.984,336.859 569.453,336.592L575.014,333.65L575.052,331.234Z" style="fill:#0a2d57;fill-rule:nonzero;"/>
                <path d="M587.774,268.376L588.177,270.384C588.177,270.384 574.57,289.931 573.881,328.308C573.881,328.308 578.62,329.352 582.699,328.308C582.699,328.308 582.156,295.894 595.658,281.102C595.658,281.102 601.993,275.804 598.383,267.189L587.774,268.376Z" style="fill:#114584;fill-rule:nonzero;"/>
                <path d="M588.274,270.37L599.076,269.395" style="fill:none;fill-rule:nonzero;stroke:#184a7c;stroke-width:0.24px;"/>
                <path d="M581.648,270.17C576.957,270.289 571.61,266.832 567.231,262.655C565.936,261.42 566.649,260.775 567.884,259.481C569.12,258.186 571.17,258.137 572.465,259.373C575.844,262.595 579.178,264.025 582.38,263.623C588.332,262.875 592.546,256.241 592.588,256.174C593.535,254.66 595.532,254.193 597.048,255.136C598.565,256.078 599.036,258.066 598.098,259.585C597.864,259.965 592.264,268.885 583.234,270.048C582.704,270.116 582.176,270.157 581.648,270.17" style="fill:#5e94d4;fill-rule:nonzero;"/>
                <clipPath id="_clip3">
                    <path d="M592.588,256.173C592.546,256.24 588.332,262.875 582.379,263.623C579.178,264.024 575.844,262.595 572.465,259.372C571.171,258.137 569.12,258.185 567.884,259.48C566.649,260.775 565.936,261.419 567.231,262.654C571.61,266.832 576.957,270.288 581.648,270.169C582.175,270.157 582.704,270.115 583.235,270.047C592.264,268.885 597.864,259.964 598.098,259.585C599.036,258.065 598.564,256.077 597.048,255.136C596.517,254.805 595.927,254.648 595.344,254.648C594.262,254.648 593.203,255.19 592.588,256.173Z" clip-rule="nonzero"/>
                </clipPath>
                <g clip-path="url(#_clip3)">
                    <path d="M586.563,260.777L586.388,271.354L594.427,268.658L589.662,259.216L586.563,260.777Z" style="fill:#4470b2;fill-rule:nonzero;"/>
                </g>
                <path d="M572.576,260.611L572.452,259.575L572.906,259.782L571.481,256.926C571.363,256.69 571.201,256.474 570.986,256.322C570.49,255.973 570.092,256.126 569.737,256.088C569.144,256.024 569.327,256.202 569.318,256.799C568.697,256.809 567.416,257.087 566.711,254.344C566.561,253.758 565.952,253.398 565.365,253.545C564.476,253.767 566.017,253.356 565.974,253.758C565.972,253.774 565.974,253.791 565.973,253.808C565.762,253.611 565.459,253.521 565.158,253.596C564.788,253.688 564.531,254.001 564.492,254.359C564.487,254.406 564.487,254.454 564.489,254.503C564.35,254.466 564.202,254.459 564.052,254.496C563.682,254.588 563.425,254.901 563.387,255.259C563.376,255.36 563.383,255.463 563.408,255.567C563.417,255.604 563.428,255.638 563.438,255.675C563.422,255.678 563.406,255.678 563.391,255.681C563.021,255.773 563.003,255.94 562.964,256.298C562.953,256.399 562.96,256.502 562.986,256.606C563.179,257.383 563.371,257.695 563.661,258.277L563.659,258.277C563.659,258.277 563.665,258.288 563.673,258.303C563.811,258.577 563.96,258.827 564.118,259.056C565.014,260.486 567.265,263.287 569.824,263.919C573.229,264.759 572.576,260.611 572.576,260.611" style="fill:#5e94d4;fill-rule:nonzero;"/>
                <path d="M561.589,252.282L561.606,252.793C561.61,252.954 561.668,253.108 561.771,253.231L568.171,260.912C568.353,261.131 568.701,261.412 568.985,261.405L571.794,261.334C572.101,261.327 572.435,261.035 572.577,260.658L564.149,252.558L561.589,252.282Z" style="fill:#03081d;fill-rule:nonzero;"/>
                <path d="M561.661,252.477L568.658,260.688C568.8,260.855 569.008,260.949 569.226,260.947L572.28,260.911C572.516,260.908 572.641,260.631 572.487,260.452L565.504,252.328C565.315,252.108 565.037,251.982 564.746,251.986L561.869,252.019C561.634,252.022 561.508,252.298 561.661,252.477" style="fill:#0a2d57;fill-rule:nonzero;"/>
                <path d="M562.899,252.758L569.242,260.202C569.343,260.32 569.491,260.388 569.647,260.386L571.384,260.366C571.594,260.363 571.705,260.117 571.569,259.958L565.367,252.744C565.199,252.548 564.952,252.436 564.693,252.439L563.035,252.458C562.881,252.46 562.799,252.641 562.899,252.758" style="fill:#f7f4ed;fill-rule:nonzero;"/>
                <path d="M570.402,256.096L568.858,255.86C568.208,255.76 567.696,256.404 567.939,257.014C568.017,257.211 568.166,257.371 568.355,257.464L571.132,258.823L570.723,257.033L570.402,256.096Z" style="fill:#5e94d4;fill-rule:nonzero;"/>
                <path d="M586.689,254.365C586.689,254.365 585.657,253.231 587.535,251.15C589.703,248.746 590.901,249.512 591.923,249.978L586.689,254.365Z" style="fill:#fff;fill-rule:nonzero;"/>
                <path d="M598.384,267.189C598.384,267.189 595.476,263.043 595.854,259.815C596.231,256.586 597.011,250.938 592.543,249.492C592.543,249.492 590.57,249.498 588.848,251.2C587.368,252.484 583.83,256.093 585.714,259.928C585.948,260.403 586.184,260.774 586.42,261.058C586.59,263.112 587.082,265.877 587.845,268.725L598.384,267.189Z" style="fill:#fff;fill-rule:nonzero;"/>
                <path d="M593.295,259.342L595.918,267.464L599.846,267.031L592.356,255.235L593.295,259.342Z" style="fill:#e3eefa;fill-rule:nonzero;"/>
                <path d="M593.675,248.97C593.675,248.97 589.191,250.76 589.086,255.527C588.981,260.295 592.566,264.07 596.566,263.764" style="fill:none;fill-rule:nonzero;stroke:#3070b3;stroke-width:1px;stroke-linecap:butt;stroke-linejoin:miter;"/>
                <path d="M602.369,282.373C602.387,282.514 602.416,282.651 602.449,282.785L600.826,285.75C600.611,286.143 600.672,286.629 600.979,286.956C601.395,287.4 602.104,287.39 602.509,286.935L602.84,286.561C603.331,286.97 603.925,287.958 602.593,290.602C602.369,291.047 602.548,291.589 602.992,291.813C603.34,291.988 603.747,291.917 604.015,291.666C604.027,291.654 604.037,291.64 604.049,291.627C604.082,291.92 604.256,292.191 604.538,292.334C604.886,292.509 605.293,292.438 605.561,292.186C605.596,292.153 605.628,292.117 605.658,292.077C605.741,292.198 605.852,292.303 605.992,292.373C606.339,292.548 606.746,292.478 607.015,292.226C607.09,292.156 607.154,292.071 607.203,291.974C607.22,291.939 607.234,291.906 607.251,291.871C607.266,291.879 607.278,291.89 607.292,291.897C607.64,292.072 608.047,292.001 608.315,291.75C608.39,291.679 608.454,291.595 608.503,291.498C608.871,290.768 609.133,290.08 609.296,289.437L609.298,289.438C609.298,289.438 609.3,289.426 609.304,289.408C609.38,289.105 609.431,288.813 609.461,288.531C609.672,287.144 609.928,284.433 609.174,282.29C609.199,282.037 609.2,281.778 609.166,281.515C607.65,269.508 602.462,260.384 598.79,255.235L593.296,259.342C596.475,263.836 601.044,271.877 602.369,282.373" style="fill:#5e94d4;fill-rule:nonzero;"/>
                <path d="M594.953,250.512C593.626,249.164 591.462,249.152 590.109,250.473C588.76,251.8 588.743,253.97 590.07,255.318C590.107,255.356 591.473,256.767 593.295,259.342L598.789,255.235C596.717,252.329 595.127,250.689 594.953,250.512" style="fill:#fff;fill-rule:nonzero;"/>
                <path d="M593.295,259.342L590.07,255.318" style="fill:none;fill-rule:nonzero;stroke:#9abce4;stroke-width:0.24px;"/>
            </g>
            <g id="boy">
                <path d="M336.549,165.676L329.135,179.736L309.553,179.736L309.553,177.979L328.696,177.979L335.545,165.015L336.549,165.676Z" style="fill:#114584;fill-rule:nonzero;"/>
                <path d="M309.267,150.495C309.368,152.861 308.838,154.881 306.833,154.966C304.827,155.052 302.158,154.177 302.005,150.804C301.898,148.438 303.449,146.451 305.454,146.366C307.459,146.28 309.166,148.129 309.267,150.495" style="fill:#5e94d4;"/>
                <path d="M305.384,156.885C305.384,156.885 304.059,156.965 302.665,156.406C301.018,155.745 300.804,155.164 300.804,155.164L303.419,150.822L306.866,152.896L305.384,156.885Z" style="fill:#5e94d4;"/>
                <path d="M308.859,150.377C308.859,150.377 309.675,151.944 309.595,152.199C309.515,152.453 308.788,152.486 308.788,152.486" style="fill:#5e94d4;"/>
                <path d="M304.143,150.696C304.452,151.297 305.332,151.706 305.677,150.63C306.022,149.554 305.885,149.25 306.429,149.138C307.113,148.996 306.92,149.493 309.26,149.646C310.658,149.737 311.303,148.677 311.146,147.917C311.049,147.451 310.785,146.786 309.913,146.634C308.667,146.415 309.066,146.679 308.265,146.422C307.464,146.165 307.154,145.477 305.876,145.421C304.598,145.365 303.89,146.365 303.89,146.365C303.89,146.365 302.858,145.894 302.031,147.035C301.254,148.106 301.727,148.552 301.253,149.637C300.839,150.584 301.134,152.197 301.611,152.67C302.866,153.916 304.126,152.721 304.126,152.721C304.126,152.721 302.84,150.564 303.78,150.628" style="fill:#212237;fill-rule:nonzero;"/>
                <path d="M304.631,150.788C304.631,150.788 304.296,150.118 303.65,150.453C302.815,150.887 303.445,152.36 303.955,152.691C304.465,153.023 304.768,152.438 304.768,152.438" style="fill:#5e94d4;fill-rule:nonzero;"/>
                <path d="M320.022,226.508L319.958,227.042L331.876,228.47L331.94,227.936L320.022,226.508Z" style="fill:#3c71a5;"/>
                <path d="M322.242,222.31L321.182,222.43C321.182,222.43 320.627,223.731 320.364,224.651C320.1,225.571 320.022,226.509 320.022,226.509L331.94,227.936C331.94,227.936 331.752,226.866 329.106,224.862C328.063,224.072 327.582,223.253 327.582,223.253L322.242,222.31Z" style="fill:#0a2d57;fill-rule:nonzero;"/>
                <path d="M319.648,214.211L321.181,222.43C321.181,222.43 321.61,223.095 323.634,223.337C325.658,223.58 327.582,223.253 327.582,223.253L326.613,212.778" style="fill:#5e94d4;fill-rule:nonzero;"/>
                <path d="M328.273,193.026L330.142,220.685L319.253,222.105L317.088,197.649" style="fill:#09233d;fill-rule:nonzero;"/>
                <g opacity="0.25">
                    <clipPath id="_clip4">
                        <path d="M319.067,220.222L330.018,220.161L330.028,218.493L319.077,218.553L319.067,220.222Z" clip-rule="nonzero"/>
                    </clipPath>
                    <g clip-path="url(#_clip4)">
                        <path d="M319.088,220.073L330.007,218.641" style="fill:none;fill-rule:nonzero;stroke:#5e94d4;stroke-width:0.3px;stroke-linecap:butt;stroke-linejoin:miter;"/>
                    </g>
                </g>
                <path d="M308.324,219.85L308.098,220.338L318.995,225.373L319.22,224.885L308.324,219.85Z" style="fill:#3c71a5;"/>
                <path d="M311.731,216.541L310.685,216.328C310.685,216.328 309.756,217.394 309.222,218.188C308.688,218.982 308.324,219.85 308.324,219.85L319.221,224.885C319.221,224.885 319.371,223.809 317.473,221.086C316.725,220.013 316.52,219.086 316.52,219.086L311.731,216.541Z" style="fill:#0a2d57;fill-rule:nonzero;"/>
                <path d="M312.286,213.383L310.685,216.328C310.685,216.328 310.888,217.093 312.738,217.948C314.589,218.803 316.52,219.085 316.52,219.085L319.794,214.058" style="fill:#5e94d4;fill-rule:nonzero;"/>
                <path d="M292.255,180.168C292.255,180.168 288.897,198.126 297.651,198.126C304.492,198.126 312.435,198.238 315.58,198.286C316.265,198.297 316.739,198.972 316.518,199.621L311.535,214.296L322.157,218.941C322.157,218.941 330.814,199.448 329.856,192.143C328.898,184.838 304.589,183.88 304.589,183.88L302.074,179.09" style="fill:#0a2d57;fill-rule:nonzero;"/>
                <g opacity="0.44">
                    <g>
                        <clipPath id="_clip5">
                            <rect x="296.169" y="182.366" width="26.768" height="35.037" clip-rule="nonzero"/>
                        </clipPath>
                        <g clip-path="url(#_clip5)">
                            <path d="M296.668,182.392C296.668,182.392 294.865,192.242 299.444,193.7C304.026,195.158 313.856,194.093 317.113,194.789C319.607,195.321 321.356,196.155 319.355,201.199L313.946,215.357" style="fill:none;fill-rule:nonzero;stroke:#497bb7;stroke-width:0.3px;stroke-linecap:butt;stroke-linejoin:miter;"/>
                            <path d="M303.4,183.656C302.972,186.911 296.381,188.14 296.381,188.14" style="fill:none;fill-rule:nonzero;stroke:#497bb7;stroke-width:0.3px;stroke-linecap:butt;stroke-linejoin:miter;"/>
                            <path d="M312.138,212.525L322.877,217.266" style="fill:none;fill-rule:nonzero;stroke:#497bb7;stroke-width:0.3px;stroke-linecap:butt;stroke-linejoin:miter;"/>
                        </g>
                    </g>
                </g>
                <path d="M322.482,178.872C323.309,178.817 327.049,178.629 327.051,178.853C327.052,179.068 325.818,179.328 325.882,179.435C325.974,179.586 326.935,179.584 327.473,179.533C327.953,179.488 328.731,179.494 328.778,179.7C328.867,180.093 326.23,180.308 326.23,180.308C326.193,180.266 328.988,179.461 329.131,179.867C329.293,180.327 326.301,181.024 326.222,181.153C326.222,181.153 328.643,179.832 328.759,180.174C328.874,180.516 326.741,181.749 326.02,181.873C326.593,181.66 328.301,180.46 328.385,180.709C328.47,180.959 326.916,181.816 326.671,181.896C324.661,182.552 322.694,182.562 322.694,182.562" style="fill:#5e94d4;fill-rule:nonzero;"/>
                <path d="M306.112,163.22C306.112,171.166 307.254,173.956 310.037,175.654C312.887,177.393 319.253,177.944 323.13,178.274L322.683,184.347C322.683,184.347 307.87,184.049 304.075,181.986C300.281,179.924 299.704,168.541 299.704,168.541" style="fill:#0065bd;fill-rule:nonzero;"/>
                <path d="M305.457,156.734C309.278,160.461 310.841,184.407 310.841,184.407C301.684,184.902 288.847,185.006 288.847,185.006C288.847,185.006 289.969,167.468 293.351,162.024C296.37,157.165 300.869,155.018 300.869,155.018C300.869,155.018 301.728,156.14 303.13,156.47C304.532,156.8 305.457,156.734 305.457,156.734" style="fill:#0065bd;fill-rule:nonzero;"/>
                <path d="M310.676,175.985C306.326,174.3 306.449,165.019 306.449,165.019" style="fill:none;fill-rule:nonzero;stroke:#0d5099;stroke-width:0.18px;"/>
                <path d="M310.779,183.539C310.779,183.539 304.349,183.52 301.356,178.012C298.362,172.503 297.914,166.298 297.914,166.298" style="fill:none;fill-rule:nonzero;stroke:#0d5099;stroke-width:0.18px;"/>
            </g>
        </g>
        <g id="bottom-line" serif:id="bottom line">
            <path d="M2.114,338.37L593.322,338.37" style="fill:none;fill-rule:nonzero;stroke:#0065bd;stroke-width:3px;"/>
            <path d="M604.966,338.37L629.204,338.37" style="fill:none;fill-rule:nonzero;stroke:#0065bd;stroke-width:3px;"/>
        </g>
    </g>
</svg>
