<?xml version="1.0" standalone="no"?>
<!DOCTYPE svg PUBLIC "-//W3C//DTD SVG 20010904//EN"
 "http://www.w3.org/TR/2001/REC-SVG-20010904/DTD/svg10.dtd">
<svg version="1.0" xmlns="http://www.w3.org/2000/svg"
 width="832.000000pt" height="832.000000pt" viewBox="0 0 832.000000 832.000000"
 preserveAspectRatio="xMidYMid meet">
<metadata>
Created by potrace 1.14, written by Peter Selinger 2001-2017
</metadata>
<g transform="translate(0.000000,832.000000) scale(0.100000,-0.100000)"
fill="#000000" stroke="none">
<path d="M4008 8305 c-2 -1 -39 -6 -83 -10 -142 -12 -292 -36 -435 -71 -58
-14 -112 -27 -120 -29 -33 -7 -209 -66 -270 -90 -36 -15 -69 -28 -75 -29 -5
-1 -28 -12 -50 -23 -22 -11 -44 -22 -50 -23 -25 -5 -226 -113 -291 -156 -28
-19 -56 -34 -62 -34 -6 0 -12 -4 -14 -8 -1 -4 -32 -28 -68 -52 -36 -25 -67
-47 -70 -50 -3 -3 -39 -32 -80 -65 -112 -89 -270 -242 -351 -340 -49 -59 -62
-74 -79 -93 -8 -10 -36 -47 -62 -82 -26 -36 -51 -70 -55 -76 -10 -13 -18 -25
-96 -154 -136 -224 -242 -469 -317 -730 -12 -41 -23 -84 -25 -95 -2 -11 -10
-46 -19 -78 -8 -32 -18 -75 -21 -95 -3 -21 -7 -47 -9 -57 -10 -52 -18 -107
-21 -142 -2 -21 -7 -72 -12 -113 -9 -91 -9 -450 0 -540 14 -132 17 -155 21
-175 3 -11 8 -42 12 -70 3 -27 10 -57 15 -66 4 -9 6 -19 3 -22 -14 -13 87
-353 155 -526 38 -95 112 -250 158 -331 11 -19 35 -62 53 -95 18 -33 58 -103
88 -155 30 -52 63 -110 74 -128 10 -18 43 -73 73 -123 30 -50 55 -94 55 -99 0
-4 4 -10 8 -12 4 -1 26 -32 47 -68 22 -36 69 -110 104 -165 36 -55 70 -108 76
-117 23 -40 318 -461 352 -503 5 -5 22 -28 38 -50 17 -22 33 -41 38 -43 4 -2
7 -8 7 -13 0 -5 28 -46 62 -91 34 -46 78 -105 98 -133 60 -82 94 -129 102
-140 95 -122 538 -777 538 -795 0 -4 3 -10 8 -12 7 -3 72 -104 132 -203 14
-23 70 -116 126 -206 238 -387 374 -612 374 -620 0 -5 4 -9 9 -9 5 0 11 -8 15
-17 3 -10 14 -33 25 -51 l20 -34 24 39 c13 21 43 70 66 108 23 39 60 99 82
134 21 34 39 65 39 67 0 8 55 89 63 92 4 2 7 12 7 22 0 11 6 23 13 27 6 4 18
19 25 32 8 13 23 40 34 60 11 20 33 55 49 79 16 24 29 45 29 46 0 2 29 50 64
107 36 57 84 136 107 174 23 39 46 72 51 73 4 2 8 8 8 13 0 10 326 504 411
624 23 33 55 78 71 100 16 22 39 56 52 75 13 19 49 69 79 110 31 41 66 90 79
108 13 18 28 39 33 45 6 7 53 71 105 142 52 72 98 135 103 140 4 6 29 40 55
76 26 37 55 77 64 90 57 78 226 323 268 389 87 136 256 408 298 480 152 261
218 378 303 540 25 48 94 201 104 230 1 3 5 14 9 25 26 68 46 125 56 160 6 22
14 47 17 55 8 18 7 15 22 70 7 25 14 52 16 60 2 8 8 33 13 55 6 22 13 54 16
70 3 17 8 44 11 60 60 310 68 714 19 1025 -3 19 -7 49 -9 65 -3 17 -7 41 -10
55 -4 14 -9 39 -11 55 -19 103 -131 476 -154 510 -3 6 -12 29 -20 53 -7 23
-18 42 -23 42 -6 0 -8 3 -5 6 5 5 -32 91 -63 147 -5 10 -26 48 -46 84 -66 123
-219 356 -268 409 -5 7 -26 31 -45 55 -93 114 -253 274 -374 372 -21 18 -43
37 -50 43 -30 28 -231 164 -243 164 -7 0 -13 4 -13 9 0 5 -16 18 -35 28 -283
149 -378 193 -553 252 -91 31 -298 87 -357 96 -16 3 -41 7 -55 10 -14 3 -40 7
-57 10 -18 3 -45 7 -60 9 -49 8 -107 16 -168 22 -64 6 -391 14 -397 9z m297
-919 c132 -12 334 -48 385 -69 8 -4 26 -9 40 -11 14 -3 63 -19 110 -36 47 -17
93 -34 103 -37 23 -7 194 -94 232 -118 64 -40 171 -110 181 -120 7 -5 31 -26
55 -45 79 -62 299 -291 299 -311 0 -4 4 -9 8 -11 9 -4 102 -136 102 -145 0 -4
6 -14 14 -22 22 -25 118 -218 153 -307 46 -118 46 -118 48 -129 2 -5 12 -40
23 -77 37 -119 60 -243 78 -413 12 -121 6 -385 -12 -495 -21 -131 -85 -388
-103 -415 -4 -5 -13 -28 -20 -50 -8 -21 -29 -72 -47 -111 -19 -39 -34 -76 -34
-82 0 -6 -3 -12 -8 -14 -4 -1 -43 -68 -86 -148 -43 -80 -84 -152 -91 -160 -7
-8 -25 -40 -41 -70 -16 -30 -31 -57 -34 -60 -12 -12 -140 -230 -140 -239 0 -5
-7 -12 -16 -15 -8 -3 -12 -10 -9 -16 3 -5 1 -10 -4 -10 -6 0 -11 -6 -11 -13 0
-8 -9 -22 -20 -32 -11 -10 -17 -21 -15 -25 3 -5 2 -10 -2 -12 -5 -1 -55 -75
-113 -162 -58 -88 -110 -164 -115 -170 -6 -6 -24 -31 -41 -56 -61 -91 -92
-133 -262 -365 -57 -77 -111 -151 -120 -164 -9 -12 -26 -35 -37 -49 -19 -25
-241 -336 -267 -376 -7 -10 -17 -24 -23 -30 -5 -6 -59 -85 -120 -176 -60 -91
-112 -167 -116 -170 -3 -3 -14 -21 -24 -40 -10 -18 -24 -40 -31 -48 -16 -15
-34 -8 -34 14 0 8 -4 14 -9 14 -5 0 -16 16 -25 35 -9 19 -21 35 -26 35 -6 0
-10 5 -10 11 0 8 -160 252 -193 294 -40 51 -247 349 -247 356 0 5 -3 9 -7 9
-5 0 -19 17 -33 38 -14 20 -27 39 -30 42 -3 3 -60 78 -125 168 -132 179 -140
190 -204 283 -25 35 -47 66 -50 69 -8 6 -36 47 -122 174 -38 55 -74 108 -79
116 -68 99 -129 197 -130 208 0 6 -4 12 -8 12 -5 0 -15 12 -23 28 -8 15 -17
32 -22 37 -19 25 -107 177 -107 186 0 5 -3 9 -8 9 -4 0 -18 21 -32 48 -13 26
-27 49 -30 52 -3 3 -12 19 -20 35 -8 17 -17 32 -20 35 -3 3 -16 25 -29 50 -13
25 -31 53 -39 63 -8 9 -11 17 -7 17 4 0 2 8 -6 18 -29 36 -124 219 -167 322
-126 305 -175 628 -148 980 7 92 9 110 20 175 4 28 33 162 41 195 24 91 39
137 47 148 6 6 8 12 5 12 -14 0 104 265 166 375 15 27 79 127 89 140 5 6 36
46 70 90 66 85 198 221 287 295 126 105 361 243 506 295 28 10 56 23 63 28 6
5 12 6 12 3 0 -4 8 -2 18 3 19 10 233 67 284 76 15 3 43 8 61 11 44 7 88 13
177 20 41 4 76 7 77 8 4 4 120 -2 198 -8z"/>
<path d="M4097 6094 c-1 -1 -24 -5 -51 -8 -193 -26 -393 -165 -492 -342 -93
-167 -116 -378 -58 -550 16 -50 64 -155 74 -164 3 -3 18 -23 35 -45 94 -127
260 -232 410 -261 50 -9 230 -10 270 -1 17 4 39 9 50 11 45 10 152 60 204 96
103 69 176 154 232 267 208 419 -48 912 -514 990 -30 5 -156 11 -160 7z"/>
</g>
</svg>
