<svg width="1750" height="590" xmlns="http://www.w3.org/2000/svg" xml:space="preserve"><path fill="#0065BD" d="M808 0h942v590H808zM0 0h751v590H0z"/><path fill="#FFF" d="M1279 100v320h-80V100H909v70h70v320h70V170h80v320h220V170h80v320h70V170h80v320h70V100zM130.6 110H101v-10h71.1v10h-29.6v79h-11.8v-79zm91.5 58.5a25.8 25.8 0 0 1-9.4 16.3 29 29 0 0 1-18.2 5.6c-5.2 0-9.6-.9-13.4-2.6-3.8-1.7-7-4-9.5-7a30 30 0 0 1-5.8-10.7 53 53 0 0 1-2.2-13.6c0-4.8.7-9.3 2.2-13.4 1.5-4.1 3.6-7.7 6.3-10.7a29 29 0 0 1 21.7-9.5 26.4 26.4 0 0 1 23.4 12.6c2.3 3.7 3.9 7.6 4.7 12a53 53 0 0 1 1.1 12.3h-48.2c-.1 2.8.2 5.5 1 8a18 18 0 0 0 10 11.4c2.6 1.2 5.6 1.7 9.1 1.7 4.4 0 8.1-1 11-3.1 2.9-2.1 4.8-5.2 5.7-9.5h10.5zm-10.4-17.9c-.2-2.5-.7-4.9-1.7-7.1a18 18 0 0 0-16.9-11.1c-2.7 0-5.2.5-7.4 1.4-2.2 1-4.1 2.3-5.7 3.9a20.5 20.5 0 0 0-5.3 12.8h37zm66.6-5.4a16 16 0 0 0-5.3-9.5 16.3 16.3 0 0 0-10.7-3.4 17.6 17.6 0 0 0-15.8 7.7 25 25 0 0 0-3.3 8 41.7 41.7 0 0 0 .1 18.1c.7 2.8 1.8 5.3 3.3 7.5a16.4 16.4 0 0 0 14.5 7.3c5.1 0 9.2-1.4 12.2-4.2 3-2.8 4.8-6.6 5.5-11.5h10.8c-1.2 7.9-4.2 14-9 18.4a27.7 27.7 0 0 1-19.4 6.6c-4.9 0-9.2-.8-13-2.4a26.2 26.2 0 0 1-15.2-17.2c-1.3-4-1.9-8.4-1.9-13.3 0-4.8.6-9.3 1.9-13.5 1.2-4.2 3.1-7.8 5.7-11 2.5-3.1 5.7-5.6 9.5-7.3a37.7 37.7 0 0 1 23.7-1.4c3.2.9 6 2.2 8.5 4a20 20 0 0 1 6 6.9c1.5 2.8 2.5 6.1 2.9 9.9h-11zm23.8-45.2h10.6v34h.2c.8-1.9 2-3.6 3.6-5a23.2 23.2 0 0 1 10.8-5.3 29.4 29.4 0 0 1 16.5 1.1c2.8 1.2 5.1 2.8 6.9 4.9 1.7 2.1 3 4.5 3.7 7.4a40 40 0 0 1 1.1 9.5V189h-10.6v-43.6c0-4-1.2-7.1-3.5-9.5a13 13 0 0 0-9.6-3.5c-3.2 0-6 .5-8.4 1.5-2.4 1-4.3 2.4-5.9 4.2-1.6 1.8-2.8 4-3.6 6.4-.8 2.5-1.2 5.1-1.2 8v36.4h-10.6V100zm69.8 24.5h10v10.2h.2a21 21 0 0 1 8.7-8.8c3.5-1.9 7.6-2.9 12.3-2.9 4.2 0 7.8.6 10.6 1.7 2.8 1.2 5.1 2.8 6.9 4.9 1.7 2.1 3 4.5 3.7 7.4a40 40 0 0 1 1.1 9.5v42.4h-10.6v-43.6c0-4-1.2-7.1-3.5-9.5a13 13 0 0 0-9.6-3.5c-3.2 0-6 .5-8.4 1.5-2.4 1-4.3 2.4-5.9 4.2-1.6 1.8-2.8 4-3.6 6.4-.8 2.5-1.2 5.1-1.2 8v36.4H372v-64.3zM453 113h-10.6v-13H453v13zm-10.6 11.5H453v64.4h-10.6v-64.4zm71.4 20.7a16 16 0 0 0-5.3-9.5 16.3 16.3 0 0 0-10.7-3.4A17.6 17.6 0 0 0 482 140a25 25 0 0 0-3.3 8 41.7 41.7 0 0 0 .1 18.1c.7 2.8 1.8 5.3 3.3 7.5a16.4 16.4 0 0 0 14.5 7.3c5.1 0 9.2-1.4 12.2-4.2 3-2.8 4.8-6.6 5.5-11.5h10.8c-1.2 7.9-4.2 14-9 18.4a27.7 27.7 0 0 1-19.4 6.6c-4.9 0-9.2-.8-13-2.4a26.2 26.2 0 0 1-15.2-17.2c-1.3-4-1.9-8.4-1.9-13.3 0-4.8.6-9.3 1.9-13.5 1.2-4.2 3.1-7.8 5.7-11 2.5-3.1 5.7-5.6 9.5-7.3a37.7 37.7 0 0 1 23.7-1.4c3.2.9 6 2.2 8.5 4a20 20 0 0 1 6 6.9c1.5 2.8 2.5 6.1 2.9 9.9h-11zm80.9 43.5a14 14 0 0 1-7.6 1.7c-2.7 0-4.9-.8-6.5-2.4-1.6-1.6-2.4-4.1-2.4-7.6-2.9 3.5-6.3 6-10.2 7.6a32.4 32.4 0 0 1-20.8 1.4c-2.6-.7-4.9-1.7-6.8-3.2a15.5 15.5 0 0 1-4.5-5.6c-1.1-2.3-1.7-5-1.7-8.3 0-3.7.6-6.6 1.9-9 1.2-2.3 2.9-4.2 4.9-5.6 2-1.4 4.4-2.5 7-3.3a94 94 0 0 1 16.3-3.2c2.6-.3 4.9-.7 6.9-1.2a10 10 0 0 0 4.7-2.4c1.2-1 1.7-2.6 1.7-4.5 0-2.3-.4-4.2-1.3-5.6-.9-1.4-2-2.5-3.4-3.2-1.4-.7-2.9-1.2-4.6-1.5-1.7-.2-3.4-.4-5-.4-4.5 0-8.2.9-11.2 2.6-3 1.7-4.6 4.9-4.9 9.7h-10.6c.2-4 1-7.4 2.5-10.1 1.5-2.7 3.5-5 6-6.7 2.5-1.7 5.4-2.9 8.6-3.7a47.6 47.6 0 0 1 18.9-.5c2.9.4 5.5 1.3 7.8 2.6s4.2 3.1 5.6 5.4c1.4 2.3 2.1 5.4 2.1 9.1v33.1c0 2.5.1 4.3.4 5.5.3 1.2 1.3 1.7 2.9 1.7 1 0 2.1-.2 3.2-.6v8.2zm-17.2-33c-1 .7-2.2 1.3-3.7 1.7a64.7 64.7 0 0 1-10 1.8 77.4 77.4 0 0 0-10.4 2c-1.6.5-2.9 1.2-4.1 2.1a9.9 9.9 0 0 0-3.9 8.3 8.7 8.7 0 0 0 3.8 7.3c1.1.7 2.4 1.3 3.9 1.6a26.6 26.6 0 0 0 13.7-.9 21 21 0 0 0 6.1-3.6 12.8 12.8 0 0 0 4.6-9.5v-10.8zm28.3-55.7h10.6v88.9h-10.6V100zM179.5 307.1c0 11.3-3.1 19.8-9.2 25.6a36 36 0 0 1-25.8 8.7c-5.7 0-10.9-.7-15.4-2a29.7 29.7 0 0 1-11.5-6.2 28 28 0 0 1-7.2-10.7 41.6 41.6 0 0 1-2.5-15.3v-56.8h11.8v56.8c0 7.9 2.1 13.9 6.4 18.1 4.3 4.2 10.4 6.2 18.2 6.2 7.6 0 13.3-2.1 17.3-6.2 3.9-4.2 5.9-10.2 5.9-18.1v-56.8h11.8v56.7zm15.9-32.3h10V285h.3a21 21 0 0 1 8.7-8.8c3.5-1.9 7.6-2.9 12.3-2.9 4.2 0 7.8.6 10.6 1.7 2.8 1.2 5.1 2.8 6.9 4.9 1.7 2.1 3 4.5 3.7 7.4a40 40 0 0 1 1.1 9.5v42.4h-10.6v-43.6c0-4-1.2-7.1-3.5-9.5a13 13 0 0 0-9.6-3.5c-3.2 0-6 .5-8.4 1.5-2.4 1-4.3 2.4-5.9 4.2-1.6 1.8-2.8 4-3.6 6.4-.8 2.5-1.2 5.1-1.2 8v36.4h-10.6v-64.3zm79.3-11.6h-10.6v-13h10.6v13zm-10.6 11.6h10.6v64.4h-10.6v-64.4zm56 64.4h-11.3l-23.9-64.4h11.8l18.1 53.7h.2l17.6-53.7h11.1l-23.6 64.4zm88.4-20.4a25.8 25.8 0 0 1-9.4 16.3 29 29 0 0 1-18.2 5.6c-5.2 0-9.6-.9-13.4-2.6-3.8-1.7-7-4-9.5-7a30 30 0 0 1-5.8-10.7 53 53 0 0 1-2.2-13.6c0-4.8.7-9.3 2.2-13.4 1.5-4.1 3.6-7.7 6.3-10.7a29 29 0 0 1 21.7-9.5 26.4 26.4 0 0 1 23.4 12.6c2.3 3.7 3.9 7.6 4.7 12a53 53 0 0 1 1.1 12.3h-48.2c-.1 2.8.2 5.5 1 8a18 18 0 0 0 10 11.4c2.6 1.2 5.6 1.7 9.1 1.7 4.4 0 8.1-1 11-3.1 2.9-2.1 4.8-5.2 5.7-9.5h10.5zm-10.4-17.9c-.2-2.5-.7-4.9-1.7-7.1a18 18 0 0 0-16.9-11.1c-2.7 0-5.2.5-7.4 1.4-2.2 1-4.1 2.3-5.7 3.9a20.5 20.5 0 0 0-5.3 12.8h37zm23.1-26.1h10v13.6h.2c2.6-5.2 5.7-9.1 9.5-11.6 3.7-2.5 8.5-3.7 14.2-3.5v11.2c-4.2 0-7.8.6-10.8 1.7-3 1.2-5.4 2.9-7.2 5.1a21 21 0 0 0-4 8.2c-.8 3.2-1.2 6.9-1.2 11v28.7h-10.6v-64.4zm49.5 44.1c.1 2.4.6 4.4 1.6 6 1 1.6 2.3 2.8 3.9 3.8a18 18 0 0 0 5.5 2.1 32 32 0 0 0 16.5-1.2 10 10 0 0 0 3.8-2.9c1-1.3 1.5-2.9 1.5-4.9 0-2.1-.6-3.8-1.8-5a15 15 0 0 0-4.7-3.2c-2-.8-4.2-1.5-6.7-2.1l-7.8-1.7c-2.7-.6-5.2-1.3-7.7-2.1s-4.7-1.9-6.7-3.2c-2-1.3-3.6-3-4.8-5.1a15.1 15.1 0 0 1-1.8-7.7c0-3.2.7-6 2.2-8.3a19 19 0 0 1 5.6-5.7 25 25 0 0 1 7.7-3.2 36 36 0 0 1 8.5-1.1c3.6 0 6.9.3 10 .9a23 23 0 0 1 8.2 3.2c2.4 1.5 4.3 3.6 5.7 6.2 1.4 2.6 2.2 5.9 2.5 9.8h-10.6a10.4 10.4 0 0 0-5.2-8.5 17 17 0 0 0-4.6-1.8 26 26 0 0 0-14.4 1.1 8.2 8.2 0 0 0-3.2 2.6 6.5 6.5 0 0 0-1.2 4c0 1.9.6 3.5 1.9 4.6 1.3 1.2 2.9 2.2 4.9 2.9 2 .8 4.2 1.5 6.7 2a202.2 202.2 0 0 1 15.3 3.8c2.5.8 4.8 1.9 6.7 3.3a15.1 15.1 0 0 1 6.5 12.9c0 3.8-.8 7-2.4 9.6a18.4 18.4 0 0 1-6.4 6.3 28.3 28.3 0 0 1-8.8 3.4 46.6 46.6 0 0 1-20.1-.2c-3.2-.8-6-2-8.5-3.7a18.5 18.5 0 0 1-6-6.7 24 24 0 0 1-2.5-10.2h10.7zm65.8-55.7h-10.6v-13h10.6v13zm-10.6 11.6h10.6v64.4h-10.6v-64.4zm40.5 0h12.8v9.3h-12.8v40c0 1.2.1 2.2.3 3a3 3 0 0 0 1.2 1.7c.6.4 1.4.7 2.4.8l4 .2h4.9v9.3h-8.1c-2.7 0-5.1-.2-7-.6-2-.4-3.5-1.1-4.7-2.1a9 9 0 0 1-2.7-4.2c-.6-1.8-.9-4.2-.9-7.2v-41h-11v-9.3h11v-19.3h10.6v19.4zm51.1 73a61.4 61.4 0 0 1-3.7 8 22.8 22.8 0 0 1-3.9 5.3c-1.4 1.4-3 2.4-4.9 3-1.8.6-3.9.9-6.2.9l-3.7-.2a21 21 0 0 1-3.6-.9v-9.7l3.1 1c1 .3 2.1.5 3.2.5 2.2 0 3.9-.5 5.2-1.5 1.3-1 2.5-2.5 3.5-4.4l4.4-11-25.5-64h12l18.8 52.7h.2l18.1-52.7h11.2l-28.2 73zM109.1 457.4c0-4.7.7-9.2 2-13.3a28.8 28.8 0 0 1 15.8-17.9c3.9-1.7 8.4-2.6 13.5-2.6s9.5.9 13.5 2.6a28.8 28.8 0 0 1 15.8 17.9 43.6 43.6 0 0 1 0 26.5 29.6 29.6 0 0 1-15.8 17.9 33.5 33.5 0 0 1-13.5 2.6c-5.1 0-9.7-.9-13.5-2.6a28.8 28.8 0 0 1-15.8-17.9c-1.3-4.1-2-8.5-2-13.2zm11.3 0c0 3.9.5 7.4 1.6 10.4a19.7 19.7 0 0 0 10.7 12.3c2.4 1.1 5 1.6 7.8 1.6a19.1 19.1 0 0 0 14.2-6.3c1.8-2 3.3-4.6 4.3-7.6s1.6-6.5 1.6-10.4c0-3.9-.5-7.4-1.6-10.4a23 23 0 0 0-4.3-7.7 18.8 18.8 0 0 0-14.2-6.3 19.1 19.1 0 0 0-14.2 6.3 22 22 0 0 0-4.3 7.7c-1.1 3-1.6 6.5-1.6 10.4zm66.9-23h-10.8v-9.3h10.8v-9.6c0-5.2 1.5-9.2 4.5-11.9 3-2.7 7.5-4 13.3-4l3.4.2 3.4.7v9.2c-.9-.3-1.9-.6-3-.7l-3-.2c-2.6 0-4.6.5-6 1.5-1.4 1-2.1 2.9-2.1 5.7v9h12.5v9.3h-12.5v55.1h-10.6v-55zm66.6-33.8h16.2l28 74.7 28.2-74.7h16.2v88.9h-11.2v-74h-.3l-27.8 74h-10.1l-27.8-74h-.2v74h-11.2v-88.9zm158.6 88.9h-10v-10.2h-.2a21 21 0 0 1-8.7 8.8 25.4 25.4 0 0 1-12.3 2.9c-4.2 0-7.8-.6-10.6-1.7a18.4 18.4 0 0 1-6.9-4.9c-1.7-2.1-3-4.5-3.7-7.4a40 40 0 0 1-1.1-9.5v-42.4h10.6v43.6c0 4 1.2 7.1 3.5 9.5a13 13 0 0 0 9.6 3.5c3.2 0 6-.5 8.4-1.5 2.4-1 4.3-2.4 5.9-4.2 1.6-1.8 2.8-4 3.6-6.4.8-2.4 1.2-5.1 1.2-8v-36.4h10.6v64.3zm14.7-64.4h10v10.2h.3a21 21 0 0 1 8.7-8.8c3.5-1.9 7.6-2.9 12.3-2.9 4.2 0 7.8.6 10.6 1.7 2.8 1.2 5.1 2.8 6.9 4.9 1.7 2.1 3 4.5 3.7 7.4a40 40 0 0 1 1.1 9.5v42.4h-10.6v-43.6c0-4-1.2-7.1-3.5-9.5a13 13 0 0 0-9.6-3.5c-3.2 0-6 .5-8.4 1.5-2.4 1-4.3 2.4-5.9 4.2-1.6 1.8-2.8 4-3.6 6.4-.8 2.5-1.2 5.1-1.2 8v36.4h-10.6v-64.3zm79.2-11.6h-10.6v-13h10.6v13zm-10.6 11.6h10.6v64.4h-10.6v-64.4zm69.5 20.7a16 16 0 0 0-5.3-9.5 16.3 16.3 0 0 0-10.7-3.4 17.6 17.6 0 0 0-15.8 7.7 25 25 0 0 0-3.3 8 41.7 41.7 0 0 0 .1 18.1c.7 2.8 1.8 5.3 3.3 7.5a16.4 16.4 0 0 0 14.5 7.3c5.1 0 9.2-1.4 12.2-4.2 3-2.8 4.8-6.6 5.5-11.5h10.8c-1.2 7.9-4.2 14-9 18.4a27.7 27.7 0 0 1-19.4 6.6c-4.9 0-9.2-.8-13-2.4a26.2 26.2 0 0 1-15.2-17.2c-1.3-4-1.9-8.4-1.9-13.3 0-4.8.6-9.3 1.9-13.5 1.2-4.2 3.1-7.8 5.7-11 2.5-3.1 5.7-5.6 9.5-7.3a37.7 37.7 0 0 1 23.7-1.4c3.2.9 6 2.2 8.5 4a20 20 0 0 1 6 6.9c1.5 2.8 2.5 6.1 2.9 9.9h-11zm21.9-45.2h10.6v34h.2c.8-1.9 2-3.6 3.6-5a23.2 23.2 0 0 1 10.8-5.3 29.4 29.4 0 0 1 16.5 1.1c2.8 1.2 5.1 2.8 6.9 4.9 1.7 2.1 3 4.5 3.7 7.4a40 40 0 0 1 1.1 9.5v42.4H630V446c0-4-1.2-7.1-3.5-9.5a13 13 0 0 0-9.6-3.5c-3.2 0-6 .5-8.4 1.5-2.4 1-4.3 2.4-5.9 4.2-1.6 1.8-2.8 4-3.6 6.4-.8 2.5-1.2 5.1-1.2 8v36.4h-10.6v-88.9z"/></svg>
