<?xml version="1.0" encoding="UTF-8" standalone="no"?>
<svg width="1822px" height="590px" viewBox="0 0 1822 590" version="1.1" xmlns="http://www.w3.org/2000/svg" xmlns:xlink="http://www.w3.org/1999/xlink">
  <rect x="880" fill="#0065BD" width="942" height="590"/>
  <rect fill="#0065BD" width="823" height="590"/>
  <path d="M1351,100 L1351,420 L1271,420 L1271,100 L981,100 L981,170 L1051,170 L1051,490 L1121,490 L1121,170 L1201,170 L1201,490 L1421,490 L1421,170 L1501,170 L1501,490 L1571,490 L1571,170 L1651,170 L1651,490 L1721,490 L1721,100 L1351,100" fill="#FFFFFF"/>
  <path d="M130.995,109.966 L101.346,109.966 L101.346,100 L172.478,100 L172.478,109.966 L142.829,109.966 L142.829,188.946 L130.995,188.946 L130.995,109.966" fill="#FFFFFF"/>
  <path d="M222.431,168.515 C221.016,175.659 217.895,181.098 213.068,184.835 C208.241,188.572 202.164,190.44 194.841,190.44 C189.679,190.44 185.206,189.589 181.421,187.887 C177.633,186.186 174.45,183.838 171.871,180.849 C169.29,177.859 167.355,174.289 166.065,170.136 C164.774,165.983 164.046,161.458 163.881,156.557 C163.881,151.741 164.628,147.276 166.123,143.165 C167.619,139.054 169.714,135.503 172.414,132.514 C175.112,129.524 178.31,127.199 182.006,125.538 C185.701,123.877 189.75,123.046 194.153,123.046 C199.883,123.046 204.636,124.229 208.416,126.597 C212.194,128.963 215.225,131.975 217.51,135.628 C219.793,139.284 221.371,143.269 222.244,147.587 C223.116,151.907 223.468,156.018 223.302,159.921 L175.092,159.921 C175.009,162.744 175.342,165.422 176.089,167.955 C176.836,170.489 178.039,172.731 179.702,174.682 C181.362,176.634 183.48,178.192 186.055,179.353 C188.628,180.517 191.661,181.098 195.149,181.098 C199.55,181.098 203.204,180.06 206.112,177.983 C209.018,175.908 210.927,172.751 211.842,168.515 L222.431,168.515 L222.431,168.515 Z M212.091,150.576 C211.924,148.085 211.363,145.718 210.409,143.476 C209.453,141.234 208.167,139.303 206.548,137.683 C204.928,136.065 202.997,134.777 200.755,133.822 C198.513,132.868 196.103,132.389 193.53,132.389 C190.789,132.389 188.317,132.868 186.118,133.822 C183.916,134.777 182.026,136.086 180.449,137.746 C178.871,139.408 177.625,141.338 176.712,143.539 C175.797,145.74 175.258,148.085 175.092,150.576 L212.091,150.576 L212.091,150.576 Z" fill="#FFFFFF"/>
  <path d="M278.612,145.22 C277.78,141.152 276.015,137.995 273.317,135.753 C270.617,133.51 267.067,132.389 262.666,132.389 C258.845,132.389 255.647,133.096 253.074,134.506 C250.499,135.92 248.443,137.789 246.907,140.112 C245.37,142.439 244.27,145.117 243.606,148.147 C242.941,151.181 242.61,154.315 242.61,157.553 C242.61,160.542 242.962,163.45 243.669,166.274 C244.374,169.098 245.475,171.611 246.97,173.81 C248.464,176.012 250.396,177.777 252.762,179.104 C255.13,180.434 258.014,181.098 261.421,181.098 C266.569,181.098 270.639,179.708 273.629,176.924 C276.619,174.142 278.445,170.303 279.11,165.401 L289.948,165.401 C288.784,173.293 285.794,179.437 280.978,183.838 C276.161,188.241 269.684,190.44 261.545,190.44 C256.643,190.44 252.305,189.631 248.527,188.011 C244.747,186.392 241.592,184.13 239.059,181.222 C236.525,178.315 234.615,174.849 233.329,170.82 C232.04,166.793 231.398,162.371 231.398,157.553 C231.398,152.737 232.021,148.232 233.266,144.037 C234.512,139.844 236.401,136.188 238.935,133.074 C241.467,129.96 244.623,127.511 248.403,125.724 C252.181,123.94 256.643,123.046 261.794,123.046 C265.448,123.046 268.873,123.482 272.071,124.354 C275.267,125.226 278.113,126.578 280.604,128.402 C283.097,130.231 285.109,132.535 286.647,135.316 C288.183,138.1 289.158,141.401 289.574,145.22 L278.612,145.22" fill="#FFFFFF"/>
  <path d="M302.404,100 L312.993,100 L312.993,134.008 L313.242,134.008 C314.07,132.098 315.254,130.439 316.792,129.026 C318.327,127.615 320.009,126.471 321.836,125.6 C323.663,124.728 325.594,124.086 327.63,123.67 C329.664,123.254 331.636,123.046 333.547,123.046 C337.782,123.046 341.311,123.628 344.136,124.789 C346.958,125.954 349.244,127.574 350.987,129.648 C352.731,131.726 353.955,134.196 354.662,137.061 C355.367,139.926 355.721,143.102 355.721,146.591 L355.721,188.946 L345.132,188.946 L345.132,145.345 C345.132,141.359 343.968,138.203 341.644,135.877 C339.318,133.552 336.12,132.389 332.052,132.389 C328.813,132.389 326.01,132.887 323.643,133.885 C321.277,134.881 319.302,136.293 317.726,138.119 C316.148,139.947 314.964,142.086 314.175,144.535 C313.385,146.986 312.993,149.664 312.993,152.57 L312.993,188.946 L302.404,188.946 L302.404,100" fill="#FFFFFF"/>
  <path d="M371.667,124.54 L381.632,124.54 L381.632,134.755 L381.882,134.755 C384.124,130.77 387.009,127.823 390.54,125.911 C394.069,124.002 398.157,123.046 402.81,123.046 C407.045,123.046 410.574,123.628 413.399,124.789 C416.221,125.954 418.507,127.574 420.25,129.648 C421.994,131.726 423.218,134.196 423.925,137.061 C424.63,139.926 424.984,143.102 424.984,146.591 L424.984,188.946 L414.395,188.946 L414.395,145.345 C414.395,141.359 413.231,138.203 410.907,135.877 C408.581,133.552 405.383,132.389 401.315,132.389 C398.076,132.389 395.273,132.887 392.906,133.885 C390.54,134.881 388.565,136.293 386.988,138.119 C385.411,139.947 384.227,142.086 383.438,144.535 C382.648,146.986 382.256,149.664 382.256,152.57 L382.256,188.946 L371.667,188.946 L371.667,124.54" fill="#FFFFFF"/>
  <path d="M440.307,112.956 L450.896,112.956 L450.896,100 L440.307,100 L440.307,112.956 Z M440.307,188.945 L450.896,188.945 L450.896,124.54 L440.307,124.54 L440.307,188.945 Z" fill="#FFFFFF"/>
  <path d="M474.437,168.64 C474.519,171.05 475.06,173.044 476.057,174.62 C477.053,176.198 478.362,177.466 479.981,178.42 C481.601,179.376 483.426,180.06 485.462,180.474 C487.496,180.892 489.592,181.098 491.753,181.098 C493.414,181.098 495.157,180.973 496.985,180.723 C498.811,180.474 500.493,180.019 502.031,179.353 C503.566,178.69 504.834,177.715 505.83,176.426 C506.827,175.139 507.325,173.499 507.325,171.505 C507.325,169.431 506.721,167.749 505.518,166.46 C504.313,165.173 502.735,164.115 500.784,163.283 C498.832,162.454 496.59,161.768 494.058,161.228 C491.523,160.689 488.929,160.128 486.272,159.546 C483.613,158.967 481.04,158.26 478.549,157.429 C476.057,156.599 473.815,155.519 471.821,154.189 C469.828,152.863 468.229,151.16 467.025,149.082 C465.821,147.008 465.219,144.432 465.219,141.359 C465.219,138.119 465.945,135.339 467.399,133.012 C468.851,130.688 470.719,128.798 473.005,127.344 C475.288,125.892 477.863,124.812 480.728,124.105 C483.593,123.4 486.437,123.046 489.262,123.046 C492.831,123.046 496.175,123.357 499.29,123.98 C502.404,124.603 505.145,125.684 507.512,127.219 C509.879,128.757 511.767,130.832 513.18,133.448 C514.591,136.065 515.422,139.324 515.672,143.227 L505.083,143.227 C504.915,141.152 504.355,139.428 503.401,138.057 C502.445,136.686 501.283,135.588 499.913,134.755 C498.542,133.927 497.004,133.324 495.303,132.95 C493.6,132.575 491.878,132.389 490.134,132.389 C488.555,132.389 486.957,132.515 485.337,132.766 C483.718,133.018 482.243,133.456 480.915,134.082 C479.586,134.709 478.505,135.567 477.676,136.654 C476.846,137.74 476.43,139.077 476.43,140.665 C476.43,142.589 477.072,144.136 478.362,145.307 C479.648,146.478 481.289,147.459 483.282,148.253 C485.275,149.047 487.517,149.717 490.009,150.26 C492.5,150.804 494.992,151.365 497.483,151.945 C500.14,152.525 502.735,153.228 505.269,154.055 C507.802,154.884 510.044,155.98 511.997,157.347 C513.947,158.714 515.526,160.43 516.73,162.498 C517.933,164.571 518.536,167.135 518.536,170.199 C518.536,174.008 517.727,177.217 516.107,179.825 C514.488,182.432 512.37,184.522 509.754,186.094 C507.138,187.667 504.189,188.785 500.909,189.448 C497.627,190.108 494.37,190.44 491.13,190.44 C487.475,190.44 484.049,190.045 480.853,189.257 C477.655,188.469 474.811,187.223 472.319,185.52 C469.828,183.819 467.835,181.577 466.34,178.792 C464.845,176.012 464.014,172.627 463.849,168.64 L474.437,168.64" fill="#FFFFFF"/>
  <path d="M574.595,145.22 C573.764,141.152 571.999,137.995 569.3,135.753 C566.6,133.51 563.05,132.389 558.649,132.389 C554.828,132.389 551.63,133.096 549.057,134.506 C546.482,135.92 544.426,137.789 542.89,140.112 C541.353,142.439 540.254,145.117 539.589,148.147 C538.924,151.181 538.593,154.315 538.593,157.553 C538.593,160.542 538.945,163.45 539.652,166.274 C540.357,169.098 541.458,171.611 542.953,173.81 C544.448,176.012 546.379,177.777 548.745,179.104 C551.113,180.434 553.998,181.098 557.404,181.098 C562.552,181.098 566.622,179.708 569.612,176.924 C572.602,174.142 574.428,170.303 575.093,165.401 L585.931,165.401 C584.768,173.293 581.777,179.437 576.961,183.838 C572.144,188.241 565.667,190.44 557.528,190.44 C552.627,190.44 548.288,189.631 544.51,188.011 C540.731,186.392 537.575,184.13 535.043,181.222 C532.508,178.315 530.598,174.849 529.312,170.82 C528.023,166.793 527.381,162.371 527.381,157.553 C527.381,152.737 528.004,148.232 529.25,144.037 C530.495,139.844 532.384,136.188 534.918,133.074 C537.451,129.96 540.606,127.511 544.386,125.724 C548.164,123.94 552.627,123.046 557.778,123.046 C561.431,123.046 564.857,123.482 568.054,124.354 C571.25,125.226 574.097,126.578 576.588,128.402 C579.079,130.231 581.092,132.535 582.63,135.316 C584.166,138.1 585.141,141.401 585.557,145.22 L574.595,145.22" fill="#FFFFFF"/>
  <path d="M598.387,100 L608.976,100 L608.976,134.008 L609.225,134.008 C610.053,132.098 611.237,130.439 612.775,129.026 C614.31,127.615 615.992,126.471 617.82,125.6 C619.645,124.728 621.577,124.086 623.613,123.67 C625.647,123.254 627.619,123.046 629.53,123.046 C633.765,123.046 637.294,123.628 640.119,124.789 C642.941,125.954 645.227,127.574 646.971,129.648 C648.714,131.726 649.938,134.196 650.645,137.061 C651.35,139.926 651.705,143.102 651.705,146.591 L651.705,188.946 L641.116,188.946 L641.116,145.345 C641.116,141.359 639.951,138.203 637.627,135.877 C635.301,133.552 632.104,132.389 628.035,132.389 C624.797,132.389 621.994,132.887 619.626,133.885 C617.26,134.881 615.285,136.293 613.709,138.119 C612.131,139.947 610.947,142.086 610.158,144.535 C609.368,146.986 608.976,149.664 608.976,152.57 L608.976,188.946 L598.387,188.946 L598.387,100" fill="#FFFFFF"/>
  <path d="M722.088,168.515 C720.674,175.659 717.553,181.098 712.726,184.835 C707.899,188.572 701.822,190.44 694.499,190.44 C689.337,190.44 684.864,189.589 681.078,187.887 C677.29,186.186 674.108,183.838 671.529,180.849 C668.948,177.859 667.013,174.289 665.723,170.136 C664.432,165.983 663.704,161.458 663.539,156.557 C663.539,151.741 664.286,147.276 665.78,143.165 C667.276,139.054 669.372,135.503 672.072,132.514 C674.769,129.524 677.967,127.199 681.664,125.538 C685.358,123.877 689.408,123.046 693.81,123.046 C699.541,123.046 704.294,124.229 708.074,126.597 C711.852,128.963 714.882,131.975 717.168,135.628 C719.45,139.284 721.029,143.269 721.902,147.587 C722.774,151.907 723.126,156.018 722.96,159.921 L674.75,159.921 C674.666,162.744 674.999,165.422 675.747,167.955 C676.494,170.489 677.697,172.731 679.36,174.682 C681.02,176.634 683.138,178.192 685.713,179.353 C688.286,180.517 691.318,181.098 694.807,181.098 C699.207,181.098 702.861,180.06 705.769,177.983 C708.675,175.908 710.585,172.751 711.5,168.515 L722.088,168.515 L722.088,168.515 Z M711.748,150.576 C711.582,148.085 711.02,145.718 710.067,143.476 C709.111,141.234 707.825,139.303 706.205,137.683 C704.585,136.065 702.654,134.777 700.413,133.822 C698.171,132.868 695.761,132.389 693.187,132.389 C690.447,132.389 687.975,132.868 685.775,133.822 C683.574,134.777 681.683,136.086 680.107,137.746 C678.528,139.408 677.283,141.338 676.369,143.539 C675.455,145.74 674.915,148.085 674.75,150.576 L711.748,150.576 L711.748,150.576 Z" fill="#FFFFFF"/>
  <path d="M179.844,307.086 C179.844,318.38 176.791,326.914 170.687,332.685 C164.583,338.459 155.966,341.344 144.838,341.344 C139.108,341.344 133.979,340.678 129.453,339.35 C124.925,338.022 121.107,335.946 117.992,333.122 C114.878,330.298 112.49,326.728 110.829,322.408 C109.167,318.09 108.338,312.983 108.338,307.086 L108.338,250.28 L120.172,250.28 L120.172,307.086 C120.172,314.976 122.31,320.997 126.588,325.148 C130.864,329.302 136.947,331.378 144.838,331.378 C152.394,331.378 158.146,329.302 162.092,325.148 C166.035,320.997 168.009,314.976 168.009,307.086 L168.009,250.28 L179.844,250.28 L179.844,307.086" fill="#FFFFFF"/>
  <path d="M195.787,274.82 L205.752,274.82 L205.752,285.035 L206.002,285.035 C208.244,281.05 211.129,278.103 214.66,276.191 C218.189,274.281 222.278,273.326 226.931,273.326 C231.165,273.326 234.694,273.908 237.519,275.069 C240.342,276.234 242.627,277.854 244.371,279.928 C246.114,282.005 247.339,284.475 248.046,287.341 C248.75,290.206 249.105,293.382 249.105,296.87 L249.105,339.226 L238.516,339.226 L238.516,295.625 C238.516,291.638 237.352,288.483 235.028,286.157 C232.702,283.832 229.504,282.669 225.435,282.669 C222.197,282.669 219.394,283.167 217.027,284.164 C214.66,285.161 212.686,286.573 211.109,288.399 C209.531,290.227 208.348,292.366 207.559,294.815 C206.769,297.265 206.376,299.944 206.376,302.85 L206.376,339.226 L195.787,339.226 L195.787,274.82" fill="#FFFFFF"/>
  <path d="M265.05,263.236 L275.639,263.236 L275.639,250.28 L265.05,250.28 L265.05,263.236 Z M265.05,339.225 L275.639,339.225 L275.639,274.82 L265.05,274.82 L265.05,339.225 Z" fill="#FFFFFF"/>
  <path d="M322.476,339.226 L311.14,339.226 L287.221,274.82 L299.056,274.82 L317.119,328.512 L317.368,328.512 L334.934,274.82 L346.021,274.82 L322.476,339.226" fill="#FFFFFF"/>
  <path d="M409.553,318.795 C408.139,325.939 405.018,331.378 400.191,335.114 C395.364,338.852 389.287,340.72 381.964,340.72 C376.802,340.72 372.329,339.869 368.543,338.167 C364.755,336.466 361.573,334.118 358.994,331.129 C356.412,328.139 354.478,324.569 353.188,320.416 C351.897,316.263 351.169,311.738 351.004,306.837 C351.004,302.021 351.751,297.556 353.246,293.445 C354.741,289.334 356.837,285.783 359.537,282.793 C362.235,279.804 365.432,277.479 369.129,275.818 C372.823,274.157 376.873,273.326 381.275,273.326 C387.006,273.326 391.759,274.509 395.539,276.877 C399.317,279.243 402.348,282.255 404.633,285.908 C406.915,289.564 408.494,293.549 409.367,297.867 C410.239,302.187 410.591,306.298 410.425,310.2 L362.215,310.2 C362.131,313.024 362.464,315.702 363.212,318.235 C363.959,320.769 365.162,323.011 366.825,324.962 C368.485,326.914 370.603,328.472 373.178,329.633 C375.751,330.797 378.783,331.378 382.272,331.378 C386.673,331.378 390.326,330.34 393.234,328.263 C396.14,326.188 398.05,323.031 398.965,318.795 L409.553,318.795 L409.553,318.795 Z M399.214,300.856 C399.047,298.365 398.486,295.998 397.532,293.756 C396.576,291.514 395.29,289.583 393.671,287.963 C392.051,286.344 390.12,285.057 387.878,284.102 C385.636,283.148 383.226,282.669 380.652,282.669 C377.912,282.669 375.44,283.148 373.24,284.102 C371.039,285.057 369.149,286.366 367.572,288.025 C365.993,289.688 364.748,291.618 363.834,293.819 C362.92,296.02 362.381,298.365 362.215,300.856 L399.214,300.856 L399.214,300.856 Z" fill="#FFFFFF"/>
  <path d="M422.258,274.82 L432.224,274.82 L432.224,288.399 L432.473,288.399 C435.047,283.167 438.204,279.306 441.94,276.814 C445.678,274.322 450.412,273.16 456.142,273.326 L456.142,284.537 C451.906,284.537 448.293,285.119 445.304,286.282 C442.314,287.445 439.905,289.147 438.079,291.389 C436.251,293.631 434.922,296.372 434.093,299.611 C433.261,302.85 432.847,306.505 432.847,310.573 L432.847,339.226 L422.258,339.226 L422.258,274.82" fill="#FFFFFF"/>
  <path d="M471.837,318.92 C471.919,321.33 472.46,323.324 473.457,324.899 C474.453,326.478 475.761,327.746 477.381,328.7 C479,329.655 480.826,330.34 482.862,330.754 C484.896,331.171 486.992,331.378 489.153,331.378 C490.814,331.378 492.557,331.252 494.385,331.003 C496.211,330.754 497.893,330.298 499.431,329.633 C500.966,328.97 502.234,327.995 503.23,326.706 C504.226,325.419 504.724,323.778 504.724,321.785 C504.724,319.711 504.121,318.029 502.918,316.74 C501.713,315.453 500.135,314.395 498.184,313.563 C496.232,312.734 493.99,312.048 491.458,311.508 C488.923,310.969 486.329,310.408 483.672,309.826 C481.013,309.246 478.44,308.54 475.949,307.708 C473.457,306.879 471.215,305.798 469.221,304.469 C467.228,303.142 465.628,301.439 464.425,299.362 C463.22,297.288 462.619,294.712 462.619,291.638 C462.619,288.399 463.345,285.618 464.799,283.292 C466.251,280.968 468.119,279.078 470.405,277.624 C472.688,276.172 475.263,275.091 478.128,274.385 C480.993,273.68 483.837,273.326 486.662,273.326 C490.231,273.326 493.575,273.637 496.69,274.26 C499.804,274.883 502.545,275.963 504.912,277.499 C507.278,279.037 509.167,281.111 510.579,283.728 C511.991,286.344 512.822,289.604 513.072,293.507 L502.483,293.507 C502.315,291.432 501.755,289.707 500.801,288.337 C499.845,286.966 498.683,285.867 497.312,285.035 C495.942,284.207 494.404,283.604 492.703,283.23 C491,282.855 489.278,282.669 487.534,282.669 C485.955,282.669 484.357,282.795 482.737,283.046 C481.118,283.297 479.643,283.736 478.315,284.362 C476.986,284.989 475.905,285.847 475.076,286.933 C474.245,288.02 473.83,289.357 473.83,290.945 C473.83,292.868 474.472,294.416 475.761,295.586 C477.048,296.757 478.689,297.738 480.682,298.533 C482.675,299.327 484.917,299.997 487.409,300.539 C489.9,301.084 492.392,301.645 494.883,302.225 C497.54,302.804 500.135,303.507 502.669,304.335 C505.202,305.164 507.443,306.26 509.397,307.626 C511.347,308.993 512.926,310.71 514.13,312.778 C515.333,314.85 515.936,317.415 515.936,320.479 C515.936,324.288 515.127,327.496 513.507,330.104 C511.888,332.712 509.77,334.802 507.154,336.374 C504.538,337.947 501.589,339.065 498.309,339.728 C495.027,340.388 491.769,340.72 488.53,340.72 C484.875,340.72 481.449,340.325 478.253,339.536 C475.055,338.749 472.211,337.503 469.719,335.8 C467.228,334.099 465.235,331.857 463.74,329.072 C462.245,326.292 461.414,322.906 461.249,318.92 L471.837,318.92" fill="#FFFFFF"/>
  <path d="M527.647,263.236 L538.236,263.236 L538.236,250.28 L527.647,250.28 L527.647,263.236 Z M527.647,339.225 L538.236,339.225 L538.236,274.82 L527.647,274.82 L527.647,339.225 Z" fill="#FFFFFF"/>
  <path d="M572.491,274.82 L585.323,274.82 L585.323,284.164 L572.491,284.164 L572.491,324.152 C572.491,325.397 572.594,326.394 572.803,327.141 C573.009,327.89 573.404,328.472 573.987,328.886 C574.566,329.302 575.376,329.571 576.416,329.696 C577.453,329.82 578.802,329.882 580.464,329.882 L585.323,329.882 L585.323,339.226 L577.225,339.226 C574.485,339.226 572.137,339.038 570.186,338.666 C568.234,338.291 566.656,337.605 565.453,336.609 C564.248,335.613 563.354,334.201 562.774,332.374 C562.193,330.548 561.902,328.139 561.902,325.148 L561.902,284.164 L550.94,284.164 L550.94,274.82 L561.902,274.82 L561.902,255.512 L572.491,255.512 L572.491,274.82" fill="#FFFFFF"/>
  <path d="M655.332,338.976 C653.42,340.139 650.888,340.72 647.732,340.72 C644.992,340.72 642.812,339.93 641.192,338.354 C639.573,336.777 638.763,334.242 638.763,330.754 C635.854,334.242 632.472,336.777 628.61,338.354 C624.748,339.93 620.575,340.72 616.091,340.72 C613.182,340.72 610.422,340.388 607.806,339.724 C605.19,339.059 602.927,338.001 601.017,336.547 C599.105,335.095 597.591,333.226 596.47,330.942 C595.349,328.658 594.788,325.896 594.788,322.657 C594.788,319.004 595.411,316.014 596.657,313.688 C597.902,311.364 599.542,309.496 601.578,308.082 C603.611,306.671 605.938,305.572 608.554,304.781 C611.17,303.992 613.849,303.348 616.589,302.85 C619.495,302.27 622.257,301.833 624.873,301.542 C627.489,301.252 629.794,300.837 631.787,300.296 C633.78,299.757 635.356,298.969 636.521,297.929 C637.682,296.892 638.264,295.376 638.264,293.382 C638.264,291.058 637.829,289.189 636.956,287.776 C636.084,286.366 634.963,285.284 633.594,284.537 C632.223,283.79 630.685,283.292 628.984,283.042 C627.281,282.793 625.599,282.669 623.938,282.669 C619.455,282.669 615.717,283.521 612.727,285.223 C609.737,286.926 608.117,290.143 607.868,294.878 L597.279,294.878 C597.446,290.89 598.277,287.527 599.771,284.786 C601.266,282.046 603.259,279.825 605.751,278.122 C608.242,276.421 611.108,275.195 614.347,274.447 C617.585,273.7 620.99,273.326 624.562,273.326 C627.467,273.326 630.354,273.534 633.22,273.949 C636.084,274.365 638.68,275.216 641.006,276.502 C643.329,277.791 645.198,279.598 646.611,281.921 C648.022,284.247 648.729,287.278 648.729,291.016 L648.729,324.152 C648.729,326.643 648.872,328.472 649.165,329.633 C649.455,330.797 650.43,331.378 652.092,331.378 C653.089,331.378 654.167,331.171 655.332,330.754 L655.332,338.976 L655.332,338.976 Z M638.14,305.964 C637.144,306.711 635.898,307.294 634.403,307.708 C632.908,308.124 631.329,308.477 629.67,308.768 C628.007,309.059 626.243,309.308 624.375,309.515 C622.506,309.723 620.7,309.994 618.956,310.324 C617.212,310.657 615.55,311.071 613.973,311.569 C612.394,312.069 611.024,312.753 609.862,313.626 C608.698,314.497 607.764,315.599 607.059,316.926 C606.353,318.257 606,319.917 606,321.91 C606,323.654 606.353,325.129 607.059,326.332 C607.764,327.537 608.678,328.512 609.799,329.26 C610.92,330.007 612.229,330.548 613.724,330.88 C615.219,331.212 616.795,331.378 618.457,331.378 C621.945,331.378 624.936,330.901 627.427,329.945 C629.919,328.991 631.952,327.786 633.53,326.332 C635.107,324.88 636.272,323.301 637.019,321.598 C637.766,319.897 638.14,318.297 638.14,316.802 L638.14,305.964 L638.14,305.964 Z M606.872,264.232 L618.084,264.232 L618.084,251.276 L606.872,251.276 L606.872,264.232 Z M630.292,264.232 L641.504,264.232 L641.504,251.276 L630.292,251.276 L630.292,264.232 Z" fill="#FFFFFF"/>
  <path d="M681.116,274.82 L693.947,274.82 L693.947,284.164 L681.116,284.164 L681.116,324.152 C681.116,325.397 681.219,326.394 681.428,327.141 C681.634,327.89 682.029,328.472 682.611,328.886 C683.19,329.302 684.001,329.571 685.04,329.696 C686.078,329.82 687.426,329.882 689.089,329.882 L693.947,329.882 L693.947,339.226 L685.849,339.226 C683.11,339.226 680.761,339.038 678.811,338.666 C676.859,338.291 675.28,337.605 674.078,336.609 C672.873,335.613 671.979,334.201 671.399,332.374 C670.818,330.548 670.527,328.139 670.527,325.148 L670.527,284.164 L659.565,284.164 L659.565,274.82 L670.527,274.82 L670.527,255.512 L681.116,255.512 L681.116,274.82" fill="#FFFFFF"/>
  <path d="M109.085,400.559 L125.28,400.559 L153.309,475.305 L181.463,400.559 L197.658,400.559 L197.658,489.505 L186.446,489.505 L186.446,415.509 L186.197,415.509 L158.416,489.505 L148.326,489.505 L120.546,415.509 L120.297,415.509 L120.297,489.505 L109.085,489.505 L109.085,400.559" fill="#FFFFFF"/>
  <path d="M267.667,489.505 L257.701,489.505 L257.701,479.29 L257.452,479.29 C255.209,483.277 252.323,486.225 248.794,488.134 C245.263,490.044 241.173,491 236.523,491 C232.287,491 228.757,490.419 225.934,489.256 C223.11,488.094 220.827,486.475 219.082,484.398 C217.338,482.323 216.112,479.85 215.407,476.986 C214.701,474.121 214.349,470.944 214.349,467.456 L214.349,425.1 L224.938,425.1 L224.938,468.702 C224.938,472.688 226.099,475.845 228.425,478.169 C230.749,480.495 233.948,481.658 238.018,481.658 C241.257,481.658 244.06,481.16 246.426,480.162 C248.794,479.166 250.765,477.755 252.344,475.926 C253.921,474.102 255.104,471.962 255.894,469.512 C256.683,467.063 257.078,464.385 257.078,461.476 L257.078,425.1 L267.667,425.1 L267.667,489.505 L267.667,489.505 Z M223.567,414.512 L234.779,414.512 L234.779,401.556 L223.567,401.556 L223.567,414.512 Z M246.987,414.512 L258.199,414.512 L258.199,401.556 L246.987,401.556 L246.987,414.512 Z" fill="#FFFFFF"/>
  <path d="M284.235,425.1 L294.2,425.1 L294.2,435.315 L294.45,435.315 C296.692,431.329 299.577,428.383 303.108,426.471 C306.637,424.561 310.725,423.605 315.378,423.605 C319.613,423.605 323.142,424.188 325.967,425.349 C328.789,426.513 331.075,428.134 332.818,430.208 C334.562,432.285 335.786,434.755 336.493,437.621 C337.198,440.485 337.552,443.662 337.552,447.15 L337.552,489.505 L326.963,489.505 L326.963,445.905 C326.963,441.918 325.799,438.763 323.475,436.437 C321.149,434.112 317.951,432.949 313.883,432.949 C310.644,432.949 307.842,433.447 305.474,434.444 C303.108,435.441 301.133,436.853 299.557,438.679 C297.979,440.507 296.795,442.646 296.006,445.095 C295.216,447.545 294.824,450.224 294.824,453.13 L294.824,489.505 L284.235,489.505 L284.235,425.1" fill="#FFFFFF"/>
  <path d="M397.846,445.779 C397.014,441.712 395.249,438.554 392.551,436.312 C389.851,434.07 386.301,432.949 381.9,432.949 C378.079,432.949 374.881,433.655 372.308,435.066 C369.733,436.479 367.677,438.349 366.141,440.672 C364.604,442.999 363.504,445.677 362.84,448.707 C362.175,451.74 361.843,454.874 361.843,458.113 C361.843,461.102 362.196,464.01 362.903,466.833 C363.608,469.657 364.709,472.171 366.204,474.37 C367.698,476.571 369.629,478.336 371.996,479.664 C374.363,480.993 377.248,481.658 380.655,481.658 C385.803,481.658 389.872,480.267 392.862,477.484 C395.853,474.702 397.679,470.862 398.344,465.96 L409.182,465.96 C408.018,473.853 405.028,479.997 400.212,484.398 C395.395,488.801 388.917,491 380.779,491 C375.877,491 371.539,490.191 367.761,488.571 C363.981,486.952 360.826,484.689 358.293,481.781 C355.759,478.875 353.849,475.409 352.563,471.38 C351.274,467.353 350.632,462.931 350.632,458.113 C350.632,453.297 351.255,448.792 352.5,444.597 C353.746,440.403 355.635,436.748 358.169,433.633 C360.701,430.519 363.857,428.071 367.637,426.284 C371.415,424.499 375.877,423.605 381.028,423.605 C384.682,423.605 388.107,424.042 391.305,424.914 C394.501,425.785 397.347,427.137 399.838,428.962 C402.33,430.791 404.342,433.094 405.881,435.876 C407.417,438.66 408.392,441.961 408.808,445.779 L397.846,445.779" fill="#FFFFFF"/>
  <path d="M421.638,400.559 L432.226,400.559 L432.226,434.568 L432.476,434.568 C433.304,432.658 434.488,430.998 436.026,429.586 C437.561,428.174 439.243,427.031 441.071,426.16 C442.896,425.287 444.827,424.645 446.863,424.229 C448.898,423.814 450.869,423.605 452.781,423.605 C457.016,423.605 460.545,424.188 463.37,425.349 C466.192,426.513 468.477,428.134 470.221,430.208 C471.965,432.285 473.189,434.755 473.896,437.621 C474.601,440.485 474.955,443.662 474.955,447.15 L474.955,489.505 L464.366,489.505 L464.366,445.905 C464.366,441.918 463.202,438.763 460.878,436.437 C458.552,434.112 455.354,432.949 451.286,432.949 C448.047,432.949 445.244,433.447 442.877,434.444 C440.51,435.441 438.536,436.853 436.959,438.679 C435.382,440.507 434.198,442.646 433.409,445.095 C432.619,447.545 432.226,450.224 432.226,453.13 L432.226,489.505 L421.638,489.505 L421.638,400.559" fill="#FFFFFF"/>
  <path d="M545.339,469.075 C543.924,476.219 540.804,481.658 535.976,485.394 C531.15,489.132 525.073,491 517.749,491 C512.588,491 508.115,490.148 504.329,488.447 C500.541,486.746 497.359,484.398 494.78,481.409 C492.198,478.418 490.263,474.849 488.973,470.695 C487.683,466.543 486.954,462.017 486.789,457.116 C486.789,452.3 487.537,447.836 489.031,443.725 C490.527,439.614 492.623,436.062 495.323,433.073 C498.02,430.084 501.218,427.759 504.915,426.097 C508.609,424.437 512.658,423.605 517.061,423.605 C522.792,423.605 527.545,424.789 531.325,427.157 C535.103,429.523 538.133,432.535 540.419,436.188 C542.701,439.843 544.28,443.829 545.153,448.147 C546.024,452.467 546.377,456.578 546.211,460.48 L498.001,460.48 C497.917,463.303 498.25,465.982 498.997,468.515 C499.744,471.049 500.948,473.291 502.61,475.242 C504.271,477.194 506.388,478.751 508.963,479.913 C511.536,481.077 514.569,481.658 518.058,481.658 C522.458,481.658 526.112,480.62 529.02,478.543 C531.926,476.468 533.836,473.311 534.75,469.075 L545.339,469.075 L545.339,469.075 Z M534.999,451.136 C534.832,448.645 534.271,446.277 533.317,444.036 C532.362,441.794 531.075,439.863 529.456,438.243 C527.836,436.624 525.905,435.336 523.663,434.381 C521.421,433.428 519.011,432.949 516.438,432.949 C513.697,432.949 511.226,433.428 509.026,434.381 C506.825,435.336 504.934,436.646 503.358,438.305 C501.779,439.968 500.533,441.898 499.62,444.098 C498.706,446.3 498.166,448.645 498.001,451.136 L534.999,451.136 L534.999,451.136 Z" fill="#FFFFFF"/>
  <path d="M557.795,425.1 L567.76,425.1 L567.76,435.315 L568.01,435.315 C570.252,431.329 573.137,428.383 576.668,426.471 C580.197,424.561 584.286,423.605 588.938,423.605 C593.173,423.605 596.702,424.188 599.527,425.349 C602.35,426.513 604.635,428.134 606.378,430.208 C608.122,432.285 609.346,434.755 610.053,437.621 C610.758,440.485 611.112,443.662 611.112,447.15 L611.112,489.505 L600.524,489.505 L600.524,445.905 C600.524,441.918 599.359,438.763 597.035,436.437 C594.709,434.112 591.512,432.949 587.443,432.949 C584.205,432.949 581.401,433.447 579.034,434.444 C576.668,435.441 574.693,436.853 573.117,438.679 C571.539,440.507 570.355,442.646 569.566,445.095 C568.777,447.545 568.384,450.224 568.384,453.13 L568.384,489.505 L557.795,489.505 L557.795,425.1" fill="#FFFFFF"/>
</svg>
