<svg width="1822" height="590" xmlns="http://www.w3.org/2000/svg"><path fill="#FFF" d="M880 0h942v590H880zM0 0h823v590H0z"/><path d="M1351 100v320h-80V100H981v70h70v320h70V170h80v320h220V170h80v320h70V170h80v320h70V100h-370M131 110h-29.7v-10h71.2v10h-29.7v79H131v-79m91.4 58.5a26.2 26.2 0 0 1-9.3 16.3 28.9 28.9 0 0 1-18.3 5.6c-5.1 0-9.6-.8-13.4-2.5a27 27 0 0 1-15.3-17.8c-1.3-4.1-2-8.6-2.2-13.5 0-4.9.7-9.3 2.2-13.4a32 32 0 0 1 6.3-10.7 28.5 28.5 0 0 1 21.8-9.5 26 26 0 0 1 23.3 12.6 44 44 0 0 1 5.8 24.3h-48.2c0 2.8.2 5.5 1 8a17.8 17.8 0 0 0 10 11.4 22 22 0 0 0 9 1.8c4.5 0 8.1-1 11-3.1 3-2 4.8-5.2 5.7-9.5h10.6Zm-10.3-18c-.2-2.4-.7-4.8-1.7-7a18.2 18.2 0 0 0-9.6-9.7 18 18 0 0 0-7.3-1.4 17.1 17.1 0 0 0-13 5.4 18.8 18.8 0 0 0-3.8 5.7 22 22 0 0 0-1.6 7h37Zm66.5-5.3a16 16 0 0 0-5.3-9.4 16.1 16.1 0 0 0-10.6-3.4c-3.9 0-7 .7-9.6 2.1a17.1 17.1 0 0 0-6.2 5.6 25 25 0 0 0-3.3 8 43.8 43.8 0 0 0 0 18.2c.8 2.8 1.9 5.3 3.4 7.5a16.4 16.4 0 0 0 14.4 7.3 17 17 0 0 0 12.2-4.2c3-2.8 4.8-6.6 5.5-11.5H290a30 30 0 0 1-9 18.4 27.7 27.7 0 0 1-19.4 6.6c-4.9 0-9.2-.8-13-2.4-3.8-1.6-7-3.9-9.4-6.8a29 29 0 0 1-5.8-10.4 47.3 47.3 0 0 1 0-26.8c1.2-4.2 3.1-7.8 5.6-11 2.6-3 5.7-5.5 9.5-7.3a39 39 0 0 1 23.7-1.4c3.2 1 6 2.3 8.5 4.1a24 24 0 0 1 9 16.8h-11m23.7-45.2H313v34h.2c.9-1.9 2-3.6 3.6-5a21 21 0 0 1 5-3.4 29.5 29.5 0 0 1 11.7-2.6c4.3 0 7.8.6 10.6 1.8 2.9 1.2 5.1 2.8 6.9 4.8 1.7 2.1 3 4.6 3.7 7.5.7 2.8 1 6 1 9.5v42.3h-10.6v-43.6c0-4-1.1-7.1-3.5-9.4a13 13 0 0 0-9.5-3.5c-3.3 0-6 .5-8.5 1.5-2.3 1-4.3 2.4-5.9 4.2-1.6 1.8-2.7 4-3.5 6.4a26 26 0 0 0-1.2 8V189h-10.6v-89m69.3 24.5h10v10.3h.2c2.2-4 5.1-7 8.6-8.9a26 26 0 0 1 12.3-2.9c4.2 0 7.8.6 10.6 1.8 2.8 1.2 5.1 2.8 6.9 4.8 1.7 2.1 3 4.6 3.6 7.5.7 2.8 1 6 1 9.5v42.3h-10.5v-43.6c0-4-1.2-7.1-3.5-9.4a13 13 0 0 0-9.6-3.5c-3.2 0-6 .5-8.4 1.5-2.4 1-4.3 2.4-6 4.2-1.5 1.8-2.7 4-3.5 6.4a26 26 0 0 0-1.1 8V189h-10.6v-64.4m68.6-11.6H451v-13h-10.6v13Zm0 76H451v-64.5h-10.6V189Zm34.1-20.4c.1 2.5.7 4.4 1.7 6a11 11 0 0 0 3.9 3.8 14 14 0 0 0 5.5 2 31.2 31.2 0 0 0 16.5-1 9.4 9.4 0 0 0 3.8-3c1-1.3 1.5-2.9 1.5-4.9a7 7 0 0 0-1.8-5 13.8 13.8 0 0 0-4.7-3.2 37 37 0 0 0-6.7-2l-7.8-1.8c-2.7-.5-5.3-1.2-7.8-2a28 28 0 0 1-6.7-3.3c-2-1.3-3.6-3-4.8-5.1-1.2-2-1.8-4.7-1.8-7.7 0-3.3.7-6 2.2-8.4a19 19 0 0 1 5.6-5.7c2.3-1.4 4.9-2.5 7.7-3.2a51.1 51.1 0 0 1 18.6-.1c3.1.6 5.8 1.7 8.2 3.2a17 17 0 0 1 5.7 6.2c1.4 2.7 2.2 6 2.5 9.8H505a10.4 10.4 0 0 0-5.2-8.4c-1.4-.9-2.9-1.5-4.6-1.9a24 24 0 0 0-10-.1c-1.6.2-3 .7-4.4 1.3a8.6 8.6 0 0 0-3.2 2.6c-.9 1-1.3 2.4-1.3 4a6 6 0 0 0 2 4.6 16 16 0 0 0 4.9 3c2 .7 4.2 1.4 6.7 2a557.2 557.2 0 0 1 15.3 3.8c2.5.8 4.7 1.9 6.7 3.2a15.1 15.1 0 0 1 6.5 12.9c0 3.8-.8 7-2.4 9.6a18.7 18.7 0 0 1-6.3 6.3 27.6 27.6 0 0 1-8.9 3.3 49.5 49.5 0 0 1-20-.1c-3.2-.8-6-2-8.6-3.8-2.5-1.7-4.5-4-6-6.7a23.3 23.3 0 0 1-2.5-10.2h10.6m100.3-23.4a16 16 0 0 0-5.3-9.4 16.1 16.1 0 0 0-10.7-3.4c-3.8 0-7 .7-9.5 2.1a17.1 17.1 0 0 0-6.2 5.6 25 25 0 0 0-3.3 8 43.8 43.8 0 0 0 0 18.2c.8 2.8 1.9 5.3 3.4 7.5a16.1 16.1 0 0 0 14.4 7.3 17 17 0 0 0 12.2-4.2c3-2.8 4.8-6.6 5.5-11.5h10.8a30 30 0 0 1-9 18.4 27.7 27.7 0 0 1-19.4 6.6c-4.9 0-9.2-.8-13-2.4-3.8-1.6-7-3.9-9.5-6.8a29 29 0 0 1-5.7-10.4 47.3 47.3 0 0 1 0-26.8c1.2-4.2 3-7.8 5.6-11 2.6-3 5.7-5.5 9.5-7.3a39 39 0 0 1 23.7-1.4c3.2 1 6 2.3 8.5 4.1 2.5 1.8 4.5 4.1 6 7 1.6 2.7 2.5 6 3 9.8h-11m23.8-45.2H609v34h.2c.9-1.9 2-3.6 3.6-5a21 21 0 0 1 5-3.4 29.5 29.5 0 0 1 11.7-2.6c4.3 0 7.8.6 10.6 1.8 2.8 1.2 5.1 2.8 6.9 4.8 1.7 2.1 3 4.6 3.6 7.5a35 35 0 0 1 1.1 9.5v42.3h-10.6v-43.6c0-4-1.1-7.1-3.5-9.4a13 13 0 0 0-9.6-3.5c-3.2 0-6 .5-8.4 1.5-2.3 1-4.3 2.4-5.9 4.2-1.6 1.8-2.8 4-3.5 6.4a26 26 0 0 0-1.2 8V189h-10.6v-89M722 168.5a26.2 26.2 0 0 1-9.3 16.3 28.9 28.9 0 0 1-18.2 5.6c-5.2 0-9.6-.8-13.4-2.5a27 27 0 0 1-15.4-17.8c-1.3-4.1-2-8.6-2.2-13.5 0-4.9.8-9.3 2.3-13.4a32 32 0 0 1 6.3-10.7 28.5 28.5 0 0 1 21.7-9.5c5.7 0 10.5 1.2 14.3 3.6a33 33 0 0 1 13.8 21c.9 4.3 1.2 8.4 1 12.3h-48.1c-.1 2.8.2 5.5 1 8a17.8 17.8 0 0 0 10 11.4c2.5 1.2 5.5 1.8 9 1.8 4.4 0 8-1 11-3.1 2.9-2 4.8-5.2 5.7-9.5h10.6Zm-10.3-18a21 21 0 0 0-1.6-7 18.2 18.2 0 0 0-17-11.1 17.1 17.1 0 0 0-13 5.4 18.8 18.8 0 0 0-3.7 5.7 22 22 0 0 0-1.6 7h37ZM179.8 307c0 11.4-3 20-9.1 25.7a36.1 36.1 0 0 1-25.9 8.6c-5.7 0-10.8-.6-15.3-2a27.5 27.5 0 0 1-18.6-17 42.6 42.6 0 0 1-2.6-15.2v-56.8h11.9V307c0 7.9 2.1 13.9 6.4 18 4.3 4.2 10.3 6.3 18.2 6.3 7.6 0 13.3-2.1 17.3-6.3 4-4.1 6-10.1 6-18v-56.8h11.7V307m16-32.2h10V285h.2a21 21 0 0 1 8.7-8.8c3.5-2 7.6-2.9 12.2-2.9 4.3 0 7.8.6 10.6 1.8 2.8 1.1 5.1 2.8 6.9 4.8 1.7 2.1 3 4.6 3.6 7.4.8 3 1.1 6 1.1 9.6v42.3h-10.6v-43.6c0-4-1.1-7.1-3.5-9.4a13 13 0 0 0-9.6-3.5c-3.2 0-6 .5-8.4 1.5-2.3 1-4.3 2.4-5.9 4.2-1.6 1.8-2.8 4-3.5 6.4a26 26 0 0 0-1.2 8v36.4h-10.6v-64.4m69.2-11.6h10.6v-13H265v13Zm0 76h10.6v-64.4H265v64.4Zm57.5 0H311l-23.9-64.4H299l18 53.7h.3l17.5-53.7H346l-23.5 64.4m87.1-20.4a26.2 26.2 0 0 1-9.4 16.3 28.9 28.9 0 0 1-18.2 5.6c-5.2 0-9.7-.8-13.5-2.5a27 27 0 0 1-15.3-17.8 41.8 41.8 0 0 1 0-27 32 32 0 0 1 6.3-10.6 28.5 28.5 0 0 1 21.8-9.5 25.8 25.8 0 0 1 23.3 12.6 36 36 0 0 1 4.8 12c.8 4.3 1.2 8.4 1 12.3h-48.2c0 2.8.3 5.5 1 8a17.8 17.8 0 0 0 10 11.4c2.6 1.2 5.6 1.8 9 1.8 4.5 0 8.1-1 11-3.1 3-2.1 4.9-5.3 5.8-9.5h10.6Zm-10.4-18c-.2-2.4-.7-4.8-1.7-7a18.2 18.2 0 0 0-9.6-9.7c-2.3-1-4.7-1.4-7.2-1.4a17.1 17.1 0 0 0-13 5.4 18.8 18.8 0 0 0-3.9 5.7 22 22 0 0 0-1.6 7h37Zm23.1-26h10v13.6h.2c2.5-5.2 5.7-9 9.4-11.6 3.8-2.5 8.5-3.6 14.2-3.5v11.2a30 30 0 0 0-10.8 1.8 17 17 0 0 0-7.2 5 21 21 0 0 0-4 8.3c-.8 3.3-1.3 6.9-1.3 11v28.6h-10.5v-64.4m49.5 44.2a12 12 0 0 0 1.7 5.9c1 1.6 2.3 2.8 3.9 3.8s3.4 1.6 5.5 2a31.2 31.2 0 0 0 16.5-1 9.4 9.4 0 0 0 3.8-3c1-1.3 1.5-3 1.5-5s-.6-3.7-1.8-5a13.8 13.8 0 0 0-4.7-3.1 37 37 0 0 0-6.7-2l-7.8-1.8-7.8-2a28 28 0 0 1-6.7-3.3c-2-1.4-3.6-3-4.8-5.1a15.5 15.5 0 0 1-1.8-7.8c0-3.2.7-6 2.2-8.3a19 19 0 0 1 5.6-5.7c2.3-1.4 4.9-2.5 7.7-3.2a51.1 51.1 0 0 1 18.6-.1c3.1.6 5.8 1.7 8.2 3.2 2.4 1.5 4.3 3.6 5.7 6.2 1.4 2.6 2.2 5.9 2.5 9.8h-10.6a10.4 10.4 0 0 0-5.2-8.5 17 17 0 0 0-4.6-1.8 24 24 0 0 0-10-.2c-1.6.3-3 .7-4.4 1.4a8.6 8.6 0 0 0-3.2 2.5 6.2 6.2 0 0 0-1.3 4 6 6 0 0 0 2 4.7 16 16 0 0 0 4.9 3c2 .7 4.2 1.4 6.7 2a573.1 573.1 0 0 1 15.3 3.7c2.5.9 4.7 2 6.7 3.3a15.1 15.1 0 0 1 6.5 12.9c0 3.8-.8 7-2.4 9.6a18.7 18.7 0 0 1-6.3 6.3 27.6 27.6 0 0 1-8.9 3.3 49.5 49.5 0 0 1-20-.2c-3.2-.8-6-2-8.6-3.7-2.5-1.7-4.5-4-6-6.7a23.3 23.3 0 0 1-2.5-10.2h10.6m55.8-55.7h10.6v-13h-10.6v13Zm0 76h10.6v-64.4h-10.6v64.4Zm44.9-64.4h12.8v9.4h-12.8v40a9 9 0 0 0 .3 3 3 3 0 0 0 1.2 1.7c.6.4 1.4.7 2.4.8l4 .2h5v9.3h-8.2c-2.7 0-5-.2-7-.5-2-.4-3.5-1-4.7-2a8.8 8.8 0 0 1-2.7-4.3c-.6-1.9-.9-4.3-.9-7.3v-41h-11v-9.3h11v-19.3h10.6v19.3m82.8 64.2a15 15 0 0 1-7.6 1.7 9 9 0 0 1-6.5-2.3c-1.6-1.6-2.4-4.2-2.4-7.6-3 3.4-6.3 6-10.2 7.6a32.8 32.8 0 0 1-20.8 1.3c-2.6-.6-4.9-1.7-6.8-3.2a14.7 14.7 0 0 1-4.5-5.6c-1.2-2.2-1.7-5-1.7-8.2 0-3.7.6-6.7 1.9-9 1.2-2.3 2.8-4.2 4.9-5.6 2-1.4 4.3-2.5 7-3.3a97.6 97.6 0 0 1 16.3-3.2c2.6-.3 4.9-.8 6.9-1.3s3.6-1.3 4.7-2.4c1.2-1 1.8-2.5 1.8-4.5 0-2.3-.5-4.2-1.3-5.6a9 9 0 0 0-3.4-3.3c-1.4-.7-3-1.2-4.6-1.5l-5-.3c-4.5 0-8.3.8-11.3 2.5s-4.6 5-4.8 9.7h-10.6c.1-4 1-7.4 2.5-10.1 1.5-2.8 3.5-5 6-6.7 2.4-1.7 5.3-3 8.5-3.7a60.3 60.3 0 0 1 18.9-.5 24 24 0 0 1 7.8 2.6 15 15 0 0 1 5.6 5.4c1.4 2.3 2.1 5.4 2.1 9.1v33.2c0 2.4.2 4.3.5 5.4.3 1.2 1.2 1.8 2.9 1.8 1 0 2-.2 3.2-.6v8.2Zm-17.2-33c-1 .7-2.2 1.3-3.7 1.7a49.7 49.7 0 0 1-10 1.8 72 72 0 0 0-10.4 2c-1.6.6-3 1.3-4.1 2.1a9.9 9.9 0 0 0-3.9 8.3c0 1.8.4 3.2 1 4.4a8.8 8.8 0 0 0 2.8 3c1.1.7 2.4 1.2 4 1.6a25 25 0 0 0 13.7-1c2.4-1 4.5-2.1 6-3.6 1.6-1.4 2.8-3 3.5-4.7a12 12 0 0 0 1.1-4.8V306ZM607 264.2h11v-13h-11.2v13Zm23.4 0h11.2v-13h-11.2v13Zm50.7 10.6H694v9.4h-12.8v40c0 1.2.1 2.2.3 3a3 3 0 0 0 1.2 1.7c.6.4 1.4.7 2.4.8l4 .2h5v9.3h-8.2c-2.7 0-5-.2-7-.5-2-.4-3.5-1-4.7-2a8.8 8.8 0 0 1-2.7-4.3c-.6-1.9-.9-4.3-.9-7.3v-41h-11v-9.3h11v-19.3h10.6v19.3M109 400.6h16.3l28 74.7 28.2-74.7h16.2v88.9h-11.3v-74h-.2l-27.8 74h-10l-27.9-74h-.2v74h-11.2v-89m158.6 89h-10v-10.2h-.2a22 22 0 0 1-8.7 8.8c-3.5 2-7.6 2.9-12.3 2.9a28 28 0 0 1-10.6-1.7 17.4 17.4 0 0 1-10.5-12.3c-.7-2.9-1-6-1-9.5V425h10.5v43.6c0 4 1.2 7.1 3.5 9.5a13 13 0 0 0 9.6 3.5c3.3 0 6-.5 8.4-1.5 2.4-1 4.4-2.4 6-4.3 1.5-1.8 2.7-4 3.5-6.4a26 26 0 0 0 1.2-8V425h10.6v64.4Zm-44.1-75h11.2v-13h-11.2v13Zm23.4 0h11.2v-13H247v13Zm37.2 10.6h10v10.2h.3c2.2-4 5-7 8.6-8.8 3.5-2 7.6-2.9 12.3-2.9 4.2 0 7.7.6 10.6 1.7a18 18 0 0 1 10.5 12.3c.7 2.9 1 6 1 9.5v42.4H327v-43.6c0-4-1.2-7.1-3.5-9.5a13 13 0 0 0-9.6-3.5c-3.3 0-6 .5-8.4 1.5a16.5 16.5 0 0 0-9.5 10.7 26 26 0 0 0-1.2 8v36.4h-10.6v-64.4m113.6 20.7a16 16 0 0 0-5.2-9.5 16.1 16.1 0 0 0-10.7-3.4c-3.8 0-7 .8-9.6 2.2a17.1 17.1 0 0 0-6.2 5.6 25 25 0 0 0-3.3 8 43.8 43.8 0 0 0 .1 18.1c.7 2.9 1.8 5.4 3.3 7.6a16.4 16.4 0 0 0 14.5 7.3c5.1 0 9.2-1.4 12.2-4.2a18 18 0 0 0 5.4-11.5h10.9a30 30 0 0 1-9 18.4 27.7 27.7 0 0 1-19.4 6.6c-5 0-9.3-.8-13-2.4-3.8-1.6-7-4-9.5-6.8a29 29 0 0 1-5.7-10.4 47.3 47.3 0 0 1 0-26.8 28 28 0 0 1 15-18.3 39 39 0 0 1 23.7-1.4c3.2.9 6 2.2 8.5 4a24.5 24.5 0 0 1 9 16.9h-11m23.8-45.2h10.6v34h.3c.8-2 2-3.6 3.5-5 1.6-1.4 3.2-2.6 5-3.4a29.6 29.6 0 0 1 11.7-2.6c4.3 0 7.8.6 10.7 1.7a18 18 0 0 1 10.5 12.3c.7 2.9 1 6 1 9.5v42.4h-10.5v-43.6c0-4-1.2-7.1-3.5-9.5a13 13 0 0 0-9.6-3.5c-3.3 0-6 .5-8.4 1.5a16.5 16.5 0 0 0-9.5 10.7 26 26 0 0 0-1.2 8v36.4h-10.6v-89M545.3 469a26.2 26.2 0 0 1-9.3 16.4 28.9 28.9 0 0 1-18.3 5.6c-5.1 0-9.6-.9-13.4-2.6a27 27 0 0 1-15.3-17.7 53 53 0 0 1-2.2-13.6c0-4.8.7-9.3 2.2-13.4a32 32 0 0 1 6.3-10.6 28.5 28.5 0 0 1 21.8-9.5 26 26 0 0 1 23.3 12.6c2.3 3.6 3.9 7.6 4.8 12 .8 4.3 1.2 8.4 1 12.3H498c0 2.8.3 5.5 1 8s2 4.8 3.6 6.7a17 17 0 0 0 6.4 4.7 22 22 0 0 0 9 1.8c4.5 0 8.1-1 11-3.2 3-2 4.8-5.2 5.8-9.4h10.5ZM535 451.2c-.2-2.5-.7-4.8-1.7-7a18.2 18.2 0 0 0-16.9-11.2 17.8 17.8 0 0 0-13 5.5 18.8 18.8 0 0 0-3.8 5.7 22 22 0 0 0-1.6 7h37Zm22.8-26.1h10v10.2h.2c2.3-4 5.1-7 8.7-8.8 3.5-2 7.6-2.9 12.2-2.9 4.3 0 7.8.6 10.6 1.7a18 18 0 0 1 10.6 12.3c.7 2.9 1 6 1 9.5v42.4h-10.6v-43.6c0-4-1.1-7.1-3.5-9.5a13 13 0 0 0-9.6-3.5c-3.2 0-6 .5-8.4 1.5a17 17 0 0 0-9.4 10.7 26 26 0 0 0-1.2 8v36.4h-10.6v-64.4" fill="#0065BD"/></svg>
